{
.appVersion = "3133";
DisplayStrings = (
"/space/nbspace"
);
classes = (
{
automatic = 1;

glyphs = (
{
glyphname = A;
lastChange = "2022-05-18 03:32:05 +0000";
layers = (
{
anchors = (
{
name = bottom;
position = "{612, 0}";
},
{
name = ogonek;
position = "{1018, 10}";
},
{
name = top;
position = "{2098, 1447}";
}
);
layerId = master01;
paths = (
{
closed = 1;
nodes = (
"300 -5 OFFCURVE",
"385 19 OFFCURVE",
"470 73 CURVE SMOOTH",
"522 105 OFFCURVE",
"592 157 OFFCURVE",
"687 237 CURVE",
"764 213 OFFCURVE",
"853 199 OFFCURVE",
"951 199 CURVE SMOOTH",
"972 199 OFFCURVE",
"993 200 OFFCURVE",
"1014 201 CURVE",
"1011 194 OFFCURVE",
"1007 188 OFFCURVE",
"1003 182 CURVE SMOOTH",
"955 123 OFFCURVE",
"906 63 OFFCURVE",
"855 -1 CURVE {name = hr03;}",
"874 1 OFFCURVE",
"890 5 OFFCURVE",
"913 5 CURVE SMOOTH",
"939 5 OFFCURVE",
"988 1 OFFCURVE",
"1029 -1 CURVE",
"1200 225 LINE",
"1365 260 OFFCURVE",
"1519 330 OFFCURVE",
"1626 434 CURVE SMOOTH",
"1706 512 OFFCURVE",
"1770 595 OFFCURVE",
"1778 710 CURVE",
"1778 726 OFFCURVE",
"1766 739 OFFCURVE",
"1762 739 CURVE SMOOTH {name = hr04;}",
"1758 739 OFFCURVE",
"1753 727 OFFCURVE",
"1746 709 CURVE SMOOTH",
"1668 503 OFFCURVE",
"1474 339 OFFCURVE",
"1232 267 CURVE",
"1934 1195 OFFCURVE",
"2047 1367 OFFCURVE",
"2098 1383 CURVE",
"2114 1389 OFFCURVE",
"2118 1393 OFFCURVE",
"2118 1395 CURVE SMOOTH",
"2118 1403 OFFCURVE",
"2113 1404 OFFCURVE",
"2100 1404 CURVE SMOOTH",
"2066 1404 OFFCURVE",
"2003 1389 OFFCURVE",
"1905 1337 CURVE SMOOTH",
"1757 1259 OFFCURVE",
"1547 1113 OFFCURVE",
"1054 620 CURVE SMOOTH",
"1027 593 LINE",
"953 749 OFFCURVE",
"811 869 OFFCURVE",
"631 869 CURVE SMOOTH",
"437 869 OFFCURVE",
"330 741 OFFCURVE",
"337 602 CURVE SMOOTH",
"344 460 OFFCURVE",
"459 321 OFFCURVE",
"652 249 CURVE",
"600 206 OFFCURVE",
"552 168 OFFCURVE",
"503 132 CURVE",
"402 62 OFFCURVE",
"309 22 OFFCURVE",
"220 22 CURVE SMOOTH",
"90 22 OFFCURVE",
"40 68 OFFCURVE",
"40 132 CURVE SMOOTH",
"40 139 LINE",
"53 130 OFFCURVE",
"70 129 OFFCURVE",
"88 129 CURVE SMOOTH",
"118 129 OFFCURVE",
"144 152 OFFCURVE",
"144 178 CURVE SMOOTH",
"144 211 OFFCURVE",
"116 223 OFFCURVE",
"94 223 CURVE SMOOTH",
"53 223 OFFCURVE",
"0 201 OFFCURVE",
"0 141 CURVE SMOOTH",
"0 60 OFFCURVE",
"71 -5 OFFCURVE",
"212 -5 CURVE SMOOTH {name = hr01;}"
);
},
{
closed = 1;
nodes = (
"491 334 OFFCURVE",
"399 465 OFFCURVE",
"399 604 CURVE",
"398 728 OFFCURVE",
"505 839 OFFCURVE",
"633 839 CURVE SMOOTH",
"797 839 OFFCURVE",
"936 730 OFFCURVE",
"1004 572 CURVE",
"871 443 OFFCURVE",
"768 347 OFFCURVE",
"676 269 CURVE"
);
},
{
closed = 1;
nodes = (
"863 227 OFFCURVE",
"781 238 OFFCURVE",
"711 258 CURVE",
"794 330 OFFCURVE",
"895 422 OFFCURVE",
"1017 539 CURVE",
"1038 480 OFFCURVE",
"1050 415 OFFCURVE",
"1050 347 CURVE SMOOTH",
"1050 317 OFFCURVE",
"1043 271 OFFCURVE",
"1027 230 CURVE",
"1004 228 OFFCURVE",
"980 227 OFFCURVE",
"957 227 CURVE SMOOTH"
);
},
{
closed = 1;
nodes = (
"1078 293 OFFCURVE",
"1082 323 OFFCURVE",
"1082 353 CURVE SMOOTH",
"1082 424 OFFCURVE",
"1067 495 OFFCURVE",
"1041 562 CURVE",
"1105 624 LINE SMOOTH",
"1487 995 OFFCURVE",
"1715 1195 OFFCURVE",
"1877 1294 CURVE SMOOTH",
"1941 1332 OFFCURVE",
"1983 1349 OFFCURVE",
"2026 1366 CURVE",
"1915 1263 OFFCURVE",
"1634 955 OFFCURVE",
"1070 264 CURVE"
);
}
);
width = 1628;
}
);
leftKerningGroup = A;
rightKerningGroup = A;
unicode = 0041;
userData = {
KernOnName = A;
};
},
{
glyphname = AE;
lastChange = "2022-05-18 03:32:05 +0000";
layers = (
{
anchors = (
{
name = bottom;
position = "{1232, 0}";
},
{
name = top;
position = "{2362, 1447}";
}
);
layerId = master01;
paths = (
{
closed = 1;
nodes = (
"1597 -290 OFFCURVE",
"1604 -285 OFFCURVE",
"1604 -279 CURVE SMOOTH",
"1604 -276 OFFCURVE",
"1601 -272 OFFCURVE",
"1593 -266 CURVE SMOOTH",
"1547 -228 OFFCURVE",
"1515 -158 OFFCURVE",
"1515 -54 CURVE SMOOTH",
"1515 -39 OFFCURVE",
"1516 -23 OFFCURVE",
"1518 -7 CURVE",
"1533 -8 OFFCURVE",
"1548 -9 OFFCURVE",
"1564 -9 CURVE SMOOTH {name = hr02;}",
"1839 -9 OFFCURVE",
"2080 187 OFFCURVE",
"2080 381 CURVE SMOOTH",
"2080 456 OFFCURVE",
"2037 505 OFFCURVE",
"1945 505 CURVE SMOOTH",
"1775 505 OFFCURVE",
"1626 375 OFFCURVE",
"1540 182 CURVE SMOOTH",
"1517 131 OFFCURVE",
"1503 76 OFFCURVE",
"1495 24 CURVE",
"1374 45 OFFCURVE",
"1309 118 OFFCURVE",
"1309 223 CURVE SMOOTH",
"1309 392 OFFCURVE",
"1646 714 OFFCURVE",
"1881 714 CURVE SMOOTH",
"1888 714 LINE",
"1920 646 OFFCURVE",
"1979 613 OFFCURVE",
"2037 613 CURVE SMOOTH",
"2078 613 OFFCURVE",
"2091 629 OFFCURVE",
"2091 645 CURVE SMOOTH",
"2091 682 OFFCURVE",
"2041 722 OFFCURVE",
"1937 740 CURVE {name = hr03;}",
"1937 760 LINE SMOOTH",
"1937 906 OFFCURVE",
"2080 1137 OFFCURVE",
"2312 1285 CURVE",
"2372 1322 OFFCURVE",
"2456 1350 OFFCURVE",
"2522 1350 CURVE SMOOTH",
"2620 1350 OFFCURVE",
"2668 1304 OFFCURVE",
"2668 1232 CURVE SMOOTH",
"2668 1040 OFFCURVE",
"2369 807 OFFCURVE",
"2188 807 CURVE SMOOTH",
"2129 807 OFFCURVE",
"2101 832 OFFCURVE",
"2101 870 CURVE SMOOTH",
"2101 994 OFFCURVE",
"2314 1197 OFFCURVE",
"2523 1197 CURVE SMOOTH",
"2541 1197 OFFCURVE",
"2555 1199 OFFCURVE",
"2555 1211 CURVE SMOOTH",
"2555 1216 OFFCURVE",
"2547 1222 OFFCURVE",
"2532 1222 CURVE SMOOTH {name = hr04;}",
"2283 1222 OFFCURVE",
"2069 1001 OFFCURVE",
"2069 872 CURVE SMOOTH",
"2069 819 OFFCURVE",
"2111 779 OFFCURVE",
"2185 779 CURVE SMOOTH",
"2464 779 OFFCURVE",
"2710 1034 OFFCURVE",
"2710 1230 CURVE SMOOTH",
"2710 1303 OFFCURVE",
"2658 1378 OFFCURVE",
"2501 1378 CURVE SMOOTH {name = hr05;}",
"2208 1378 OFFCURVE",
"1864 1085 OFFCURVE",
"1864 832 CURVE SMOOTH",
"1864 800 OFFCURVE",
"1868 772 OFFCURVE",
"1875 747 CURVE",
"1858 748 OFFCURVE",
"1839 749 OFFCURVE",
"1819 749 CURVE SMOOTH",
"1714 749 OFFCURVE",
"1613 722 OFFCURVE",
"1525 677 CURVE",
"1965 1248 OFFCURVE",
"2075 1370 OFFCURVE",
"2117 1383 CURVE",
"2133 1389 OFFCURVE",
"2137 1393 OFFCURVE",
"2137 1395 CURVE SMOOTH",
"2137 1403 OFFCURVE",
"2132 1404 OFFCURVE",
"2119 1404 CURVE SMOOTH",
"2085 1404 OFFCURVE",
"2022 1389 OFFCURVE",
"1924 1337 CURVE SMOOTH",
"1776 1259 OFFCURVE",
"1573 1105 OFFCURVE",
"1073 620 CURVE SMOOTH",
"1037 585 OFFCURVE",
"1003 552 OFFCURVE",
"971 522 CURVE",
"891 677 OFFCURVE",
"740 797 OFFCURVE",
"561 797 CURVE SMOOTH",
"391 797 OFFCURVE",
"299 669 OFFCURVE",
"299 561 CURVE SMOOTH",
"299 411 OFFCURVE",
"411 271 OFFCURVE",
"603 194 CURVE",
"576 172 OFFCURVE",
"549 152 OFFCURVE",
"522 132 CURVE",
"421 62 OFFCURVE",
"331 26 OFFCURVE",
"242 26 CURVE SMOOTH",
"132 26 OFFCURVE",
"61 83 OFFCURVE",
"48 147 CURVE",
"56 143 OFFCURVE",
"65 142 OFFCURVE",
"71 142 CURVE SMOOTH",
"104 142 OFFCURVE",
"125 161 OFFCURVE",
"125 189 CURVE SMOOTH",
"125 217 OFFCURVE",
"99 242 OFFCURVE",
"67 242 CURVE SMOOTH",
"27 242 OFFCURVE",
"0 212 OFFCURVE",
"0 172 CURVE SMOOTH",
"0 93 OFFCURVE",
"83 -5 OFFCURVE",
"231 -5 CURVE SMOOTH {name = hr01;}",
"319 -5 OFFCURVE",
"404 19 OFFCURVE",
"489 73 CURVE SMOOTH",
"528 97 OFFCURVE",
"577 132 OFFCURVE",
"638 181 CURVE",
"728 150 OFFCURVE",
"835 132 OFFCURVE",
"954 132 CURVE",
"918 89 OFFCURVE",
"882 44 OFFCURVE",
"844 -1 CURVE",
"862 1 OFFCURVE",
"878 5 OFFCURVE",
"902 5 CURVE SMOOTH",
"927 5 OFFCURVE",
"966 1 OFFCURVE",
"1007 -1 CURVE",
"1238 302 LINE",
"1236 286 OFFCURVE",
"1235 270 OFFCURVE",
"1235 254 CURVE SMOOTH",
"1235 131 OFFCURVE",
"1330 22 OFFCURVE",
"1491 -3 CURVE",
"1488 -24 OFFCURVE",
"1488 -44 OFFCURVE",
"1488 -63 CURVE SMOOTH",
"1488 -164 OFFCURVE",
"1518 -231 OFFCURVE",
"1566 -276 CURVE SMOOTH",
"1580 -288 OFFCURVE",
"1586 -290 OFFCURVE",
"1591 -290 CURVE SMOOTH"
);
},
{
closed = 1;
nodes = (
"473 290 OFFCURVE",
"369 408 OFFCURVE",
"369 549 CURVE SMOOTH",
"369 674 OFFCURVE",
"435 763 OFFCURVE",
"572 763 CURVE SMOOTH",
"719 763 OFFCURVE",
"870 656 OFFCURVE",
"948 499 CURVE",
"825 382 OFFCURVE",
"728 296 OFFCURVE",
"640 223 CURVE"
);
},
{
closed = 1;
nodes = (
"866 163 OFFCURVE",
"762 180 OFFCURVE",
"674 210 CURVE",
"751 274 OFFCURVE",
"845 359 OFFCURVE",
"962 469 CURVE",
"987 409 OFFCURVE",
"1001 344 OFFCURVE",
"1001 275 CURVE SMOOTH",
"1001 247 OFFCURVE",
"995 203 OFFCURVE",
"981 164 CURVE",
"981 163 OFFCURVE",
"981 163 OFFCURVE",
"980 163 CURVE SMOOTH"
);
},
{
closed = 1;
nodes = (
"1552 19 OFFCURVE",
"1537 19 OFFCURVE",
"1523 21 CURVE",
"1534 70 OFFCURVE",
"1554 124 OFFCURVE",
"1582 178 CURVE SMOOTH",
"1675 357 OFFCURVE",
"1851 474 OFFCURVE",
"1951 474 CURVE SMOOTH",
"2020 474 OFFCURVE",
"2046 453 OFFCURVE",
"2046 406 CURVE SMOOTH",
"2046 295 OFFCURVE",
"1759 19 OFFCURVE",
"1567 19 CURVE SMOOTH"
);
},
{
closed = 1;
nodes = (
"1033 239 OFFCURVE",
"1034 257 OFFCURVE",
"1034 275 CURVE SMOOTH",
"1034 348 OFFCURVE",
"1017 422 OFFCURVE",
"986 491 CURVE",
"1029 532 OFFCURVE",
"1075 576 OFFCURVE",
"1124 624 CURVE SMOOTH",
"1505 996 OFFCURVE",
"1734 1195 OFFCURVE",
"1896 1294 CURVE SMOOTH",
"1955 1329 OFFCURVE",
"1995 1341 OFFCURVE",
"2035 1355 CURVE",
"1920 1241 OFFCURVE",
"1617 922 OFFCURVE",
"1030 222 CURVE"
);
},
{
closed = 1;
nodes = (
"1987 642 OFFCURVE",
"1955 662 OFFCURVE",
"1942 709 CURVE",
"2010 699 OFFCURVE",
"2050 672 OFFCURVE",
"2050 654 CURVE SMOOTH",
"2050 645 OFFCURVE",
"2045 642 OFFCURVE",
"2037 642 CURVE SMOOTH {name = hr06;}"
);
}
);
width = 2158;
}
);
leftKerningGroup = A;
rightKerningGroup = E;
unicode = 00C6;
},
{
glyphname = B;
lastChange = "2022-05-18 03:32:05 +0000";
layers = (
{
anchors = (
{
name = bottom;
position = "{672, 0}";
},
{
name = top;
position = "{1616, 1446}";
}
);
layerId = master01;
paths = (
{
closed = 1;
nodes = (
"286 -2 OFFCURVE",
"358 3 OFFCURVE",
"432 32 CURVE",
"645 120 OFFCURVE",
"882 316 OFFCURVE",
"1133 652 CURVE SMOOTH",
"1341 931 OFFCURVE",
"1492 1090 OFFCURVE",
"1658 1214 CURVE SMOOTH",
"1691 1238 OFFCURVE",
"1722 1260 OFFCURVE",
"1752 1277 CURVE",
"1779 1242 OFFCURVE",
"1794 1200 OFFCURVE",
"1794 1153 CURVE SMOOTH",
"1794 928 OFFCURVE",
"1622 753 OFFCURVE",
"1454 671 CURVE",
"1420 688 OFFCURVE",
"1379 698 OFFCURVE",
"1332 698 CURVE SMOOTH",
"1247 698 OFFCURVE",
"1168 666 OFFCURVE",
"1168 634 CURVE SMOOTH",
"1168 613 OFFCURVE",
"1200 588 OFFCURVE",
"1262 588 CURVE SMOOTH {name = hr03;}",
"1326 588 OFFCURVE",
"1393 601 OFFCURVE",
"1459 623 CURVE",
"1469 607 OFFCURVE",
"1474 585 OFFCURVE",
"1474 559 CURVE SMOOTH",
"1474 261 OFFCURVE",
"1210 26 OFFCURVE",
"1020 26 CURVE SMOOTH",
"912 26 OFFCURVE",
"883 68 OFFCURVE",
"883 108 CURVE SMOOTH",
"883 246 OFFCURVE",
"1149 443 OFFCURVE",
"1358 443 CURVE SMOOTH",
"1376 443 OFFCURVE",
"1389 447 OFFCURVE",
"1389 457 CURVE SMOOTH",
"1389 462 OFFCURVE",
"1381 469 OFFCURVE",
"1368 469 CURVE SMOOTH",
"1117 469 OFFCURVE",
"850 247 OFFCURVE",
"850 109 CURVE SMOOTH",
"850 59 OFFCURVE",
"888 -2 OFFCURVE",
"1016 -2 CURVE SMOOTH",
"1303 -2 OFFCURVE",
"1582 212 OFFCURVE",
"1582 439 CURVE SMOOTH",
"1582 524 OFFCURVE",
"1554 594 OFFCURVE",
"1502 640 CURVE",
"1712 725 OFFCURVE",
"1898 905 OFFCURVE",
"1898 1083 CURVE SMOOTH",
"1898 1173 OFFCURVE",
"1864 1248 OFFCURVE",
"1804 1305 CURVE",
"1960 1384 OFFCURVE",
"2061 1377 OFFCURVE",
"2061 1390 CURVE SMOOTH",
"2061 1398 OFFCURVE",
"2049 1400 OFFCURVE",
"2028 1400 CURVE SMOOTH",
"1968 1400 OFFCURVE",
"1883 1378 OFFCURVE",
"1778 1328 CURVE",
"1683 1401 OFFCURVE",
"1538 1440 OFFCURVE",
"1362 1440 CURVE SMOOTH",
"868 1440 OFFCURVE",
"374 1066 OFFCURVE",
"374 741 CURVE SMOOTH",
"374 642 OFFCURVE",
"451 600 OFFCURVE",
"531 600 CURVE SMOOTH {name = hr04;}",
"844 600 OFFCURVE",
"1209 883 OFFCURVE",
"1209 1270 CURVE SMOOTH",
"1209 1282 OFFCURVE",
"1205 1292 OFFCURVE",
"1198 1292 CURVE SMOOTH",
"1190 1292 OFFCURVE",
"1189 1287 OFFCURVE",
"1184 1260 CURVE",
"1137 911 OFFCURVE",
"768 622 OFFCURVE",
"541 622 CURVE SMOOTH",
"465 622 OFFCURVE",
"404 658 OFFCURVE",
"404 738 CURVE SMOOTH",
"404 926 OFFCURVE",
"730 1246 OFFCURVE",
"1051 1363 CURVE",
"1144 1398 OFFCURVE",
"1257 1418 OFFCURVE",
"1350 1418 CURVE SMOOTH",
"1521 1418 OFFCURVE",
"1656 1377 OFFCURVE",
"1730 1303 CURVE",
"1550 1207 OFFCURVE",
"1319 1030 OFFCURVE",
"1064 738 CURVE",
"499 111 OFFCURVE",
"388 24 OFFCURVE",
"220 24 CURVE SMOOTH",
"109 24 OFFCURVE",
"39 70 OFFCURVE",
"39 135 CURVE SMOOTH",
"39 141 LINE",
"52 132 OFFCURVE",
"70 131 OFFCURVE",
"87 131 CURVE SMOOTH",
"117 131 OFFCURVE",
"143 154 OFFCURVE",
"143 180 CURVE SMOOTH",
"143 213 OFFCURVE",
"115 226 OFFCURVE",
"93 226 CURVE SMOOTH",
"52 226 OFFCURVE",
"0 203 OFFCURVE",
"0 142 CURVE SMOOTH",
"0 63 OFFCURVE",
"95 -2 OFFCURVE",
"212 -2 CURVE SMOOTH {name = hr01;}"
);
},
{
closed = 1;
nodes = (
"1238 620 OFFCURVE",
"1219 632 OFFCURVE",
"1219 642 CURVE SMOOTH {name = hr06;}",
"1219 658 OFFCURVE",
"1270 675 OFFCURVE",
"1333 675 CURVE SMOOTH",
"1369 675 OFFCURVE",
"1400 670 OFFCURVE",
"1423 657 CURVE",
"1366 633 OFFCURVE",
"1310 620 OFFCURVE",
"1263 620 CURVE SMOOTH"
);
}
);
width = 1633;
}
);
leftKerningGroup = B;
rightKerningGroup = B;
unicode = 0042;
},
{
glyphname = C;
lastChange = "2022-05-18 03:32:05 +0000";
layers = (
{
anchors = (
{
name = bottom;
position = "{426, 39}";
},
{
name = top;
position = "{1614, 1446}";
}
);
layerId = master01;
paths = (
{
closed = 1;
nodes = (
"616 -262 OFFCURVE",
"620 -260 OFFCURVE",
"620 -257 CURVE SMOOTH",
"620 -254 OFFCURVE",
"621 -251 OFFCURVE",
"616 -244 CURVE SMOOTH",
"573 -188 OFFCURVE",
"560 -73 OFFCURVE",
"557 -1 CURVE {name = hr03;}",
"563 -2 OFFCURVE",
"569 -2 OFFCURVE",
"575 -2 CURVE SMOOTH",
"977 -2 OFFCURVE",
"1294 364 OFFCURVE",
"1294 593 CURVE SMOOTH",
"1294 677 OFFCURVE",
"1233 733 OFFCURVE",
"1121 733 CURVE SMOOTH",
"825 733 OFFCURVE",
"529 395 OFFCURVE",
"528 29 CURVE",
"438 47 OFFCURVE",
"382 108 OFFCURVE",
"382 213 CURVE SMOOTH",
"382 351 OFFCURVE",
"512 552 OFFCURVE",
"691 748 CURVE",
"1122 769 OFFCURVE",
"1716 1099 OFFCURVE",
"1716 1327 CURVE SMOOTH",
"1716 1381 OFFCURVE",
"1673 1401 OFFCURVE",
"1616 1401 CURVE SMOOTH",
"1275 1401 OFFCURVE",
"818 1118 OFFCURVE",
"546 782 CURVE",
"415 811 OFFCURVE",
"343 894 OFFCURVE",
"343 979 CURVE SMOOTH {name = hr04;}",
"343 1225 OFFCURVE",
"722 1446 OFFCURVE",
"988 1446 CURVE SMOOTH",
"1021 1446 OFFCURVE",
"1046 1442 OFFCURVE",
"1061 1442 CURVE SMOOTH",
"1069 1442 OFFCURVE",
"1074 1444 OFFCURVE",
"1074 1450 CURVE SMOOTH",
"1074 1460 OFFCURVE",
"1037 1467 OFFCURVE",
"993 1467 CURVE SMOOTH",
"628 1467 OFFCURVE",
"300 1219 OFFCURVE",
"300 1020 CURVE SMOOTH",
"300 897 OFFCURVE",
"375 794 OFFCURVE",
"528 759 CURVE",
"398 592 OFFCURVE",
"315 414 OFFCURVE",
"315 251 CURVE SMOOTH {name = hr01;}",
"315 102 OFFCURVE",
"407 18 OFFCURVE",
"528 1 CURVE",
"534 -150 OFFCURVE",
"587 -262 OFFCURVE",
"611 -262 CURVE SMOOTH"
);
},
{
closed = 1;
nodes = (
"576 24 OFFCURVE",
"566 24 OFFCURVE",
"557 25 CURVE",
"557 26 LINE",
"557 404 OFFCURVE",
"883 706 OFFCURVE",
"1110 706 CURVE SMOOTH",
"1173 706 OFFCURVE",
"1202 683 OFFCURVE",
"1202 628 CURVE SMOOTH",
"1202 440 OFFCURVE",
"856 24 OFFCURVE",
"586 24 CURVE SMOOTH"
);
},
{
closed = 1;
nodes = (
"1008 1086 OFFCURVE",
"1416 1377 OFFCURVE",
"1614 1377 CURVE SMOOTH",
"1661 1377 OFFCURVE",
"1692 1362 OFFCURVE",
"1692 1324 CURVE SMOOTH",
"1692 1160 OFFCURVE",
"1083 813 OFFCURVE",
"716 775 CURVE {name = hr06;}"
);
}
);
width = 1286;
}
);
leftKerningGroup = C;
rightKerningGroup = C;
unicode = 0043;
},
{
glyphname = D;
lastChange = "2022-05-18 03:32:05 +0000";
layers = (
{
anchors = (
{
name = bottom;
position = "{580, 0}";
},
{
name = center;
position = "{1111, 694}";
},
{
name = top;
position = "{1536, 1446}";
}
);
layerId = master01;
paths = (
{
closed = 1;
nodes = (
"314 -6 OFFCURVE",
"432 13 OFFCURVE",
"538 49 CURVE",
"663 13 OFFCURVE",
"745 -2 OFFCURVE",
"845 -2 CURVE SMOOTH",
"1287 -2 OFFCURVE",
"1702 350 OFFCURVE",
"1702 840 CURVE SMOOTH",
"1702 951 OFFCURVE",
"1676 1048 OFFCURVE",
"1628 1128 CURVE",
"1743 1227 OFFCURVE",
"1865 1290 OFFCURVE",
"1985 1305 CURVE",
"2015 1310 OFFCURVE",
"2018 1312 OFFCURVE",
"2018 1320 CURVE SMOOTH",
"2018 1326 OFFCURVE",
"2012 1330 OFFCURVE",
"2003 1330 CURVE SMOOTH",
"1877 1324 OFFCURVE",
"1725 1260 OFFCURVE",
"1594 1178 CURVE",
"1489 1309 OFFCURVE",
"1313 1384 OFFCURVE",
"1082 1384 CURVE SMOOTH",
"631 1384 OFFCURVE",
"267 1078 OFFCURVE",
"267 780 CURVE SMOOTH",
"267 654 OFFCURVE",
"389 569 OFFCURVE",
"512 569 CURVE SMOOTH",
"855 569 OFFCURVE",
"1179 887 OFFCURVE",
"1179 1175 CURVE SMOOTH",
"1179 1192 OFFCURVE",
"1173 1196 OFFCURVE",
"1167 1196 CURVE SMOOTH",
"1161 1196 OFFCURVE",
"1158 1191 OFFCURVE",
"1156 1173 CURVE",
"1138 903 OFFCURVE",
"721 597 OFFCURVE",
"515 597 CURVE SMOOTH",
"394 597 OFFCURVE",
"325 661 OFFCURVE",
"325 757 CURVE SMOOTH",
"325 991 OFFCURVE",
"691 1360 OFFCURVE",
"1088 1360 CURVE SMOOTH",
"1295 1360 OFFCURVE",
"1464 1298 OFFCURVE",
"1557 1154 CURVE",
"1502 1117 OFFCURVE",
"1452 1077 OFFCURVE",
"1410 1037 CURVE SMOOTH",
"1262 899 OFFCURVE",
"1164 773 OFFCURVE",
"1049 634 CURVE SMOOTH",
"796 327 OFFCURVE",
"635 171 OFFCURVE",
"496 95 CURVE",
"491 97 OFFCURVE",
"487 97 OFFCURVE",
"483 99 CURVE {name = hr03;}",
"344 140 OFFCURVE",
"275 154 OFFCURVE",
"206 154 CURVE SMOOTH",
"72 154 OFFCURVE",
"0 107 OFFCURVE",
"0 68 CURVE SMOOTH {name = hr01;}",
"0 31 OFFCURVE",
"50 -6 OFFCURVE",
"180 -6 CURVE SMOOTH"
);
},
{
closed = 1;
nodes = (
"80 26 OFFCURVE",
"28 39 OFFCURVE",
"28 68 CURVE SMOOTH {name = hr05;}",
"28 90 OFFCURVE",
"85 111 OFFCURVE",
"199 111 CURVE SMOOTH",
"285 111 OFFCURVE",
"363 96 OFFCURVE",
"451 73 CURVE",
"367 36 OFFCURVE",
"287 26 OFFCURVE",
"197 26 CURVE SMOOTH"
);
},
{
closed = 1;
nodes = (
"733 28 OFFCURVE",
"654 46 OFFCURVE",
"585 67 CURVE",
"923 200 OFFCURVE",
"1138 501 OFFCURVE",
"1369 834 CURVE SMOOTH",
"1438 934 OFFCURVE",
"1512 1022 OFFCURVE",
"1589 1094 CURVE",
"1621 1024 OFFCURVE",
"1638 938 OFFCURVE",
"1638 836 CURVE SMOOTH",
"1638 368 OFFCURVE",
"1242 28 OFFCURVE",
"850 28 CURVE SMOOTH"
);
}
);
width = 1623;
}
);
leftKerningGroup = D;
rightKerningGroup = D;
unicode = 0044;
},
{
glyphname = Eth;
lastChange = "2022-05-18 03:32:05 +0000";
layers = (
{
layerId = master01;
paths = (
{
closed = 1;
nodes = (
"313 -6 OFFCURVE",
"431 14 OFFCURVE",
"537 49 CURVE",
"663 13 OFFCURVE",
"745 -2 OFFCURVE",
"845 -2 CURVE SMOOTH",
"1287 -2 OFFCURVE",
"1702 350 OFFCURVE",
"1702 840 CURVE SMOOTH",
"1702 951 OFFCURVE",
"1676 1048 OFFCURVE",
"1628 1128 CURVE",
"1743 1227 OFFCURVE",
"1865 1290 OFFCURVE",
"1985 1305 CURVE {name = hr03;}",
"2015 1310 OFFCURVE",
"2018 1312 OFFCURVE",
"2018 1320 CURVE SMOOTH",
"2018 1326 OFFCURVE",
"2012 1330 OFFCURVE",
"2003 1330 CURVE SMOOTH {name = hr04;}",
"1877 1324 OFFCURVE",
"1725 1260 OFFCURVE",
"1594 1178 CURVE",
"1489 1309 OFFCURVE",
"1313 1384 OFFCURVE",
"1082 1384 CURVE SMOOTH",
"631 1384 OFFCURVE",
"267 1078 OFFCURVE",
"267 780 CURVE SMOOTH",
"267 654 OFFCURVE",
"389 569 OFFCURVE",
"512 569 CURVE SMOOTH",
"855 569 OFFCURVE",
"1179 887 OFFCURVE",
"1179 1175 CURVE SMOOTH",
"1179 1192 OFFCURVE",
"1173 1196 OFFCURVE",
"1167 1196 CURVE SMOOTH",
"1161 1196 OFFCURVE",
"1158 1191 OFFCURVE",
"1156 1173 CURVE",
"1138 903 OFFCURVE",
"721 597 OFFCURVE",
"515 597 CURVE SMOOTH",
"394 597 OFFCURVE",
"325 661 OFFCURVE",
"325 757 CURVE SMOOTH",
"325 991 OFFCURVE",
"691 1360 OFFCURVE",
"1088 1360 CURVE SMOOTH",
"1295 1360 OFFCURVE",
"1464 1298 OFFCURVE",
"1557 1154 CURVE",
"1502 1117 OFFCURVE",
"1452 1077 OFFCURVE",
"1410 1037 CURVE SMOOTH",
"1262 899 OFFCURVE",
"1164 773 OFFCURVE",
"1049 634 CURVE SMOOTH",
"1009 585 OFFCURVE",
"971 541 OFFCURVE",
"936 500 CURVE",
"816 500 LINE",
"813 492 OFFCURVE",
"798 474 OFFCURVE",
"788 466 CURVE",
"906 466 LINE",
"731 267 OFFCURVE",
"607 156 OFFCURVE",
"496 95 CURVE",
"491 97 OFFCURVE",
"487 97 OFFCURVE",
"483 99 CURVE",
"344 140 OFFCURVE",
"275 154 OFFCURVE",
"206 154 CURVE SMOOTH",
"72 154 OFFCURVE",
"0 107 OFFCURVE",
"0 68 CURVE SMOOTH {name = hr01;}",
"0 31 OFFCURVE",
"50 -6 OFFCURVE",
"180 -6 CURVE SMOOTH"
);
},
{
closed = 1;
nodes = (
"80 26 OFFCURVE",
"28 39 OFFCURVE",
"28 68 CURVE SMOOTH {name = hr05;}",
"28 90 OFFCURVE",
"85 111 OFFCURVE",
"199 111 CURVE SMOOTH",
"285 111 OFFCURVE",
"363 96 OFFCURVE",
"451 73 CURVE",
"367 36 OFFCURVE",
"287 26 OFFCURVE",
"197 26 CURVE SMOOTH"
);
},
{
closed = 1;
nodes = (
"733 28 OFFCURVE",
"654 46 OFFCURVE",
"585 67 CURVE",
"790 148 OFFCURVE",
"950 291 OFFCURVE",
"1096 466 CURVE",
"1361 466 LINE",
"1363 474 OFFCURVE",
"1369 492 OFFCURVE",
"1377 500 CURVE",
"1124 500 LINE",
"1208 603 OFFCURVE",
"1287 716 OFFCURVE",
"1369 834 CURVE SMOOTH",
"1438 934 OFFCURVE",
"1512 1022 OFFCURVE",
"1589 1094 CURVE",
"1621 1024 OFFCURVE",
"1638 938 OFFCURVE",
"1638 836 CURVE SMOOTH",
"1638 368 OFFCURVE",
"1242 28 OFFCURVE",
"850 28 CURVE SMOOTH"
);
}
);
width = 1623;
}
);
leftKerningGroup = D;
rightKerningGroup = D;
unicode = 00D0;
},
{
glyphname = E;
lastChange = "2022-05-18 03:32:05 +0000";
layers = (
{
anchors = (
{
name = bottom;
position = "{188, 0}";
},
{
name = ogonek;
position = "{319, 10}";
},
{
name = top;
position = "{1264, 1446}";
},
{
name = topleft;
position = "{348, 1388}";
}
);
layerId = master01;
paths = (
{
closed = 1;
nodes = (
"390 -285 OFFCURVE",
"396 -280 OFFCURVE",
"396 -276 CURVE SMOOTH",
"396 -271 OFFCURVE",
"393 -269 OFFCURVE",
"386 -261 CURVE SMOOTH",
"351 -222 OFFCURVE",
"329 -105 OFFCURVE",
"329 -31 CURVE SMOOTH {name = hr04;}",
"329 -21 OFFCURVE",
"329 -11 OFFCURVE",
"330 -1 CURVE",
"342 -1 OFFCURVE",
"353 -2 OFFCURVE",
"366 -2 CURVE SMOOTH",
"664 -2 OFFCURVE",
"898 158 OFFCURVE",
"898 367 CURVE SMOOTH",
"898 441 OFFCURVE",
"825 505 OFFCURVE",
"742 505 CURVE SMOOTH",
"523 505 OFFCURVE",
"324 267 OFFCURVE",
"302 27 CURVE",
"175 47 OFFCURVE",
"107 123 OFFCURVE",
"105 230 CURVE SMOOTH {name = hr01;}",
"102 436 OFFCURVE",
"376 687 OFFCURVE",
"637 716 CURVE",
"695 654 OFFCURVE",
"775 617 OFFCURVE",
"834 617 CURVE SMOOTH {name = hr03;}",
"867 617 OFFCURVE",
"886 626 OFFCURVE",
"886 649 CURVE SMOOTH",
"885 690 OFFCURVE",
"816 734 OFFCURVE",
"686 748 CURVE",
"671 771 OFFCURVE",
"659 796 OFFCURVE",
"653 823 CURVE",
"704 816 OFFCURVE",
"758 813 OFFCURVE",
"817 813 CURVE SMOOTH",
"1193 813 OFFCURVE",
"1514 977 OFFCURVE",
"1514 1183 CURVE SMOOTH",
"1514 1320 OFFCURVE",
"1388 1401 OFFCURVE",
"1172 1401 CURVE SMOOTH",
"894 1401 OFFCURVE",
"559 1199 OFFCURVE",
"563 887 CURVE SMOOTH",
"563 879 OFFCURVE",
"563 871 OFFCURVE",
"564 864 CURVE",
"378 902 OFFCURVE",
"254 992 OFFCURVE",
"195 1126 CURVE SMOOTH",
"188 1143 OFFCURVE",
"181 1150 OFFCURVE",
"174 1150 CURVE SMOOTH",
"169 1150 OFFCURVE",
"166 1147 OFFCURVE",
"166 1138 CURVE SMOOTH",
"166 1134 OFFCURVE",
"167 1122 OFFCURVE",
"172 1113 CURVE",
"229 985 OFFCURVE",
"361 882 OFFCURVE",
"569 837 CURVE",
"577 806 OFFCURVE",
"590 777 OFFCURVE",
"608 752 CURVE",
"602 752 LINE SMOOTH",
"259 752 OFFCURVE",
"-5 521 OFFCURVE",
"1 262 CURVE",
"3 126 OFFCURVE",
"117 21 OFFCURVE",
"300 1 CURVE",
"300 -28 LINE",
"303 -105 OFFCURVE",
"321 -228 OFFCURVE",
"360 -271 CURVE SMOOTH",
"372 -284 OFFCURVE",
"378 -285 OFFCURVE",
"384 -285 CURVE SMOOTH"
);
},
{
closed = 1;
nodes = (
"358 22 OFFCURVE",
"344 23 OFFCURVE",
"331 24 CURVE {name = hr05;}",
"358 299 OFFCURVE",
"578 480 OFFCURVE",
"744 480 CURVE SMOOTH",
"805 480 OFFCURVE",
"852 449 OFFCURVE",
"852 394 CURVE SMOOTH",
"852 254 OFFCURVE",
"583 22 OFFCURVE",
"372 22 CURVE SMOOTH"
);
},
{
closed = 1;
nodes = (
"803 640 OFFCURVE",
"749 671 OFFCURVE",
"708 718 CURVE",
"796 712 OFFCURVE",
"864 674 OFFCURVE",
"865 652 CURVE SMOOTH",
"865 644 OFFCURVE",
"859 640 OFFCURVE",
"849 640 CURVE SMOOTH"
);
},
{
closed = 1;
nodes = (
"746 842 OFFCURVE",
"696 844 OFFCURVE",
"649 850 CURVE",
"649 864 LINE SMOOTH",
"649 1067 OFFCURVE",
"932 1376 OFFCURVE",
"1208 1376 CURVE SMOOTH",
"1375 1376 OFFCURVE",
"1477 1304 OFFCURVE",
"1477 1213 CURVE SMOOTH",
"1477 983 OFFCURVE",
"1098 842 OFFCURVE",
"799 842 CURVE SMOOTH"
);
}
);
width = 993;
}
);
leftKerningGroup = E;
rightKerningGroup = E;
unicode = 0045;
},
{
glyphname = F;
lastChange = "2022-05-18 03:32:05 +0000";
layers = (
{
anchors = (
{
name = bottom;
position = "{996, 0}";
},
{
name = top;
position = "{1447, 1388}";
}
);
layerId = master01;
paths = (
{
closed = 1;
nodes = (
"534 -1 OFFCURVE",
"769 153 OFFCURVE",
"1081 662 CURVE SMOOTH",
"1085 669 LINE",
"1173 688 OFFCURVE",
"1263 707 OFFCURVE",
"1316 724 CURVE",
"1283 673 OFFCURVE",
"1259 621 OFFCURVE",
"1229 541 CURVE SMOOTH",
"1223 523 OFFCURVE",
"1221 516 OFFCURVE",
"1221 511 CURVE SMOOTH",
"1221 500 OFFCURVE",
"1226 497 OFFCURVE",
"1233 497 CURVE SMOOTH",
"1240 497 OFFCURVE",
"1243 500 OFFCURVE",
"1250 513 CURVE",
"1299 641 OFFCURVE",
"1419 758 OFFCURVE",
"1511 801 CURVE",
"1486 809 OFFCURVE",
"1383 816 OFFCURVE",
"1359 816 CURVE",
"1349 795 OFFCURVE",
"1337 784 OFFCURVE",
"1325 776 CURVE",
"1276 759 OFFCURVE",
"1196 736 OFFCURVE",
"1114 715 CURVE",
"1282 971 OFFCURVE",
"1475 1149 OFFCURVE",
"1631 1194 CURVE SMOOTH",
"1666 1204 OFFCURVE",
"1673 1204 OFFCURVE",
"1673 1210 CURVE SMOOTH",
"1673 1216 OFFCURVE",
"1666 1219 OFFCURVE",
"1650 1219 CURVE SMOOTH",
"1512 1219 OFFCURVE",
"1200 1057 OFFCURVE",
"957 677 CURVE",
"955 676 OFFCURVE",
"954 676 OFFCURVE",
"952 676 CURVE SMOOTH",
"647 613 OFFCURVE",
"412 472 OFFCURVE",
"360 353 CURVE",
"354 345 OFFCURVE",
"353 339 OFFCURVE",
"353 336 CURVE SMOOTH",
"353 329 OFFCURVE",
"356 328 OFFCURVE",
"360 328 CURVE SMOOTH",
"366 328 OFFCURVE",
"370 332 OFFCURVE",
"379 348 CURVE SMOOTH",
"439 451 OFFCURVE",
"610 564 OFFCURVE",
"932 636 CURVE",
"930 633 OFFCURVE",
"928 631 OFFCURVE",
"927 628 CURVE SMOOTH",
"624 115 OFFCURVE",
"418 26 OFFCURVE",
"240 26 CURVE SMOOTH",
"129 26 OFFCURVE",
"40 72 OFFCURVE",
"40 137 CURVE SMOOTH",
"40 142 LINE",
"53 134 OFFCURVE",
"70 132 OFFCURVE",
"87 132 CURVE SMOOTH",
"117 132 OFFCURVE",
"144 156 OFFCURVE",
"144 182 CURVE SMOOTH",
"144 214 OFFCURVE",
"115 228 OFFCURVE",
"93 228 CURVE SMOOTH",
"52 228 OFFCURVE",
"0 204 OFFCURVE",
"0 145 CURVE SMOOTH",
"0 65 OFFCURVE",
"116 -1 OFFCURVE",
"232 -1 CURVE SMOOTH"
);
},
{
closed = 1;
nodes = (
"875 814 OFFCURVE",
"1107 1011 OFFCURVE",
"1107 1210 CURVE SMOOTH",
"1107 1223 OFFCURVE",
"1104 1231 OFFCURVE",
"1097 1231 CURVE SMOOTH",
"1091 1231 OFFCURVE",
"1091 1224 OFFCURVE",
"1088 1210 CURVE",
"1071 1074 OFFCURVE",
"833 852 OFFCURVE",
"647 852 CURVE SMOOTH",
"573 852 OFFCURVE",
"541 895 OFFCURVE",
"541 961 CURVE SMOOTH",
"541 1138 OFFCURVE",
"855 1337 OFFCURVE",
"1160 1337 CURVE SMOOTH",
"1343 1337 OFFCURVE",
"1530 1290 OFFCURVE",
"1714 1290 CURVE SMOOTH",
"1966 1290 OFFCURVE",
"2129 1390 OFFCURVE",
"2228 1547 CURVE",
"2237 1557 OFFCURVE",
"2237 1562 OFFCURVE",
"2237 1567 CURVE SMOOTH",
"2237 1571 OFFCURVE",
"2234 1574 OFFCURVE",
"2228 1574 CURVE SMOOTH",
"2223 1574 OFFCURVE",
"2217 1573 OFFCURVE",
"2206 1557 CURVE",
"2145 1453 OFFCURVE",
"2029 1379 OFFCURVE",
"1839 1379 CURVE SMOOTH",
"1701 1379 OFFCURVE",
"1550 1414 OFFCURVE",
"1406 1414 CURVE SMOOTH",
"1284 1414 OFFCURVE",
"1162 1409 OFFCURVE",
"1045 1382 CURVE",
"720 1304 OFFCURVE",
"512 1119 OFFCURVE",
"512 951 CURVE SMOOTH",
"512 863 OFFCURVE",
"577 814 OFFCURVE",
"679 814 CURVE SMOOTH {name = hr00;}"
);
}
);
width = 1253;
}
);
leftKerningGroup = F;
rightKerningGroup = F;
unicode = 0046;
},
{
glyphname = G;
lastChange = "2022-05-18 03:32:05 +0000";
layers = (
{
anchors = (
{
name = bottom;
position = "{242, -3}";
},
{
name = top;
position = "{1378, 1446}";
}
);
layerId = master01;
paths = (
{
closed = 1;
nodes = (
"534 -3 OFFCURVE",
"794 182 OFFCURVE",
"1028 548 CURVE SMOOTH",
"1190 800 OFFCURVE",
"1276 898 OFFCURVE",
"1350 933 CURVE SMOOTH",
"1365 940 OFFCURVE",
"1367 944 OFFCURVE",
"1367 950 CURVE SMOOTH",
"1367 956 OFFCURVE",
"1354 961 OFFCURVE",
"1343 961 CURVE SMOOTH",
"1323 961 OFFCURVE",
"1260 923 OFFCURVE",
"1190 868 CURVE SMOOTH",
"891 637 OFFCURVE",
"724 555 OFFCURVE",
"604 555 CURVE SMOOTH",
"542 555 OFFCURVE",
"524 583 OFFCURVE",
"524 608 CURVE SMOOTH",
"524 635 OFFCURVE",
"535 671 OFFCURVE",
"556 712 CURVE",
"664 732 OFFCURVE",
"772 767 OFFCURVE",
"873 812 CURVE",
"1242 984 OFFCURVE",
"1497 1198 OFFCURVE",
"1497 1353 CURVE SMOOTH",
"1497 1412 OFFCURVE",
"1463 1440 OFFCURVE",
"1376 1440 CURVE SMOOTH",
"1056 1440 OFFCURVE",
"526 1040 OFFCURVE",
"451 718 CURVE",
"429 716 OFFCURVE",
"408 715 OFFCURVE",
"388 715 CURVE SMOOTH",
"287 715 OFFCURVE",
"230 732 OFFCURVE",
"162 768 CURVE SMOOTH",
"154 773 OFFCURVE",
"152 774 OFFCURVE",
"149 774 CURVE SMOOTH",
"142 774 OFFCURVE",
"138 768 OFFCURVE",
"138 764 CURVE SMOOTH",
"138 757 OFFCURVE",
"144 754 OFFCURVE",
"165 743 CURVE SMOOTH",
"213 716 OFFCURVE",
"287 695 OFFCURVE",
"373 695 CURVE SMOOTH",
"397 695 OFFCURVE",
"422 696 OFFCURVE",
"447 698 CURVE",
"444 680 OFFCURVE",
"442 662 OFFCURVE",
"442 645 CURVE SMOOTH",
"442 553 OFFCURVE",
"499 529 OFFCURVE",
"589 529 CURVE SMOOTH",
"696 529 OFFCURVE",
"836 582 OFFCURVE",
"1053 736 CURVE",
"979 656 OFFCURVE",
"877 538 OFFCURVE",
"820 462 CURVE SMOOTH",
"572 131 OFFCURVE",
"413 23 OFFCURVE",
"250 23 CURVE SMOOTH",
"121 23 OFFCURVE",
"40 70 OFFCURVE",
"40 133 CURVE SMOOTH",
"40 139 LINE",
"53 131 OFFCURVE",
"70 130 OFFCURVE",
"87 130 CURVE SMOOTH",
"117 130 OFFCURVE",
"144 153 OFFCURVE",
"144 179 CURVE SMOOTH",
"144 212 OFFCURVE",
"115 225 OFFCURVE",
"93 225 CURVE SMOOTH",
"52 225 OFFCURVE",
"0 202 OFFCURVE",
"0 141 CURVE SMOOTH",
"0 62 OFFCURVE",
"111 -3 OFFCURVE",
"242 -3 CURVE SMOOTH {name = hr00;}"
);
},
{
closed = 1;
nodes = (
"712 993 OFFCURVE",
"1146 1417 OFFCURVE",
"1395 1417 CURVE SMOOTH",
"1441 1417 OFFCURVE",
"1473 1400 OFFCURVE",
"1473 1363 CURVE SMOOTH",
"1473 1282 OFFCURVE",
"1226 1042 OFFCURVE",
"885 862 CURVE",
"768 803 OFFCURVE",
"665 762 OFFCURVE",
"570 739 CURVE"
);
}
);
width = 1079;
}
);
leftKerningGroup = G;
rightKerningGroup = G;
unicode = 0047;
},
{
glyphname = H;
lastChange = "2022-05-18 03:32:05 +0000";
layers = (
{
anchors = (
{
name = bottom;
position = "{821, 0}";
},
{
name = center;
position = "{1314, 694}";
},
{
name = top;
position = "{1974, 1446}";
},
{
name = topleft;
position = "{348, 1388}";
}
);
layerId = master01;
paths = (
{
closed = 1;
nodes = (
"271 -2 OFFCURVE",
"371 18 OFFCURVE",
"461 70 CURVE",
"619 159 OFFCURVE",
"782 318 OFFCURVE",
"989 568 CURVE",
"1119 601 OFFCURVE",
"1258 633 OFFCURVE",
"1379 667 CURVE",
"1184 419 OFFCURVE",
"1126 254 OFFCURVE",
"1126 127 CURVE SMOOTH",
"1126 65 OFFCURVE",
"1171 -2 OFFCURVE",
"1255 -2 CURVE SMOOTH",
"1491 -2 OFFCURVE",
"1729 336 OFFCURVE",
"1714 481 CURVE SMOOTH",
"1712 499 OFFCURVE",
"1707 510 OFFCURVE",
"1703 510 CURVE SMOOTH",
"1697 510 OFFCURVE",
"1684 498 OFFCURVE",
"1679 480 CURVE SMOOTH",
"1596 205 OFFCURVE",
"1410 23 OFFCURVE",
"1263 23 CURVE SMOOTH",
"1202 23 OFFCURVE",
"1179 50 OFFCURVE",
"1179 115 CURVE SMOOTH",
"1179 209 OFFCURVE",
"1345 462 OFFCURVE",
"1555 718 CURVE",
"2082 892 OFFCURVE",
"2423 1206 OFFCURVE",
"2423 1339 CURVE SMOOTH {name = hr03;}",
"2423 1379 OFFCURVE",
"2392 1410 OFFCURVE",
"2333 1410 CURVE SMOOTH",
"2169 1410 OFFCURVE",
"1752 1108 OFFCURVE",
"1455 759 CURVE SMOOTH",
"1437 738 OFFCURVE",
"1420 718 OFFCURVE",
"1404 698 CURVE",
"1251 661 OFFCURVE",
"1123 630 OFFCURVE",
"1017 602 CURVE",
"1052 646 OFFCURVE",
"1089 692 OFFCURVE",
"1127 741 CURVE",
"1326 1020 OFFCURVE",
"1476 1220 OFFCURVE",
"1610 1330 CURVE",
"1657 1365 OFFCURVE",
"1672 1373 OFFCURVE",
"1683 1379 CURVE SMOOTH",
"1699 1389 OFFCURVE",
"1704 1392 OFFCURVE",
"1704 1394 CURVE SMOOTH",
"1704 1398 OFFCURVE",
"1695 1401 OFFCURVE",
"1690 1401 CURVE SMOOTH",
"1684 1401 OFFCURVE",
"1672 1395 OFFCURVE",
"1654 1387 CURVE",
"1582 1350 OFFCURVE",
"1503 1288 OFFCURVE",
"1319 1124 CURVE",
"1192 1013 OFFCURVE",
"1054 947 OFFCURVE",
"970 947 CURVE SMOOTH",
"899 947 OFFCURVE",
"876 977 OFFCURVE",
"876 996 CURVE SMOOTH",
"876 1015 OFFCURVE",
"883 1024 OFFCURVE",
"926 1051 CURVE SMOOTH",
"1047 1129 OFFCURVE",
"1080 1198 OFFCURVE",
"1080 1273 CURVE SMOOTH",
"1080 1343 OFFCURVE",
"1016 1387 OFFCURVE",
"905 1387 CURVE SMOOTH {name = hr04;}",
"793 1387 OFFCURVE",
"680 1344 OFFCURVE",
"605 1278 CURVE",
"595 1267 OFFCURVE",
"587 1260 OFFCURVE",
"587 1253 CURVE SMOOTH {name = hr05;}",
"587 1246 OFFCURVE",
"592 1243 OFFCURVE",
"598 1243 CURVE SMOOTH",
"604 1243 OFFCURVE",
"611 1246 OFFCURVE",
"623 1257 CURVE SMOOTH",
"701 1329 OFFCURVE",
"806 1366 OFFCURVE",
"905 1366 CURVE SMOOTH {name = hr06;}",
"995 1366 OFFCURVE",
"1036 1338 OFFCURVE",
"1036 1298 CURVE SMOOTH",
"1036 1284 OFFCURVE",
"1028 1272 OFFCURVE",
"977 1231 CURVE SMOOTH",
"867 1145 OFFCURVE",
"839 1085 OFFCURVE",
"839 1019 CURVE SMOOTH",
"839 953 OFFCURVE",
"889 920 OFFCURVE",
"957 920 CURVE SMOOTH",
"1022 920 OFFCURVE",
"1107 946 OFFCURVE",
"1241 1029 CURVE",
"1158 944 OFFCURVE",
"1008 778 OFFCURVE",
"844 555 CURVE",
"711 517 OFFCURVE",
"623 485 OFFCURVE",
"563 454 CURVE SMOOTH",
"484 413 OFFCURVE",
"361 336 OFFCURVE",
"329 269 CURVE SMOOTH",
"322 256 OFFCURVE",
"323 253 OFFCURVE",
"322 249 CURVE SMOOTH",
"321 244 OFFCURVE",
"323 241 OFFCURVE",
"327 241 CURVE SMOOTH",
"330 241 OFFCURVE",
"335 244 OFFCURVE",
"338 250 CURVE",
"411 361 OFFCURVE",
"566 439 OFFCURVE",
"712 490 CURVE SMOOTH",
"745 501 OFFCURVE",
"781 512 OFFCURVE",
"819 523 CURVE",
"582 226 OFFCURVE",
"462 117 OFFCURVE",
"359 68 CURVE SMOOTH {name = hr01;}",
"304 41 OFFCURVE",
"254 24 OFFCURVE",
"198 24 CURVE SMOOTH",
"100 24 OFFCURVE",
"39 66 OFFCURVE",
"39 124 CURVE SMOOTH",
"39 130 LINE",
"52 122 OFFCURVE",
"69 121 OFFCURVE",
"86 121 CURVE SMOOTH",
"116 121 OFFCURVE",
"143 144 OFFCURVE",
"143 170 CURVE SMOOTH",
"143 203 OFFCURVE",
"115 215 OFFCURVE",
"93 215 CURVE SMOOTH",
"52 215 OFFCURVE",
"0 193 OFFCURVE",
"0 132 CURVE SMOOTH",
"0 58 OFFCURVE",
"85 -2 OFFCURVE",
"190 -2 CURVE SMOOTH"
);
},
{
closed = 1;
nodes = (
"1854 1074 OFFCURVE",
"2186 1389 OFFCURVE",
"2340 1389 CURVE SMOOTH",
"2372 1389 OFFCURVE",
"2388 1378 OFFCURVE",
"2388 1355 CURVE SMOOTH",
"2388 1248 OFFCURVE",
"2035 924 OFFCURVE",
"1585 753 CURVE {name = hr07;}"
);
}
);
width = 1746;
}
);
leftKerningGroup = H;
rightKerningGroup = H;
unicode = 0048;
},
{
glyphname = Hbar;
lastChange = "2022-05-18 03:32:05 +0000";
layers = (
{
anchors = (
{
name = bottom;
position = "{821, 0}";
},
{
name = center;
position = "{1314, 694}";
},
{
name = top;
position = "{1974, 1446}";
},
{
name = topleft;
position = "{348, 1388}";
}
);
layerId = master01;
paths = (
{
closed = 1;
nodes = (
"271 -2 OFFCURVE",
"371 18 OFFCURVE",
"461 70 CURVE",
"619 159 OFFCURVE",
"782 318 OFFCURVE",
"1035 644 CURVE",
"1165 677 OFFCURVE",
"1258 688 OFFCURVE",
"1425 743 CURVE",
"1184 419 OFFCURVE",
"1126 254 OFFCURVE",
"1126 127 CURVE SMOOTH",
"1126 65 OFFCURVE",
"1171 -2 OFFCURVE",
"1255 -2 CURVE SMOOTH",
"1491 -2 OFFCURVE",
"1729 336 OFFCURVE",
"1714 481 CURVE SMOOTH",
"1712 499 OFFCURVE",
"1707 510 OFFCURVE",
"1703 510 CURVE SMOOTH",
"1697 510 OFFCURVE",
"1684 498 OFFCURVE",
"1679 480 CURVE SMOOTH",
"1596 205 OFFCURVE",
"1410 23 OFFCURVE",
"1263 23 CURVE SMOOTH",
"1202 23 OFFCURVE",
"1179 50 OFFCURVE",
"1179 115 CURVE SMOOTH",
"1179 209 OFFCURVE",
"1345 462 OFFCURVE",
"1601 794 CURVE",
"2082 892 OFFCURVE",
"2423 1206 OFFCURVE",
"2423 1339 CURVE SMOOTH {name = hr03;}",
"2423 1379 OFFCURVE",
"2392 1410 OFFCURVE",
"2333 1410 CURVE SMOOTH",
"2169 1410 OFFCURVE",
"1752 1108 OFFCURVE",
"1502 834 CURVE SMOOTH",
"1483 814 OFFCURVE",
"1466 794 OFFCURVE",
"1450 774 CURVE",
"1275 714 OFFCURVE",
"1169 706 OFFCURVE",
"1063 678 CURVE",
"1098 722 OFFCURVE",
"1135 768 OFFCURVE",
"1173 817 CURVE",
"1326 1020 OFFCURVE",
"1476 1220 OFFCURVE",
"1610 1330 CURVE",
"1657 1365 OFFCURVE",
"1672 1373 OFFCURVE",
"1683 1379 CURVE SMOOTH",
"1699 1389 OFFCURVE",
"1704 1392 OFFCURVE",
"1704 1394 CURVE SMOOTH",
"1704 1398 OFFCURVE",
"1695 1401 OFFCURVE",
"1690 1401 CURVE SMOOTH",
"1684 1401 OFFCURVE",
"1672 1395 OFFCURVE",
"1654 1387 CURVE",
"1582 1350 OFFCURVE",
"1503 1288 OFFCURVE",
"1319 1124 CURVE",
"1192 1013 OFFCURVE",
"1054 947 OFFCURVE",
"970 947 CURVE SMOOTH",
"899 947 OFFCURVE",
"876 977 OFFCURVE",
"876 996 CURVE SMOOTH",
"876 1015 OFFCURVE",
"883 1024 OFFCURVE",
"926 1051 CURVE SMOOTH",
"1047 1129 OFFCURVE",
"1080 1198 OFFCURVE",
"1080 1273 CURVE SMOOTH",
"1080 1343 OFFCURVE",
"1016 1387 OFFCURVE",
"905 1387 CURVE SMOOTH {name = hr04;}",
"793 1387 OFFCURVE",
"680 1344 OFFCURVE",
"605 1278 CURVE",
"595 1267 OFFCURVE",
"587 1260 OFFCURVE",
"587 1253 CURVE SMOOTH {name = hr05;}",
"587 1246 OFFCURVE",
"592 1243 OFFCURVE",
"598 1243 CURVE SMOOTH",
"604 1243 OFFCURVE",
"611 1246 OFFCURVE",
"623 1257 CURVE SMOOTH",
"701 1329 OFFCURVE",
"806 1366 OFFCURVE",
"905 1366 CURVE SMOOTH {name = hr06;}",
"995 1366 OFFCURVE",
"1036 1338 OFFCURVE",
"1036 1298 CURVE SMOOTH",
"1036 1284 OFFCURVE",
"1028 1272 OFFCURVE",
"977 1231 CURVE SMOOTH",
"867 1145 OFFCURVE",
"839 1085 OFFCURVE",
"839 1019 CURVE SMOOTH",
"839 953 OFFCURVE",
"889 920 OFFCURVE",
"957 920 CURVE SMOOTH",
"1022 920 OFFCURVE",
"1107 946 OFFCURVE",
"1241 1029 CURVE",
"1158 944 OFFCURVE",
"1054 854 OFFCURVE",
"890 631 CURVE",
"757 593 OFFCURVE",
"669 561 OFFCURVE",
"609 530 CURVE SMOOTH",
"530 489 OFFCURVE",
"407 412 OFFCURVE",
"374 345 CURVE SMOOTH",
"368 332 OFFCURVE",
"369 329 OFFCURVE",
"368 325 CURVE SMOOTH",
"367 320 OFFCURVE",
"369 317 OFFCURVE",
"373 317 CURVE SMOOTH",
"376 317 OFFCURVE",
"381 320 OFFCURVE",
"384 326 CURVE",
"457 437 OFFCURVE",
"612 515 OFFCURVE",
"758 566 CURVE SMOOTH",
"791 577 OFFCURVE",
"827 588 OFFCURVE",
"865 599 CURVE",
"582 226 OFFCURVE",
"462 117 OFFCURVE",
"359 68 CURVE SMOOTH {name = hr01;}",
"304 41 OFFCURVE",
"254 24 OFFCURVE",
"198 24 CURVE SMOOTH",
"100 24 OFFCURVE",
"39 66 OFFCURVE",
"39 124 CURVE SMOOTH",
"39 130 LINE",
"52 122 OFFCURVE",
"69 121 OFFCURVE",
"86 121 CURVE SMOOTH",
"116 121 OFFCURVE",
"143 144 OFFCURVE",
"143 170 CURVE SMOOTH",
"143 203 OFFCURVE",
"115 215 OFFCURVE",
"93 215 CURVE SMOOTH",
"52 215 OFFCURVE",
"0 193 OFFCURVE",
"0 132 CURVE SMOOTH",
"0 58 OFFCURVE",
"85 -2 OFFCURVE",
"190 -2 CURVE SMOOTH"
);
},
{
closed = 1;
nodes = (
"1902 689 LINE",
"1904 707 OFFCURVE",
"1917 710 OFFCURVE",
"1923 724 CURVE",
"616 396 LINE",
"612 381 OFFCURVE",
"604 380 OFFCURVE",
"593 364 CURVE"
);
},
{
closed = 1;
nodes = (
"1854 1074 OFFCURVE",
"2186 1389 OFFCURVE",
"2340 1389 CURVE SMOOTH",
"2372 1389 OFFCURVE",
"2388 1378 OFFCURVE",
"2388 1355 CURVE SMOOTH",
"2388 1248 OFFCURVE",
"2035 924 OFFCURVE",
"1631 829 CURVE {name = hr07;}"
);
}
);
width = 1746;
}
);
leftKerningGroup = H;
leftMetricsKey = H;
rightKerningGroup = H;
rightMetricsKey = H;
unicode = 0126;
},
{
glyphname = I;
lastChange = "2022-05-18 03:32:05 +0000";
layers = (
{
anchors = (
{
name = bottom;
position = "{616, 0}";
},
{
name = ogonek;
position = "{240, 0}";
},
{
name = top;
position = "{1636, 1446}";
},
{
name = topleft;
position = "{348, 1388}";
}
);
layerId = master01;
paths = (
{
closed = 1;
nodes = (
"406 -2 OFFCURVE",
"636 127 OFFCURVE",
"851 337 CURVE",
"874 337 LINE SMOOTH",
"1196 337 OFFCURVE",
"1578 634 OFFCURVE",
"1578 1017 CURVE SMOOTH",
"1578 1048 OFFCURVE",
"1577 1066 OFFCURVE",
"1566 1066 CURVE SMOOTH",
"1562 1066 OFFCURVE",
"1555 1067 OFFCURVE",
"1555 1036 CURVE SMOOTH",
"1555 663 OFFCURVE",
"1168 365 OFFCURVE",
"886 365 CURVE SMOOTH",
"878 365 LINE",
"967 455 OFFCURVE",
"1052 559 OFFCURVE",
"1131 673 CURVE SMOOTH",
"1368 1017 OFFCURVE",
"1579 1229 OFFCURVE",
"1784 1320 CURVE {name = hr03;}",
"1814 1332 OFFCURVE",
"1839 1342 OFFCURVE",
"1878 1351 CURVE",
"1912 1351 OFFCURVE",
"1950 1349 OFFCURVE",
"2001 1352 CURVE SMOOTH",
"2026 1353 OFFCURVE",
"2034 1362 OFFCURVE",
"2034 1371 CURVE SMOOTH",
"2034 1379 OFFCURVE",
"2023 1385 OFFCURVE",
"1997 1385 CURVE SMOOTH",
"1961 1385 OFFCURVE",
"1928 1378 OFFCURVE",
"1895 1378 CURVE SMOOTH",
"1866 1378 OFFCURVE",
"1838 1383 OFFCURVE",
"1807 1385 CURVE",
"1779 1389 OFFCURVE",
"1751 1392 OFFCURVE",
"1720 1392 CURVE SMOOTH",
"1113 1392 OFFCURVE",
"606 984 OFFCURVE",
"606 608 CURVE SMOOTH",
"606 471 OFFCURVE",
"664 398 OFFCURVE",
"739 363 CURVE",
"524 106 OFFCURVE",
"379 24 OFFCURVE",
"225 24 CURVE SMOOTH",
"114 24 OFFCURVE",
"42 75 OFFCURVE",
"42 139 CURVE SMOOTH",
"42 145 LINE",
"55 138 OFFCURVE",
"72 138 OFFCURVE",
"89 140 CURVE",
"119 142 OFFCURVE",
"144 169 OFFCURVE",
"140 194 CURVE",
"137 227 OFFCURVE",
"107 237 OFFCURVE",
"85 235 CURVE SMOOTH",
"44 231 OFFCURVE",
"-5 203 OFFCURVE",
"1 142 CURVE SMOOTH",
"9 64 OFFCURVE",
"88 -2 OFFCURVE",
"227 -2 CURVE SMOOTH {name = hr01;}"
);
},
{
closed = 1;
nodes = (
"696 410 OFFCURVE",
"654 465 OFFCURVE",
"654 583 CURVE SMOOTH",
"654 899 OFFCURVE",
"1309 1366 OFFCURVE",
"1722 1366 CURVE SMOOTH",
"1749 1366 OFFCURVE",
"1793 1363 OFFCURVE",
"1827 1358 CURVE",
"1606 1316 OFFCURVE",
"1298 1117 OFFCURVE",
"916 592 CURVE SMOOTH",
"859 513 OFFCURVE",
"806 444 OFFCURVE",
"757 384 CURVE"
);
}
);
width = 1333;
}
);
leftKerningGroup = I;
rightKerningGroup = I;
unicode = 0049;
},
{
glyphname = IJ;
lastChange = "2022-05-18 03:32:05 +0000";
layers = (
{
layerId = master01;
paths = (
{
closed = 1;
nodes = (
"958 -741 OFFCURVE",
"1236 -557 OFFCURVE",
"1724 49 CURVE",
"1997 124 OFFCURVE",
"2044 145 OFFCURVE",
"2166 196 CURVE SMOOTH",
"2193 207 OFFCURVE",
"2199 215 OFFCURVE",
"2200 223 CURVE SMOOTH",
"2200 228 OFFCURVE",
"2191 231 OFFCURVE",
"2191 231 CURVE",
"2186 231 OFFCURVE",
"2178 225 OFFCURVE",
"2150 213 CURVE",
"1979 147 OFFCURVE",
"1953 144 OFFCURVE",
"1758 92 CURVE",
"1813 160 OFFCURVE",
"1870 234 OFFCURVE",
"1929 313 CURVE",
"1939 313 LINE SMOOTH",
"2275 313 OFFCURVE",
"2641 692 OFFCURVE",
"2641 1020 CURVE SMOOTH",
"2641 1044 OFFCURVE",
"2640 1066 OFFCURVE",
"2630 1066 CURVE SMOOTH",
"2626 1066 OFFCURVE",
"2619 1059 OFFCURVE",
"2619 1035 CURVE SMOOTH",
"2619 750 OFFCURVE",
"2228 340 OFFCURVE",
"1950 340 CURVE",
"2023 438 OFFCURVE",
"2101 543 OFFCURVE",
"2184 658 CURVE",
"2448 1060 OFFCURVE",
"2712 1304 OFFCURVE",
"2941 1360 CURVE",
"2960 1360 OFFCURVE",
"2982 1359 OFFCURVE",
"3006 1359 CURVE SMOOTH",
"3042 1359 OFFCURVE",
"3098 1359 OFFCURVE",
"3098 1381 CURVE SMOOTH",
"3098 1389 OFFCURVE",
"3088 1394 OFFCURVE",
"3060 1394 CURVE SMOOTH",
"3024 1394 OFFCURVE",
"2991 1387 OFFCURVE",
"2958 1387 CURVE SMOOTH",
"2904 1387 OFFCURVE",
"2840 1401 OFFCURVE",
"2774 1401 CURVE SMOOTH",
"2204 1401 OFFCURVE",
"1663 1009 OFFCURVE",
"1663 581 CURVE SMOOTH",
"1663 473 OFFCURVE",
"1723 391 OFFCURVE",
"1804 347 CURVE",
"1731 245 OFFCURVE",
"1657 143 OFFCURVE",
"1583 46 CURVE",
"1045 -102 OFFCURVE",
"639 -422 OFFCURVE",
"639 -649 CURVE SMOOTH {name = hr00;}",
"639 -691 OFFCURVE",
"666 -741 OFFCURVE",
"731 -741 CURVE SMOOTH"
);
},
{
closed = 1;
nodes = (
"697 -716 OFFCURVE",
"671 -690 OFFCURVE",
"671 -656 CURVE SMOOTH",
"671 -494 OFFCURVE",
"1185 -125 OFFCURVE",
"1549 1 CURVE",
"1243 -398 OFFCURVE",
"945 -716 OFFCURVE",
"734 -716 CURVE SMOOTH"
);
},
{
closed = 1;
nodes = (
"406 -2 OFFCURVE",
"636 127 OFFCURVE",
"851 337 CURVE",
"874 337 LINE SMOOTH",
"1196 337 OFFCURVE",
"1578 634 OFFCURVE",
"1578 1017 CURVE SMOOTH",
"1578 1048 OFFCURVE",
"1577 1066 OFFCURVE",
"1566 1066 CURVE SMOOTH",
"1562 1066 OFFCURVE",
"1555 1067 OFFCURVE",
"1555 1036 CURVE SMOOTH",
"1555 663 OFFCURVE",
"1168 365 OFFCURVE",
"886 365 CURVE SMOOTH",
"878 365 LINE",
"967 455 OFFCURVE",
"1052 559 OFFCURVE",
"1131 673 CURVE SMOOTH",
"1368 1017 OFFCURVE",
"1579 1229 OFFCURVE",
"1784 1320 CURVE",
"1814 1332 OFFCURVE",
"1839 1342 OFFCURVE",
"1878 1351 CURVE",
"1912 1351 OFFCURVE",
"1950 1349 OFFCURVE",
"2001 1352 CURVE SMOOTH",
"2026 1353 OFFCURVE",
"2034 1362 OFFCURVE",
"2034 1371 CURVE SMOOTH",
"2034 1379 OFFCURVE",
"2023 1385 OFFCURVE",
"1997 1385 CURVE SMOOTH",
"1961 1385 OFFCURVE",
"1928 1378 OFFCURVE",
"1895 1378 CURVE SMOOTH",
"1866 1378 OFFCURVE",
"1838 1383 OFFCURVE",
"1807 1385 CURVE",
"1779 1389 OFFCURVE",
"1751 1392 OFFCURVE",
"1720 1392 CURVE SMOOTH",
"1113 1392 OFFCURVE",
"606 984 OFFCURVE",
"606 608 CURVE SMOOTH",
"606 471 OFFCURVE",
"664 398 OFFCURVE",
"739 363 CURVE",
"524 106 OFFCURVE",
"379 24 OFFCURVE",
"225 24 CURVE SMOOTH",
"114 24 OFFCURVE",
"48 75 OFFCURVE",
"42 139 CURVE SMOOTH",
"42 145 LINE",
"55 138 OFFCURVE",
"72 138 OFFCURVE",
"89 140 CURVE",
"119 142 OFFCURVE",
"144 169 OFFCURVE",
"140 194 CURVE",
"137 227 OFFCURVE",
"107 237 OFFCURVE",
"85 235 CURVE SMOOTH",
"44 231 OFFCURVE",
"-5 203 OFFCURVE",
"1 142 CURVE SMOOTH",
"9 64 OFFCURVE",
"88 -2 OFFCURVE",
"227 -2 CURVE SMOOTH"
);
},
{
closed = 1;
nodes = (
"696 410 OFFCURVE",
"654 465 OFFCURVE",
"654 583 CURVE SMOOTH",
"654 899 OFFCURVE",
"1309 1366 OFFCURVE",
"1722 1366 CURVE SMOOTH",
"1749 1366 OFFCURVE",
"1793 1363 OFFCURVE",
"1827 1358 CURVE",
"1606 1316 OFFCURVE",
"1298 1117 OFFCURVE",
"916 592 CURVE SMOOTH",
"859 513 OFFCURVE",
"806 444 OFFCURVE",
"757 384 CURVE"
);
},
{
closed = 1;
nodes = (
"1760 409 OFFCURVE",
"1718 473 OFFCURVE",
"1718 565 CURVE SMOOTH",
"1718 910 OFFCURVE",
"2376 1375 OFFCURVE",
"2786 1375 CURVE SMOOTH",
"2812 1375 OFFCURVE",
"2856 1372 OFFCURVE",
"2891 1367 CURVE",
"2683 1320 OFFCURVE",
"2316 1078 OFFCURVE",
"1943 545 CURVE SMOOTH",
"1822 373 LINE"
);
}
);
width = 2383;
}
);
leftKerningGroup = I;
leftMetricsKey = I;
rightKerningGroup = J;
rightMetricsKey = J;
unicode = 0132;
},
{
glyphname = J;
lastChange = "2022-05-18 03:32:05 +0000";
layers = (
{
anchors = (
{
name = bottom;
position = "{584, 0}";
},
{
name = top;
position = "{1505, 1446}";
}
);
layerId = master01;
paths = (
{
closed = 1;
nodes = (
"-203 -741 OFFCURVE",
"74 -557 OFFCURVE",
"562 49 CURVE",
"835 124 OFFCURVE",
"882 145 OFFCURVE",
"1004 196 CURVE SMOOTH",
"1031 207 OFFCURVE",
"1037 215 OFFCURVE",
"1038 223 CURVE SMOOTH",
"1038 228 OFFCURVE",
"1029 231 OFFCURVE",
"1029 231 CURVE",
"1024 231 OFFCURVE",
"1016 225 OFFCURVE",
"988 213 CURVE",
"817 147 OFFCURVE",
"791 144 OFFCURVE",
"596 92 CURVE",
"651 160 OFFCURVE",
"708 234 OFFCURVE",
"767 313 CURVE",
"777 313 LINE SMOOTH",
"1113 313 OFFCURVE",
"1479 692 OFFCURVE",
"1479 1020 CURVE SMOOTH",
"1479 1044 OFFCURVE",
"1478 1066 OFFCURVE",
"1468 1066 CURVE SMOOTH {name = hr03;}",
"1464 1066 OFFCURVE",
"1457 1059 OFFCURVE",
"1457 1035 CURVE SMOOTH",
"1457 750 OFFCURVE",
"1066 340 OFFCURVE",
"788 340 CURVE",
"861 438 OFFCURVE",
"939 543 OFFCURVE",
"1022 658 CURVE",
"1286 1060 OFFCURVE",
"1550 1304 OFFCURVE",
"1779 1360 CURVE",
"1798 1360 OFFCURVE",
"1820 1359 OFFCURVE",
"1844 1359 CURVE SMOOTH {name = hr04;}",
"1880 1359 OFFCURVE",
"1936 1359 OFFCURVE",
"1936 1381 CURVE SMOOTH",
"1936 1389 OFFCURVE",
"1926 1394 OFFCURVE",
"1898 1394 CURVE SMOOTH",
"1862 1394 OFFCURVE",
"1829 1387 OFFCURVE",
"1796 1387 CURVE SMOOTH",
"1742 1387 OFFCURVE",
"1678 1401 OFFCURVE",
"1612 1401 CURVE SMOOTH",
"1042 1401 OFFCURVE",
"501 1009 OFFCURVE",
"501 581 CURVE SMOOTH",
"501 473 OFFCURVE",
"561 391 OFFCURVE",
"642 347 CURVE",
"569 245 OFFCURVE",
"495 143 OFFCURVE",
"421 46 CURVE {name = hr01;}",
"-116 -102 OFFCURVE",
"-523 -422 OFFCURVE",
"-523 -649 CURVE SMOOTH",
"-523 -691 OFFCURVE",
"-496 -741 OFFCURVE",
"-431 -741 CURVE SMOOTH"
);
},
{
closed = 1;
nodes = (
"-465 -716 OFFCURVE",
"-491 -690 OFFCURVE",
"-491 -656 CURVE SMOOTH",
"-491 -494 OFFCURVE",
"24 -125 OFFCURVE",
"387 1 CURVE",
"82 -398 OFFCURVE",
"-217 -716 OFFCURVE",
"-428 -716 CURVE SMOOTH"
);
},
{
closed = 1;
nodes = (
"598 409 OFFCURVE",
"556 473 OFFCURVE",
"556 565 CURVE SMOOTH",
"556 910 OFFCURVE",
"1214 1375 OFFCURVE",
"1624 1375 CURVE SMOOTH",
"1650 1375 OFFCURVE",
"1694 1372 OFFCURVE",
"1729 1367 CURVE",
"1521 1320 OFFCURVE",
"1155 1077 OFFCURVE",
"781 545 CURVE SMOOTH",
"660 373 LINE"
);
}
);
width = 1221;
}
);
leftKerningGroup = J;
rightKerningGroup = J;
unicode = 004A;
},
{
glyphname = K;
lastChange = "2022-05-18 03:32:05 +0000";
layers = (
{
anchors = (
{
name = bottom;
position = "{730, 0}";
},
{
name = top;
position = "{2086, 1446}";
}
);
layerId = master01;
paths = (
{
closed = 1;
nodes = (
"432 -2 OFFCURVE",
"762 192 OFFCURVE",
"1107 651 CURVE",
"1574 1277 OFFCURVE",
"1771 1402 OFFCURVE",
"1857 1426 CURVE SMOOTH",
"1863 1428 OFFCURVE",
"1867 1433 OFFCURVE",
"1867 1438 CURVE SMOOTH",
"1867 1444 OFFCURVE",
"1861 1446 OFFCURVE",
"1853 1446 CURVE SMOOTH",
"1822 1446 OFFCURVE",
"1745 1411 OFFCURVE",
"1551 1255 CURVE",
"1369 1101 OFFCURVE",
"1210 1011 OFFCURVE",
"1063 1011 CURVE SMOOTH",
"1031 1011 OFFCURVE",
"1008 1025 OFFCURVE",
"1008 1043 CURVE SMOOTH",
"1008 1065 OFFCURVE",
"1031 1075 OFFCURVE",
"1068 1099 CURVE SMOOTH",
"1175 1166 OFFCURVE",
"1216 1243 OFFCURVE",
"1216 1311 CURVE SMOOTH {name = hr03;}",
"1216 1368 OFFCURVE",
"1149 1411 OFFCURVE",
"1057 1411 CURVE SMOOTH",
"739 1411 OFFCURVE",
"579 1110 OFFCURVE",
"549 996 CURVE SMOOTH",
"547 990 OFFCURVE",
"547 987 OFFCURVE",
"547 980 CURVE SMOOTH",
"547 968 OFFCURVE",
"552 962 OFFCURVE",
"558 962 CURVE SMOOTH",
"564 962 OFFCURVE",
"566 969 OFFCURVE",
"572 988 CURVE",
"606 1142 OFFCURVE",
"798 1383 OFFCURVE",
"1050 1383 CURVE SMOOTH",
"1117 1383 OFFCURVE",
"1159 1365 OFFCURVE",
"1159 1321 CURVE SMOOTH",
"1159 1305 OFFCURVE",
"1145 1290 OFFCURVE",
"1112 1267 CURVE SMOOTH",
"1012 1195 OFFCURVE",
"963 1130 OFFCURVE",
"963 1064 CURVE SMOOTH",
"963 1010 OFFCURVE",
"1004 983 OFFCURVE",
"1063 983 CURVE SMOOTH",
"1169 983 OFFCURVE",
"1277 1031 OFFCURVE",
"1403 1115 CURVE",
"1178 907 OFFCURVE",
"974 711 OFFCURVE",
"863 560 CURVE SMOOTH",
"562 152 OFFCURVE",
"350 24 OFFCURVE",
"198 24 CURVE SMOOTH",
"100 24 OFFCURVE",
"39 66 OFFCURVE",
"39 124 CURVE SMOOTH",
"39 130 LINE",
"52 122 OFFCURVE",
"69 121 OFFCURVE",
"86 121 CURVE SMOOTH",
"116 121 OFFCURVE",
"143 144 OFFCURVE",
"143 170 CURVE SMOOTH",
"143 203 OFFCURVE",
"114 215 OFFCURVE",
"93 215 CURVE SMOOTH",
"52 215 OFFCURVE",
"0 193 OFFCURVE",
"0 132 CURVE SMOOTH",
"0 58 OFFCURVE",
"74 -2 OFFCURVE",
"199 -2 CURVE SMOOTH {name = hr01;}"
);
},
{
closed = 1;
nodes = (
"1291 710 OFFCURVE",
"1270 724 OFFCURVE",
"1270 736 CURVE SMOOTH",
"1270 744 OFFCURVE",
"1295 759 OFFCURVE",
"1325 760 CURVE SMOOTH",
"1362 762 OFFCURVE",
"1404 752 OFFCURVE",
"1428 729 CURVE",
"1400 718 OFFCURVE",
"1373 713 OFFCURVE",
"1345 712 CURVE SMOOTH"
);
},
{
closed = 1;
nodes = (
"1414 -14 OFFCURVE",
"1704 293 OFFCURVE",
"1704 483 CURVE SMOOTH",
"1704 505 OFFCURVE",
"1698 521 OFFCURVE",
"1692 521 CURVE SMOOTH",
"1688 521 OFFCURVE",
"1683 510 OFFCURVE",
"1678 490 CURVE SMOOTH",
"1605 201 OFFCURVE",
"1356 14 OFFCURVE",
"1230 14 CURVE SMOOTH",
"1156 14 OFFCURVE",
"1134 32 OFFCURVE",
"1134 67 CURVE SMOOTH",
"1134 91 OFFCURVE",
"1150 123 OFFCURVE",
"1227 193 CURVE SMOOTH",
"1454 397 OFFCURVE",
"1495 526 OFFCURVE",
"1495 638 CURVE SMOOTH",
"1495 669 OFFCURVE",
"1488 694 OFFCURVE",
"1477 715 CURVE",
"1639 774 OFFCURVE",
"1819 912 OFFCURVE",
"2011 1102 CURVE",
"2254 1330 OFFCURVE",
"2349 1389 OFFCURVE",
"2438 1389 CURVE SMOOTH",
"2551 1389 OFFCURVE",
"2583 1330 OFFCURVE",
"2575 1295 CURVE SMOOTH",
"2571 1277 LINE",
"2560 1287 OFFCURVE",
"2545 1292 OFFCURVE",
"2527 1292 CURVE SMOOTH",
"2494 1292 OFFCURVE",
"2463 1265 OFFCURVE",
"2459 1239 CURVE SMOOTH",
"2454 1211 OFFCURVE",
"2469 1181 OFFCURVE",
"2509 1181 CURVE SMOOTH",
"2550 1181 OFFCURVE",
"2596 1219 OFFCURVE",
"2607 1281 CURVE SMOOTH",
"2620 1355 OFFCURVE",
"2567 1412 OFFCURVE",
"2438 1412 CURVE SMOOTH",
"2289 1412 OFFCURVE",
"2001 1280 OFFCURVE",
"1730 983 CURVE",
"1621 860 OFFCURVE",
"1537 781 OFFCURVE",
"1457 741 CURVE",
"1426 772 OFFCURVE",
"1378 783 OFFCURVE",
"1323 782 CURVE SMOOTH",
"1256 780 OFFCURVE",
"1221 757 OFFCURVE",
"1221 735 CURVE SMOOTH",
"1221 709 OFFCURVE",
"1265 681 OFFCURVE",
"1331 684 CURVE SMOOTH",
"1367 685 OFFCURVE",
"1405 692 OFFCURVE",
"1444 704 CURVE",
"1446 698 OFFCURVE",
"1447 692 OFFCURVE",
"1447 685 CURVE SMOOTH",
"1447 654 OFFCURVE",
"1427 589 OFFCURVE",
"1377 540 CURVE SMOOTH",
"1130 298 OFFCURVE",
"1081 174 OFFCURVE",
"1081 90 CURVE SMOOTH",
"1081 22 OFFCURVE",
"1126 -14 OFFCURVE",
"1217 -14 CURVE SMOOTH {name = hr05;}"
);
}
);
width = 1726;
}
);
leftKerningGroup = K;
rightKerningGroup = K;
unicode = 004B;
},
{
glyphname = L;
lastChange = "2022-05-18 03:32:05 +0000";
layers = (
{
anchors = (
{
name = bottom;
position = "{608, 0}";
},
{
name = center;
position = "{1152, 694}";
},
{
name = top;
position = "{1856, 1446}";
},
{
name = topright;
position = "{2268, 1017}";
}
);
layerId = master01;
paths = (
{
closed = 1;
nodes = (
"1156 -25 OFFCURVE",
"1270 -2 OFFCURVE",
"1378 95 CURVE SMOOTH",
"1389 105 OFFCURVE",
"1398 121 OFFCURVE",
"1394 131 CURVE SMOOTH",
"1391 137 OFFCURVE",
"1382 135 OFFCURVE",
"1374 127 CURVE SMOOTH",
"1354 106 OFFCURVE",
"1270 24 OFFCURVE",
"1047 24 CURVE SMOOTH",
"866 24 OFFCURVE",
"727 48 OFFCURVE",
"612 89 CURVE",
"764 169 OFFCURVE",
"903 301 OFFCURVE",
"1049 496 CURVE",
"1502 566 OFFCURVE",
"2099 999 OFFCURVE",
"2099 1280 CURVE SMOOTH",
"2099 1353 OFFCURVE",
"2031 1401 OFFCURVE",
"1933 1401 CURVE SMOOTH",
"1646 1401 OFFCURVE",
"1389 1210 OFFCURVE",
"1056 712 CURVE SMOOTH",
"1007 639 OFFCURVE",
"962 574 OFFCURVE",
"920 515 CURVE",
"673 518 OFFCURVE",
"515 608 OFFCURVE",
"515 814 CURVE SMOOTH",
"515 946 OFFCURVE",
"616 1101 OFFCURVE",
"823 1121 CURVE SMOOTH",
"855 1124 OFFCURVE",
"855 1126 OFFCURVE",
"855 1133 CURVE SMOOTH",
"855 1137 OFFCURVE",
"855 1145 OFFCURVE",
"833 1145 CURVE SMOOTH",
"627 1145 OFFCURVE",
"440 961 OFFCURVE",
"440 790 CURVE SMOOTH",
"440 617 OFFCURVE",
"623 495 OFFCURVE",
"899 486 CURVE",
"759 295 OFFCURVE",
"653 179 OFFCURVE",
"551 112 CURVE",
"424 157 OFFCURVE",
"324 182 OFFCURVE",
"224 182 CURVE SMOOTH",
"90 182 OFFCURVE",
"0 142 OFFCURVE",
"0 80 CURVE SMOOTH",
"0 40 OFFCURVE",
"69 -2 OFFCURVE",
"220 -2 CURVE SMOOTH {name = hr01;}",
"347 -2 OFFCURVE",
"460 20 OFFCURVE",
"566 67 CURVE",
"700 28 OFFCURVE",
"903 -25 OFFCURVE",
"1040 -25 CURVE SMOOTH {name = hr03;}"
);
},
{
closed = 1;
nodes = (
"95 22 OFFCURVE",
"28 59 OFFCURVE",
"28 81 CURVE SMOOTH",
"28 111 OFFCURVE",
"98 131 OFFCURVE",
"232 131 CURVE SMOOTH",
"312 131 OFFCURVE",
"416 110 OFFCURVE",
"506 85 CURVE",
"413 35 OFFCURVE",
"321 22 OFFCURVE",
"206 22 CURVE SMOOTH"
);
},
{
closed = 1;
nodes = (
"1147 629 OFFCURVE",
"1224 746 OFFCURVE",
"1306 880 CURVE SMOOTH",
"1502 1199 OFFCURVE",
"1712 1378 OFFCURVE",
"1927 1378 CURVE SMOOTH",
"1987 1378 OFFCURVE",
"2032 1333 OFFCURVE",
"2032 1286 CURVE SMOOTH",
"2032 1017 OFFCURVE",
"1513 606 OFFCURVE",
"1073 528 CURVE"
);
}
);
width = 1537;
}
);
leftKerningGroup = L;
rightKerningGroup = L;
unicode = 004C;
},
{
glyphname = Lslash;
lastChange = "2022-05-18 03:32:05 +0000";
layers = (
{
background = {
paths = (
{
closed = 1;
nodes = (
"1156 -25 OFFCURVE",
"1270 -2 OFFCURVE",
"1378 95 CURVE SMOOTH",
"1389 105 OFFCURVE",
"1398 121 OFFCURVE",
"1394 131 CURVE SMOOTH",
"1391 137 OFFCURVE",
"1382 135 OFFCURVE",
"1374 127 CURVE SMOOTH",
"1354 106 OFFCURVE",
"1270 24 OFFCURVE",
"1047 24 CURVE SMOOTH",
"866 24 OFFCURVE",
"727 48 OFFCURVE",
"612 89 CURVE",
"768 170 OFFCURVE",
"909 308 OFFCURVE",
"1059 510 CURVE",
"1399 594 LINE",
"1401 612 OFFCURVE",
"1414 621 OFFCURVE",
"1420 635 CURVE",
"1090 552 LINE",
"1134 612 OFFCURVE",
"1178 678 OFFCURVE",
"1224 749 CURVE",
"1647 803 OFFCURVE",
"2099 1053 OFFCURVE",
"2099 1280 CURVE SMOOTH",
"2099 1353 OFFCURVE",
"2031 1401 OFFCURVE",
"1933 1401 CURVE SMOOTH",
"1657 1401 OFFCURVE",
"1408 1224 OFFCURVE",
"1093 767 CURVE",
"1068 767 LINE SMOOTH",
"814 767 OFFCURVE",
"649 857 OFFCURVE",
"649 1066 CURVE SMOOTH",
"649 1198 OFFCURVE",
"751 1353 OFFCURVE",
"957 1373 CURVE",
"989 1373 OFFCURVE",
"989 1373 OFFCURVE",
"989 1385 CURVE",
"967 1396 LINE",
"761 1396 OFFCURVE",
"574 1213 OFFCURVE",
"574 1042 CURVE SMOOTH",
"574 863 OFFCURVE",
"771 738 OFFCURVE",
"1064 738 CURVE SMOOTH",
"1073 738 LINE",
"1067 729 OFFCURVE",
"1062 720 OFFCURVE",
"1056 712 CURVE SMOOTH",
"1005 635 OFFCURVE",
"958 568 OFFCURVE",
"914 507 CURVE",
"596 427 LINE",
"592 412 OFFCURVE",
"584 405 OFFCURVE",
"573 389 CURVE",
"884 466 LINE",
"752 287 OFFCURVE",
"649 177 OFFCURVE",
"551 112 CURVE",
"424 157 OFFCURVE",
"324 182 OFFCURVE",
"224 182 CURVE SMOOTH",
"90 182 OFFCURVE",
"0 142 OFFCURVE",
"0 80 CURVE SMOOTH",
"0 40 OFFCURVE",
"69 -2 OFFCURVE",
"220 -2 CURVE SMOOTH {name = hr01;}",
"347 -2 OFFCURVE",
"460 20 OFFCURVE",
"566 67 CURVE",
"700 28 OFFCURVE",
"903 -25 OFFCURVE",
"1040 -25 CURVE SMOOTH {name = hr02;}"
);
},
{
closed = 1;
nodes = (
"95 22 OFFCURVE",
"28 59 OFFCURVE",
"28 81 CURVE SMOOTH",
"28 111 OFFCURVE",
"98 131 OFFCURVE",
"232 131 CURVE SMOOTH",
"312 131 OFFCURVE",
"416 110 OFFCURVE",
"506 85 CURVE",
"413 35 OFFCURVE",
"321 22 OFFCURVE",
"206 22 CURVE SMOOTH"
);
},
{
closed = 1;
nodes = (
"1264 811 OFFCURVE",
"1284 845 OFFCURVE",
"1306 880 CURVE SMOOTH",
"1502 1199 OFFCURVE",
"1712 1378 OFFCURVE",
"1927 1378 CURVE SMOOTH",
"1987 1378 OFFCURVE",
"2032 1333 OFFCURVE",
"2032 1286 CURVE SMOOTH",
"2032 1070 OFFCURVE",
"1648 835 OFFCURVE",
"1243 779 CURVE"
);
}
);
};
layerId = master01;
paths = (
{
closed = 1;
nodes = (
"1156 -25 OFFCURVE",
"1270 -2 OFFCURVE",
"1378 95 CURVE SMOOTH",
"1389 105 OFFCURVE",
"1398 121 OFFCURVE",
"1394 131 CURVE SMOOTH",
"1391 137 OFFCURVE",
"1382 135 OFFCURVE",
"1374 127 CURVE SMOOTH",
"1354 106 OFFCURVE",
"1270 24 OFFCURVE",
"1047 24 CURVE SMOOTH",
"866 24 OFFCURVE",
"727 48 OFFCURVE",
"612 89 CURVE",
"768 170 OFFCURVE",
"909 308 OFFCURVE",
"1059 510 CURVE",
"1122 595 OFFCURVE",
"1166 659 OFFCURVE",
"1224 749 CURVE",
"1647 803 OFFCURVE",
"2099 1053 OFFCURVE",
"2099 1280 CURVE SMOOTH",
"2099 1353 OFFCURVE",
"2031 1401 OFFCURVE",
"1933 1401 CURVE SMOOTH",
"1657 1401 OFFCURVE",
"1408 1224 OFFCURVE",
"1093 767 CURVE",
"1068 767 LINE SMOOTH",
"814 767 OFFCURVE",
"649 857 OFFCURVE",
"649 1066 CURVE SMOOTH",
"649 1198 OFFCURVE",
"751 1353 OFFCURVE",
"957 1373 CURVE",
"989 1373 OFFCURVE",
"989 1373 OFFCURVE",
"989 1385 CURVE",
"967 1396 LINE",
"761 1396 OFFCURVE",
"574 1213 OFFCURVE",
"574 1042 CURVE SMOOTH",
"574 863 OFFCURVE",
"771 738 OFFCURVE",
"1064 738 CURVE SMOOTH",
"1073 738 LINE",
"1067 729 OFFCURVE",
"1062 720 OFFCURVE",
"1056 712 CURVE SMOOTH",
"1006 637 OFFCURVE",
"960 571 OFFCURVE",
"884 466 CURVE",
"752 287 OFFCURVE",
"649 177 OFFCURVE",
"551 112 CURVE",
"424 157 OFFCURVE",
"324 182 OFFCURVE",
"224 182 CURVE SMOOTH",
"90 182 OFFCURVE",
"0 142 OFFCURVE",
"0 80 CURVE SMOOTH",
"0 40 OFFCURVE",
"69 -2 OFFCURVE",
"220 -2 CURVE SMOOTH {name = hr01;}",
"347 -2 OFFCURVE",
"460 20 OFFCURVE",
"566 67 CURVE",
"700 28 OFFCURVE",
"903 -25 OFFCURVE",
"1040 -25 CURVE SMOOTH {name = hr02;}"
);
},
{
closed = 1;
nodes = (
"95 22 OFFCURVE",
"28 59 OFFCURVE",
"28 81 CURVE SMOOTH",
"28 111 OFFCURVE",
"98 131 OFFCURVE",
"232 131 CURVE SMOOTH",
"312 131 OFFCURVE",
"416 110 OFFCURVE",
"506 85 CURVE",
"413 35 OFFCURVE",
"321 22 OFFCURVE",
"206 22 CURVE SMOOTH"
);
},
{
closed = 1;
nodes = (
"1177 423 OFFCURVE",
"1244 432 OFFCURVE",
"1298 452 CURVE",
"1353 470 OFFCURVE",
"1380 486 OFFCURVE",
"1382 498 CURVE SMOOTH",
"1381 500 OFFCURVE",
"1375 504 OFFCURVE",
"1364 504 CURVE SMOOTH",
"1355 505 OFFCURVE",
"1347 501 OFFCURVE",
"1336 496 CURVE",
"1303 470 OFFCURVE",
"1252 459 OFFCURVE",
"1195 461 CURVE SMOOTH",
"1159 462 OFFCURVE",
"1110 468 OFFCURVE",
"1036 486 CURVE SMOOTH",
"961 506 OFFCURVE",
"921 510 OFFCURVE",
"882 511 CURVE SMOOTH {name = hr04;}",
"835 512 OFFCURVE",
"770 503 OFFCURVE",
"713 485 CURVE SMOOTH",
"659 467 OFFCURVE",
"632 450 OFFCURVE",
"631 438 CURVE SMOOTH",
"631 435 OFFCURVE",
"637 433 OFFCURVE",
"646 433 CURVE SMOOTH {name = hr01;}",
"658 433 OFFCURVE",
"666 435 OFFCURVE",
"678 440 CURVE",
"709 465 OFFCURVE",
"758 477 OFFCURVE",
"820 476 CURVE SMOOTH",
"861 475 OFFCURVE",
"893 469 OFFCURVE",
"960 452 CURVE SMOOTH",
"1050 431 OFFCURVE",
"1082 425 OFFCURVE",
"1128 424 CURVE SMOOTH {name = hr03;}"
);
},
{
closed = 1;
nodes = (
"1264 811 OFFCURVE",
"1284 845 OFFCURVE",
"1306 880 CURVE SMOOTH",
"1502 1199 OFFCURVE",
"1712 1378 OFFCURVE",
"1927 1378 CURVE SMOOTH",
"1987 1378 OFFCURVE",
"2032 1333 OFFCURVE",
"2032 1286 CURVE SMOOTH",
"2032 1070 OFFCURVE",
"1648 835 OFFCURVE",
"1243 779 CURVE"
);
}
);
width = 1537;
}
);
leftKerningGroup = L;
leftMetricsKey = L;
rightKerningGroup = L;
rightMetricsKey = L;
unicode = 0141;
},
{
glyphname = M;
lastChange = "2022-05-18 03:32:05 +0000";
layers = (
{
anchors = (
{
name = bottom;
position = "{942, 0}";
},
{
name = top;
position = "{2171, 1446}";
}
);
layerId = master01;
paths = (
{
closed = 1;
nodes = (
"1555 -2 OFFCURVE",
"1694 39 OFFCURVE",
"1781 112 CURVE",
"1783 115 OFFCURVE",
"1786 122 OFFCURVE",
"1786 135 CURVE SMOOTH",
"1786 141 OFFCURVE",
"1783 147 OFFCURVE",
"1781 148 CURVE",
"1700 70 OFFCURVE",
"1563 25 OFFCURVE",
"1505 25 CURVE SMOOTH",
"1468 25 OFFCURVE",
"1447 42 OFFCURVE",
"1447 67 CURVE SMOOTH",
"1447 90 OFFCURVE",
"1456 111 OFFCURVE",
"1551 250 CURVE",
"1829 645 OFFCURVE",
"2199 1178 OFFCURVE",
"2463 1410 CURVE",
"2503 1444 OFFCURVE",
"2545 1469 OFFCURVE",
"2545 1479 CURVE SMOOTH",
"2545 1485 OFFCURVE",
"2540 1487 OFFCURVE",
"2535 1487 CURVE SMOOTH",
"2473 1487 OFFCURVE",
"2307 1382 OFFCURVE",
"1962 1060 CURVE",
"1527 649 OFFCURVE",
"1371 484 OFFCURVE",
"1008 65 CURVE",
"1104 266 OFFCURVE",
"1733 1269 OFFCURVE",
"1854 1399 CURVE",
"1882 1427 OFFCURVE",
"1901 1443 OFFCURVE",
"1914 1455 CURVE SMOOTH",
"1926 1465 OFFCURVE",
"1929 1467 OFFCURVE",
"1929 1474 CURVE SMOOTH",
"1929 1480 OFFCURVE",
"1911 1484 OFFCURVE",
"1902 1484 CURVE SMOOTH",
"1884 1484 OFFCURVE",
"1707 1360 OFFCURVE",
"1310 926 CURVE SMOOTH",
"679 235 OFFCURVE",
"383 26 OFFCURVE",
"187 26 CURVE SMOOTH",
"89 26 OFFCURVE",
"38 63 OFFCURVE",
"38 121 CURVE SMOOTH",
"38 124 OFFCURVE",
"39 128 OFFCURVE",
"39 133 CURVE",
"52 124 OFFCURVE",
"70 122 OFFCURVE",
"87 122 CURVE SMOOTH",
"117 122 OFFCURVE",
"144 146 OFFCURVE",
"144 172 CURVE SMOOTH",
"144 204 OFFCURVE",
"114 218 OFFCURVE",
"93 218 CURVE SMOOTH",
"52 218 OFFCURVE",
"0 188 OFFCURVE",
"0 127 CURVE SMOOTH",
"0 52 OFFCURVE",
"63 -1 OFFCURVE",
"188 -1 CURVE SMOOTH",
"252 -1 OFFCURVE",
"316 17 OFFCURVE",
"400 59 CURVE SMOOTH {name = hr00;}",
"586 154 OFFCURVE",
"828 353 OFFCURVE",
"1132 687 CURVE SMOOTH",
"1482 1072 OFFCURVE",
"1673 1267 OFFCURVE",
"1748 1335 CURVE",
"1280 807 OFFCURVE",
"952 274 OFFCURVE",
"952 49 CURVE SMOOTH",
"952 19 OFFCURVE",
"965 7 OFFCURVE",
"974 7 CURVE SMOOTH",
"988 7 OFFCURVE",
"1006 15 OFFCURVE",
"1076 96 CURVE SMOOTH",
"1363 431 OFFCURVE",
"1582 650 OFFCURVE",
"1694 757 CURVE SMOOTH",
"2143 1185 OFFCURVE",
"2292 1322 OFFCURVE",
"2411 1407 CURVE",
"2171 1170 OFFCURVE",
"1758 752 OFFCURVE",
"1501 372 CURVE",
"1391 206 OFFCURVE",
"1367 132 OFFCURVE",
"1367 93 CURVE SMOOTH",
"1367 39 OFFCURVE",
"1406 -2 OFFCURVE",
"1488 -2 CURVE SMOOTH"
);
}
);
width = 1915;
}
);
leftKerningGroup = M;
rightKerningGroup = M;
unicode = 004D;
},
{
glyphname = N;
lastChange = "2022-05-18 03:32:05 +0000";
layers = (
{
anchors = (
{
name = bottom;
position = "{668, 0}";
},
{
name = top;
position = "{1894, 1388}";
}
);
layerId = master01;
paths = (
{
closed = 1;
nodes = (
"962 -19 OFFCURVE",
"975 -13 OFFCURVE",
"1010 28 CURVE SMOOTH",
"1124 158 OFFCURVE",
"1367 466 OFFCURVE",
"1700 830 CURVE SMOOTH",
"2118 1288 OFFCURVE",
"2388 1467 OFFCURVE",
"2612 1467 CURVE SMOOTH",
"2714 1467 OFFCURVE",
"2774 1406 OFFCURVE",
"2774 1301 CURVE SMOOTH",
"2774 1146 OFFCURVE",
"2596 980 OFFCURVE",
"2435 918 CURVE {name = hr03;}",
"2422 912 OFFCURVE",
"2418 907 OFFCURVE",
"2418 902 CURVE SMOOTH",
"2418 898 OFFCURVE",
"2421 895 OFFCURVE",
"2429 895 CURVE SMOOTH",
"2440 895 OFFCURVE",
"2463 902 OFFCURVE",
"2485 912 CURVE SMOOTH",
"2695 1013 OFFCURVE",
"2839 1194 OFFCURVE",
"2837 1318 CURVE SMOOTH",
"2836 1431 OFFCURVE",
"2763 1496 OFFCURVE",
"2623 1496 CURVE",
"2397 1493 OFFCURVE",
"2162 1353 OFFCURVE",
"1808 986 CURVE SMOOTH",
"1544 714 OFFCURVE",
"1225 331 OFFCURVE",
"1099 178 CURVE",
"1246 437 OFFCURVE",
"1317 554 OFFCURVE",
"1398 774 CURVE SMOOTH",
"1472 975 OFFCURVE",
"1493 1076 OFFCURVE",
"1523 1181 CURVE SMOOTH",
"1539 1237 OFFCURVE",
"1555 1286 OFFCURVE",
"1588 1342 CURVE",
"1602 1368 LINE SMOOTH",
"1605 1373 OFFCURVE",
"1606 1375 OFFCURVE",
"1606 1381 CURVE SMOOTH",
"1606 1386 OFFCURVE",
"1602 1390 OFFCURVE",
"1597 1390 CURVE SMOOTH",
"1590 1390 OFFCURVE",
"1585 1384 OFFCURVE",
"1572 1368 CURVE",
"1551 1336 OFFCURVE",
"1329 1050 OFFCURVE",
"911 578 CURVE SMOOTH",
"540 161 OFFCURVE",
"323 25 OFFCURVE",
"199 25 CURVE SMOOTH",
"90 25 OFFCURVE",
"40 67 OFFCURVE",
"40 125 CURVE SMOOTH",
"40 131 LINE",
"53 123 OFFCURVE",
"70 121 OFFCURVE",
"88 121 CURVE SMOOTH",
"117 121 OFFCURVE",
"144 145 OFFCURVE",
"144 171 CURVE SMOOTH",
"144 203 OFFCURVE",
"115 217 OFFCURVE",
"93 217 CURVE SMOOTH",
"52 217 OFFCURVE",
"0 193 OFFCURVE",
"0 133 CURVE SMOOTH",
"0 59 OFFCURVE",
"65 -2 OFFCURVE",
"201 -2 CURVE SMOOTH {name = hr01;}",
"367 -2 OFFCURVE",
"590 182 OFFCURVE",
"902 522 CURVE",
"1162 809 OFFCURVE",
"1278 956 OFFCURVE",
"1481 1209 CURVE",
"1319 931 OFFCURVE",
"1179 624 OFFCURVE",
"1108 388 CURVE SMOOTH",
"1045 176 OFFCURVE",
"1017 87 OFFCURVE",
"967 26 CURVE SMOOTH",
"962 19 OFFCURVE",
"953 13 OFFCURVE",
"948 8 CURVE",
"943 5 OFFCURVE",
"940 0 OFFCURVE",
"940 -5 CURVE SMOOTH",
"940 -13 OFFCURVE",
"947 -19 OFFCURVE",
"954 -19 CURVE SMOOTH"
);
},
{
closed = 1;
nodes = (
"665 815 OFFCURVE",
"823 923 OFFCURVE",
"823 1085 CURVE SMOOTH",
"823 1166 OFFCURVE",
"775 1219 OFFCURVE",
"726 1219 CURVE SMOOTH {name = hr05;}",
"694 1219 OFFCURVE",
"677 1196 OFFCURVE",
"677 1174 CURVE SMOOTH",
"677 1147 OFFCURVE",
"701 1129 OFFCURVE",
"726 1129 CURVE SMOOTH",
"743 1129 OFFCURVE",
"756 1139 OFFCURVE",
"765 1150 CURVE",
"781 1133 OFFCURVE",
"792 1109 OFFCURVE",
"792 1081 CURVE SMOOTH",
"792 931 OFFCURVE",
"641 839 OFFCURVE",
"504 839 CURVE SMOOTH",
"346 839 OFFCURVE",
"244 943 OFFCURVE",
"244 1085 CURVE SMOOTH",
"244 1257 OFFCURVE",
"413 1385 OFFCURVE",
"612 1385 CURVE SMOOTH",
"695 1385 OFFCURVE",
"764 1371 OFFCURVE",
"922 1280 CURVE SMOOTH",
"1005 1231 OFFCURVE",
"1125 1198 OFFCURVE",
"1208 1198 CURVE SMOOTH {name = hr06;}",
"1270 1198 OFFCURVE",
"1387 1236 OFFCURVE",
"1441 1288 CURVE",
"1452 1300 OFFCURVE",
"1455 1305 OFFCURVE",
"1455 1311 CURVE SMOOTH",
"1455 1313 OFFCURVE",
"1451 1319 OFFCURVE",
"1447 1319 CURVE SMOOTH",
"1441 1319 OFFCURVE",
"1436 1314 OFFCURVE",
"1424 1303 CURVE SMOOTH",
"1387 1271 OFFCURVE",
"1329 1249 OFFCURVE",
"1280 1249 CURVE SMOOTH",
"1236 1249 OFFCURVE",
"1186 1262 OFFCURVE",
"1141 1281 CURVE",
"1065 1316 OFFCURVE",
"1011 1343 OFFCURVE",
"943 1371 CURVE SMOOTH",
"839 1414 OFFCURVE",
"759 1424 OFFCURVE",
"662 1424 CURVE SMOOTH",
"395 1424 OFFCURVE",
"212 1279 OFFCURVE",
"212 1091 CURVE SMOOTH",
"212 905 OFFCURVE",
"353 815 OFFCURVE",
"508 815 CURVE SMOOTH"
);
}
);
width = 1483;
}
);
leftKerningGroup = N;
rightKerningGroup = N;
unicode = 004E;
userData = {
KernOnName = N;
};
},
{
glyphname = Eng;
lastChange = "2022-05-18 03:32:05 +0000";
layers = (
{
anchors = (
{
name = bottom;
position = "{668, 0}";
},
{
name = top;
position = "{1894, 1388}";
}
);
layerId = master01;
paths = (
{
closed = 1;
nodes = (
"962 -19 OFFCURVE",
"975 -13 OFFCURVE",
"1010 28 CURVE SMOOTH",
"1124 158 OFFCURVE",
"1367 466 OFFCURVE",
"1700 830 CURVE SMOOTH",
"2118 1288 OFFCURVE",
"2388 1467 OFFCURVE",
"2612 1467 CURVE SMOOTH",
"2714 1467 OFFCURVE",
"2774 1406 OFFCURVE",
"2774 1301 CURVE SMOOTH",
"2774 1146 OFFCURVE",
"2596 980 OFFCURVE",
"2435 918 CURVE {name = hr03;}",
"2422 912 OFFCURVE",
"2418 907 OFFCURVE",
"2418 902 CURVE SMOOTH",
"2418 898 OFFCURVE",
"2421 895 OFFCURVE",
"2429 895 CURVE SMOOTH",
"2440 895 OFFCURVE",
"2463 902 OFFCURVE",
"2485 912 CURVE SMOOTH",
"2695 1013 OFFCURVE",
"2839 1194 OFFCURVE",
"2837 1318 CURVE SMOOTH",
"2836 1431 OFFCURVE",
"2763 1496 OFFCURVE",
"2623 1496 CURVE",
"2397 1493 OFFCURVE",
"2162 1353 OFFCURVE",
"1808 986 CURVE SMOOTH",
"1544 714 OFFCURVE",
"1225 331 OFFCURVE",
"1099 178 CURVE",
"1246 437 OFFCURVE",
"1317 554 OFFCURVE",
"1398 774 CURVE SMOOTH",
"1472 975 OFFCURVE",
"1493 1076 OFFCURVE",
"1523 1181 CURVE SMOOTH",
"1539 1237 OFFCURVE",
"1555 1286 OFFCURVE",
"1588 1342 CURVE",
"1602 1368 LINE SMOOTH",
"1605 1373 OFFCURVE",
"1606 1375 OFFCURVE",
"1606 1381 CURVE SMOOTH",
"1606 1386 OFFCURVE",
"1602 1390 OFFCURVE",
"1597 1390 CURVE SMOOTH",
"1590 1390 OFFCURVE",
"1585 1384 OFFCURVE",
"1572 1368 CURVE",
"1551 1336 OFFCURVE",
"1329 1050 OFFCURVE",
"911 578 CURVE SMOOTH",
"540 161 OFFCURVE",
"323 25 OFFCURVE",
"199 25 CURVE SMOOTH",
"90 25 OFFCURVE",
"40 67 OFFCURVE",
"40 125 CURVE SMOOTH",
"40 131 LINE",
"53 123 OFFCURVE",
"70 121 OFFCURVE",
"88 121 CURVE SMOOTH",
"117 121 OFFCURVE",
"144 145 OFFCURVE",
"144 171 CURVE SMOOTH",
"144 203 OFFCURVE",
"115 217 OFFCURVE",
"93 217 CURVE SMOOTH",
"52 217 OFFCURVE",
"0 193 OFFCURVE",
"0 133 CURVE SMOOTH",
"0 59 OFFCURVE",
"65 -2 OFFCURVE",
"201 -2 CURVE SMOOTH {name = hr01;}",
"367 -2 OFFCURVE",
"590 182 OFFCURVE",
"902 522 CURVE",
"1162 809 OFFCURVE",
"1278 956 OFFCURVE",
"1481 1209 CURVE",
"1319 931 OFFCURVE",
"1179 624 OFFCURVE",
"1108 388 CURVE SMOOTH",
"1030 125 OFFCURVE",
"1004 72 OFFCURVE",
"940 -5 CURVE",
"940 -13 OFFCURVE",
"947 -19 OFFCURVE",
"954 -19 CURVE SMOOTH"
);
},
{
closed = 1;
nodes = (
"466 -546 OFFCURVE",
"655 -421 OFFCURVE",
"1010 28 CURVE",
"940 -5 LINE",
"580 -438 OFFCURVE",
"435 -520 OFFCURVE",
"281 -520 CURVE SMOOTH",
"170 -520 OFFCURVE",
"98 -469 OFFCURVE",
"98 -405 CURVE SMOOTH",
"98 -399 LINE",
"111 -406 OFFCURVE",
"128 -406 OFFCURVE",
"145 -404 CURVE",
"175 -402 OFFCURVE",
"200 -375 OFFCURVE",
"196 -350 CURVE",
"193 -317 OFFCURVE",
"163 -307 OFFCURVE",
"141 -309 CURVE SMOOTH",
"100 -313 OFFCURVE",
"51 -341 OFFCURVE",
"57 -402 CURVE SMOOTH",
"65 -480 OFFCURVE",
"144 -546 OFFCURVE",
"283 -546 CURVE SMOOTH {name = hr01;}"
);
},
{
closed = 1;
nodes = (
"665 815 OFFCURVE",
"823 923 OFFCURVE",
"823 1085 CURVE SMOOTH",
"823 1166 OFFCURVE",
"775 1219 OFFCURVE",
"726 1219 CURVE SMOOTH {name = hr05;}",
"694 1219 OFFCURVE",
"677 1196 OFFCURVE",
"677 1174 CURVE SMOOTH",
"677 1147 OFFCURVE",
"701 1129 OFFCURVE",
"726 1129 CURVE SMOOTH",
"743 1129 OFFCURVE",
"756 1139 OFFCURVE",
"765 1150 CURVE",
"781 1133 OFFCURVE",
"792 1109 OFFCURVE",
"792 1081 CURVE SMOOTH",
"792 931 OFFCURVE",
"641 839 OFFCURVE",
"504 839 CURVE SMOOTH",
"346 839 OFFCURVE",
"244 943 OFFCURVE",
"244 1085 CURVE SMOOTH",
"244 1257 OFFCURVE",
"413 1385 OFFCURVE",
"612 1385 CURVE SMOOTH",
"695 1385 OFFCURVE",
"764 1371 OFFCURVE",
"922 1280 CURVE SMOOTH",
"1005 1231 OFFCURVE",
"1125 1198 OFFCURVE",
"1208 1198 CURVE SMOOTH {name = hr06;}",
"1270 1198 OFFCURVE",
"1387 1236 OFFCURVE",
"1441 1288 CURVE",
"1452 1300 OFFCURVE",
"1455 1305 OFFCURVE",
"1455 1311 CURVE SMOOTH",
"1455 1313 OFFCURVE",
"1451 1319 OFFCURVE",
"1447 1319 CURVE SMOOTH",
"1441 1319 OFFCURVE",
"1436 1314 OFFCURVE",
"1424 1303 CURVE SMOOTH",
"1387 1271 OFFCURVE",
"1329 1249 OFFCURVE",
"1280 1249 CURVE SMOOTH",
"1236 1249 OFFCURVE",
"1186 1262 OFFCURVE",
"1141 1281 CURVE",
"1065 1316 OFFCURVE",
"1011 1343 OFFCURVE",
"943 1371 CURVE SMOOTH",
"839 1414 OFFCURVE",
"759 1424 OFFCURVE",
"662 1424 CURVE SMOOTH",
"395 1424 OFFCURVE",
"212 1279 OFFCURVE",
"212 1091 CURVE SMOOTH",
"212 905 OFFCURVE",
"353 815 OFFCURVE",
"508 815 CURVE SMOOTH"
);
}
);
width = 1483;
}
);
leftKerningGroup = N;
leftMetricsKey = N;
rightKerningGroup = N;
rightMetricsKey = N;
unicode = 014A;
},
{
glyphname = O;
lastChange = "2022-05-18 03:32:05 +0000";
layers = (
{
anchors = (
{
name = bottom;
position = "{249, 0}";
},
{
name = center;
position = "{872, 694}";
},
{
name = ogonek;
position = "{433, 10}";
},
{
name = top;
position = "{1162, 1446}";
},
{
name = topleft;
position = "{386, 1388}";
},
{
name = topright;
position = "{1338, 1388}";
}
);
layerId = master01;
paths = (
{
closed = 1;
nodes = (
"777 -2 OFFCURVE",
"1274 520 OFFCURVE",
"1274 899 CURVE SMOOTH",
"1274 1053 OFFCURVE",
"1172 1121 OFFCURVE",
"1065 1121 CURVE SMOOTH",
"759 1121 OFFCURVE",
"439 789 OFFCURVE",
"439 408 CURVE SMOOTH",
"439 328 OFFCURVE",
"467 247 OFFCURVE",
"492 215 CURVE SMOOTH",
"501 203 OFFCURVE",
"509 194 OFFCURVE",
"515 197 CURVE SMOOTH",
"524 202 OFFCURVE",
"517 211 OFFCURVE",
"515 215 CURVE SMOOTH",
"479 268 OFFCURVE",
"469 344 OFFCURVE",
"469 396 CURVE SMOOTH",
"469 767 OFFCURVE",
"801 1093 OFFCURVE",
"1055 1093 CURVE SMOOTH",
"1160 1093 OFFCURVE",
"1225 1040 OFFCURVE",
"1225 925 CURVE SMOOTH",
"1225 538 OFFCURVE",
"692 23 OFFCURVE",
"332 23 CURVE SMOOTH",
"184 23 OFFCURVE",
"111 112 OFFCURVE",
"111 237 CURVE SMOOTH {name = hr00;}",
"111 644 OFFCURVE",
"786 1373 OFFCURVE",
"1219 1373 CURVE SMOOTH",
"1397 1373 OFFCURVE",
"1473 1297 OFFCURVE",
"1473 1188 CURVE SMOOTH",
"1473 1129 OFFCURVE",
"1449 1052 OFFCURVE",
"1432 1031 CURVE SMOOTH",
"1424 1020 OFFCURVE",
"1422 1017 OFFCURVE",
"1422 1013 CURVE SMOOTH",
"1422 1005 OFFCURVE",
"1424 1003 OFFCURVE",
"1430 1003 CURVE SMOOTH",
"1437 1003 OFFCURVE",
"1445 1013 OFFCURVE",
"1456 1027 CURVE",
"1477 1058 OFFCURVE",
"1501 1140 OFFCURVE",
"1501 1190 CURVE SMOOTH",
"1501 1312 OFFCURVE",
"1417 1401 OFFCURVE",
"1230 1401 CURVE SMOOTH",
"678 1401 OFFCURVE",
"38 799 OFFCURVE",
"38 301 CURVE SMOOTH",
"38 95 OFFCURVE",
"165 -2 OFFCURVE",
"320 -2 CURVE SMOOTH"
);
}
);
width = 1122;
}
);
leftKerningGroup = O;
rightKerningGroup = O;
unicode = 004F;
},
{
glyphname = Oslash;
lastChange = "2022-05-18 03:32:05 +0000";
layers = (
{
anchors = (
{
name = bottom;
position = "{609, 0}";
},
{
name = top;
position = "{980, 1446}";
}
);
layerId = master01;
paths = (
{
closed = 1;
nodes = (
"73 -176 OFFCURVE",
"92 -176 OFFCURVE",
"99 -176 CURVE SMOOTH",
"105 -176 OFFCURVE",
"113 -176 OFFCURVE",
"121 -177 CURVE",
"252 -1 LINE",
"262 -2 OFFCURVE",
"272 -2 OFFCURVE",
"282 -2 CURVE SMOOTH",
"739 -2 OFFCURVE",
"1236 520 OFFCURVE",
"1236 899 CURVE SMOOTH",
"1236 1025 OFFCURVE",
"1168 1093 OFFCURVE",
"1084 1114 CURVE",
"1271 1365 LINE",
"1385 1343 OFFCURVE",
"1435 1276 OFFCURVE",
"1435 1188 CURVE SMOOTH",
"1435 1133 OFFCURVE",
"1411 1068 OFFCURVE",
"1394 1048 CURVE SMOOTH",
"1386 1037 OFFCURVE",
"1384 1034 OFFCURVE",
"1384 1031 CURVE SMOOTH",
"1384 1023 OFFCURVE",
"1386 1020 OFFCURVE",
"1392 1020 CURVE SMOOTH",
"1399 1020 OFFCURVE",
"1407 1031 OFFCURVE",
"1418 1044 CURVE",
"1439 1073 OFFCURVE",
"1463 1143 OFFCURVE",
"1463 1190 CURVE SMOOTH",
"1463 1287 OFFCURVE",
"1403 1363 OFFCURVE",
"1290 1390 CURVE",
"1438 1588 LINE",
"1433 1587 OFFCURVE",
"1428 1586 OFFCURVE",
"1423 1586 CURVE SMOOTH",
"1414 1586 OFFCURVE",
"1392 1587 OFFCURVE",
"1386 1589 CURVE",
"1244 1398 LINE",
"1227 1400 OFFCURVE",
"1210 1401 OFFCURVE",
"1192 1401 CURVE SMOOTH",
"640 1401 OFFCURVE",
"0 793 OFFCURVE",
"0 301 CURVE SMOOTH",
"0 129 OFFCURVE",
"88 34 OFFCURVE",
"206 6 CURVE",
"70 -177 LINE {name = hr00;}"
);
},
{
closed = 1;
nodes = (
"1065 1088 LINE",
"1141 1073 OFFCURVE",
"1187 1021 OFFCURVE",
"1187 925 CURVE SMOOTH",
"1187 538 OFFCURVE",
"654 23 OFFCURVE",
"294 23 CURVE SMOOTH",
"271 23 LINE"
);
},
{
closed = 1;
nodes = (
"123 54 OFFCURVE",
"73 133 OFFCURVE",
"73 237 CURVE SMOOTH",
"73 640 OFFCURVE",
"748 1373 OFFCURVE",
"1181 1373 CURVE SMOOTH",
"1196 1373 OFFCURVE",
"1210 1372 OFFCURVE",
"1224 1371 CURVE",
"1037 1121 LINE",
"1027 1121 LINE SMOOTH",
"749 1121 OFFCURVE",
"440 824 OFFCURVE",
"385 508 CURVE SMOOTH",
"383 496 OFFCURVE",
"383 486 OFFCURVE",
"391 486 CURVE SMOOTH",
"402 486 OFFCURVE",
"408 492 OFFCURVE",
"412 507 CURVE",
"472 821 OFFCURVE",
"788 1092 OFFCURVE",
"1016 1093 CURVE",
"224 30 LINE"
);
}
);
width = 1463;
}
);
leftKerningGroup = O;
rightKerningGroup = O;
unicode = 00D8;
},
{
glyphname = OE;
lastChange = "2022-05-18 03:32:05 +0000";
layers = (
{
anchors = (
{
name = bottom;
position = "{1118, 0}";
},
{
name = top;
position = "{1569, 1388}";
}
);
layerId = master01;
paths = (
{
closed = 1;
nodes = (
"1331 -283 OFFCURVE",
"1337 -279 OFFCURVE",
"1337 -274 CURVE SMOOTH",
"1337 -269 OFFCURVE",
"1335 -267 OFFCURVE",
"1327 -259 CURVE",
"1281 -221 OFFCURVE",
"1249 -153 OFFCURVE",
"1249 -47 CURVE SMOOTH",
"1249 -32 OFFCURVE",
"1250 -16 OFFCURVE",
"1252 0 CURVE",
"1267 -1 OFFCURVE",
"1281 -2 OFFCURVE",
"1297 -2 CURVE SMOOTH",
"1573 -2 OFFCURVE",
"1815 193 OFFCURVE",
"1815 388 CURVE SMOOTH",
"1815 462 OFFCURVE",
"1771 511 OFFCURVE",
"1678 511 CURVE SMOOTH",
"1509 511 OFFCURVE",
"1357 381 OFFCURVE",
"1274 188 CURVE",
"1251 137 OFFCURVE",
"1236 82 OFFCURVE",
"1228 31 CURVE",
"1108 51 OFFCURVE",
"1042 124 OFFCURVE",
"1042 230 CURVE SMOOTH",
"1042 393 OFFCURVE",
"1359 700 OFFCURVE",
"1592 718 CURVE",
"1637 652 OFFCURVE",
"1713 620 OFFCURVE",
"1770 620 CURVE SMOOTH {name = hr04;}",
"1804 620 OFFCURVE",
"1825 629 OFFCURVE",
"1825 652 CURVE SMOOTH",
"1825 693 OFFCURVE",
"1761 739 OFFCURVE",
"1638 752 CURVE",
"1638 767 LINE SMOOTH",
"1638 889 OFFCURVE",
"1786 1137 OFFCURVE",
"2013 1281 CURVE",
"2069 1318 OFFCURVE",
"2168 1355 OFFCURVE",
"2255 1355 CURVE SMOOTH",
"2353 1355 OFFCURVE",
"2402 1311 OFFCURVE",
"2402 1239 CURVE SMOOTH",
"2402 1045 OFFCURVE",
"2101 812 OFFCURVE",
"1922 812 CURVE SMOOTH {name = hr05;}",
"1862 812 OFFCURVE",
"1835 839 OFFCURVE",
"1835 876 CURVE SMOOTH",
"1835 1001 OFFCURVE",
"2047 1203 OFFCURVE",
"2256 1203 CURVE SMOOTH",
"2274 1203 OFFCURVE",
"2288 1206 OFFCURVE",
"2288 1218 CURVE SMOOTH",
"2288 1222 OFFCURVE",
"2281 1229 OFFCURVE",
"2265 1229 CURVE SMOOTH",
"2015 1229 OFFCURVE",
"1803 1007 OFFCURVE",
"1803 877 CURVE SMOOTH",
"1803 824 OFFCURVE",
"1842 785 OFFCURVE",
"1918 785 CURVE SMOOTH",
"2198 785 OFFCURVE",
"2444 1041 OFFCURVE",
"2444 1237 CURVE SMOOTH",
"2444 1310 OFFCURVE",
"2391 1384 OFFCURVE",
"2233 1384 CURVE SMOOTH",
"2191 1384 OFFCURVE",
"2100 1373 OFFCURVE",
"2028 1350 CURVE SMOOTH",
"1761 1267 OFFCURVE",
"1557 1016 OFFCURVE",
"1557 839 CURVE SMOOTH {name = hr06;}",
"1557 808 OFFCURVE",
"1562 780 OFFCURVE",
"1572 756 CURVE",
"1568 756 LINE SMOOTH",
"1428 756 OFFCURVE",
"1296 713 OFFCURVE",
"1192 642 CURVE",
"1237 731 OFFCURVE",
"1264 818 OFFCURVE",
"1264 896 CURVE SMOOTH",
"1264 1050 OFFCURVE",
"1175 1121 OFFCURVE",
"1067 1121 CURVE SMOOTH",
"766 1121 OFFCURVE",
"447 684 OFFCURVE",
"447 359 CURVE SMOOTH",
"447 249 OFFCURVE",
"477 174 OFFCURVE",
"499 174 CURVE SMOOTH",
"504 174 OFFCURVE",
"507 178 OFFCURVE",
"507 184 CURVE SMOOTH",
"507 186 OFFCURVE",
"506 189 OFFCURVE",
"504 194 CURVE SMOOTH",
"488 226 OFFCURVE",
"476 294 OFFCURVE",
"476 344 CURVE SMOOTH",
"476 683 OFFCURVE",
"810 1093 OFFCURVE",
"1060 1093 CURVE SMOOTH",
"1165 1093 OFFCURVE",
"1221 1042 OFFCURVE",
"1221 927 CURVE SMOOTH",
"1221 592 OFFCURVE",
"687 26 OFFCURVE",
"337 26 CURVE SMOOTH",
"211 26 OFFCURVE",
"105 91 OFFCURVE",
"105 217 CURVE SMOOTH {name = hr01;}",
"105 613 OFFCURVE",
"827 1355 OFFCURVE",
"1213 1355 CURVE SMOOTH",
"1371 1355 OFFCURVE",
"1463 1279 OFFCURVE",
"1463 1156 CURVE SMOOTH",
"1463 1094 OFFCURVE",
"1442 1051 OFFCURVE",
"1425 1031 CURVE SMOOTH",
"1417 1020 OFFCURVE",
"1414 1017 OFFCURVE",
"1414 1013 CURVE SMOOTH",
"1414 1005 OFFCURVE",
"1418 1003 OFFCURVE",
"1422 1003 CURVE SMOOTH",
"1430 1003 OFFCURVE",
"1438 1013 OFFCURVE",
"1450 1027 CURVE",
"1470 1056 OFFCURVE",
"1492 1106 OFFCURVE",
"1492 1158 CURVE SMOOTH",
"1492 1296 OFFCURVE",
"1390 1384 OFFCURVE",
"1224 1384 CURVE SMOOTH",
"732 1384 OFFCURVE",
"38 805 OFFCURVE",
"38 312 CURVE SMOOTH",
"38 82 OFFCURVE",
"158 -2 OFFCURVE",
"313 -2 CURVE SMOOTH",
"533 -2 OFFCURVE",
"788 153 OFFCURVE",
"978 351 CURVE",
"971 321 OFFCURVE",
"968 291 OFFCURVE",
"968 261 CURVE SMOOTH",
"968 138 OFFCURVE",
"1064 29 OFFCURVE",
"1224 3 CURVE",
"1222 -17 OFFCURVE",
"1221 -37 OFFCURVE",
"1221 -56 CURVE SMOOTH {name = hr03;}",
"1221 -157 OFFCURVE",
"1253 -226 OFFCURVE",
"1299 -269 CURVE SMOOTH",
"1313 -282 OFFCURVE",
"1319 -283 OFFCURVE",
"1326 -283 CURVE SMOOTH"
);
},
{
closed = 1;
nodes = (
"1285 26 OFFCURVE",
"1271 27 OFFCURVE",
"1257 28 CURVE",
"1268 76 OFFCURVE",
"1287 130 OFFCURVE",
"1314 184 CURVE {name = hr09;}",
"1408 364 OFFCURVE",
"1584 480 OFFCURVE",
"1685 480 CURVE SMOOTH {name = hr10;}",
"1754 480 OFFCURVE",
"1779 459 OFFCURVE",
"1779 412 CURVE SMOOTH",
"1779 301 OFFCURVE",
"1493 26 OFFCURVE",
"1300 26 CURVE SMOOTH"
);
},
{
closed = 1;
nodes = (
"1719 648 OFFCURVE",
"1668 669 OFFCURVE",
"1647 718 CURVE",
"1732 711 OFFCURVE",
"1784 681 OFFCURVE",
"1784 660 CURVE SMOOTH {name = hr08;}",
"1784 652 OFFCURVE",
"1779 648 OFFCURVE",
"1770 648 CURVE SMOOTH"
);
}
);
width = 1923;
}
);
leftKerningGroup = O;
leftMetricsKey = O;
rightKerningGroup = E;
rightMetricsKey = E;
unicode = 0152;
},
{
glyphname = P;
lastChange = "2022-05-18 03:32:05 +0000";
layers = (
{
anchors = (
{
name = bottom;
position = "{760, 0}";
},
{
name = top;
position = "{1211, 1388}";
}
);
layerId = master01;
paths = (
{
closed = 1;
nodes = (
"402 -2 OFFCURVE",
"642 142 OFFCURVE",
"970 582 CURVE",
"1013 573 OFFCURVE",
"1062 568 OFFCURVE",
"1116 568 CURVE SMOOTH",
"1444 568 OFFCURVE",
"1762 805 OFFCURVE",
"1762 1054 CURVE SMOOTH",
"1762 1158 OFFCURVE",
"1709 1250 OFFCURVE",
"1601 1314 CURVE",
"1648 1344 OFFCURVE",
"1695 1365 OFFCURVE",
"1740 1374 CURVE",
"1762 1377 OFFCURVE",
"1766 1382 OFFCURVE",
"1766 1390 CURVE SMOOTH",
"1765 1400 OFFCURVE",
"1756 1400 OFFCURVE",
"1746 1400 CURVE SMOOTH",
"1714 1400 OFFCURVE",
"1648 1380 OFFCURVE",
"1565 1333 CURVE",
"1469 1379 OFFCURVE",
"1339 1406 OFFCURVE",
"1172 1406 CURVE SMOOTH",
"709 1406 OFFCURVE",
"198 1115 OFFCURVE",
"209 789 CURVE SMOOTH",
"212 689 OFFCURVE",
"298 622 OFFCURVE",
"373 622 CURVE SMOOTH {name = hr03;}",
"720 622 OFFCURVE",
"936 978 OFFCURVE",
"927 1210 CURVE",
"927 1231 OFFCURVE",
"927 1241 OFFCURVE",
"917 1241 CURVE SMOOTH",
"910 1241 OFFCURVE",
"905 1233 OFFCURVE",
"903 1207 CURVE",
"887 1070 OFFCURVE",
"616 649 OFFCURVE",
"376 649 CURVE SMOOTH",
"319 649 OFFCURVE",
"244 686 OFFCURVE",
"240 795 CURVE SMOOTH",
"231 1059 OFFCURVE",
"664 1384 OFFCURVE",
"1174 1384 CURVE SMOOTH",
"1337 1384 OFFCURVE",
"1455 1359 OFFCURVE",
"1531 1313 CURVE",
"1490 1286 LINE",
"1276 1139 OFFCURVE",
"1104 962 OFFCURVE",
"886 669 CURVE SMOOTH",
"872 650 LINE",
"851 664 OFFCURVE",
"839 680 OFFCURVE",
"839 695 CURVE SMOOTH",
"839 747 OFFCURVE",
"871 789 OFFCURVE",
"933 799 CURVE SMOOTH",
"944 801 OFFCURVE",
"945 805 OFFCURVE",
"945 807 CURVE SMOOTH",
"945 807 OFFCURVE",
"945 817 OFFCURVE",
"920 817 CURVE SMOOTH",
"862 817 OFFCURVE",
"799 774 OFFCURVE",
"799 714 CURVE SMOOTH",
"799 680 OFFCURVE",
"819 650 OFFCURVE",
"855 626 CURVE",
"480 109 OFFCURVE",
"370 26 OFFCURVE",
"199 26 CURVE SMOOTH",
"101 26 OFFCURVE",
"40 68 OFFCURVE",
"40 127 CURVE SMOOTH",
"40 132 LINE",
"53 124 OFFCURVE",
"70 122 OFFCURVE",
"87 122 CURVE SMOOTH",
"117 122 OFFCURVE",
"144 146 OFFCURVE",
"144 172 CURVE SMOOTH",
"144 204 OFFCURVE",
"114 218 OFFCURVE",
"94 218 CURVE SMOOTH",
"53 218 OFFCURVE",
"0 194 OFFCURVE",
"0 135 CURVE SMOOTH",
"0 59 OFFCURVE",
"66 -2 OFFCURVE",
"212 -2 CURVE SMOOTH {name = hr01;}"
);
},
{
closed = 1;
nodes = (
"1069 594 OFFCURVE",
"1027 599 OFFCURVE",
"989 607 CURVE",
"1019 648 OFFCURVE",
"1050 691 OFFCURVE",
"1082 738 CURVE",
"1261 988 OFFCURVE",
"1419 1183 OFFCURVE",
"1565 1289 CURVE",
"1617 1246 OFFCURVE",
"1642 1188 OFFCURVE",
"1642 1119 CURVE SMOOTH",
"1642 774 OFFCURVE",
"1326 594 OFFCURVE",
"1112 594 CURVE SMOOTH"
);
}
);
width = 1289;
}
);
leftKerningGroup = P;
rightKerningGroup = P;
unicode = 0050;
},
{
glyphname = Thorn;
lastChange = "2022-05-18 03:32:05 +0000";
layers = (
{
layerId = master01;
paths = (
{
closed = 1;
nodes = (
"-326 -787 OFFCURVE",
"3 -555 OFFCURVE",
"728 416 CURVE {name = hr03;}",
"928 610 OFFCURVE",
"1169 744 OFFCURVE",
"1308 744 CURVE SMOOTH",
"1393 744 OFFCURVE",
"1431 683 OFFCURVE",
"1431 611 CURVE SMOOTH",
"1431 327 OFFCURVE",
"1093 26 OFFCURVE",
"872 26 CURVE SMOOTH",
"781 26 OFFCURVE",
"754 74 OFFCURVE",
"754 108 CURVE SMOOTH",
"754 234 OFFCURVE",
"1015 442 OFFCURVE",
"1223 442 CURVE SMOOTH",
"1242 442 OFFCURVE",
"1255 447 OFFCURVE",
"1255 457 CURVE SMOOTH",
"1255 462 OFFCURVE",
"1247 469 OFFCURVE",
"1234 469 CURVE SMOOTH",
"982 469 OFFCURVE",
"722 239 OFFCURVE",
"722 105 CURVE SMOOTH",
"722 60 OFFCURVE",
"757 -2 OFFCURVE",
"870 -2 CURVE SMOOTH",
"1197 -2 OFFCURVE",
"1517 268 OFFCURVE",
"1517 561 CURVE SMOOTH",
"1517 654 OFFCURVE",
"1472 773 OFFCURVE",
"1319 773 CURVE SMOOTH",
"1163 773 OFFCURVE",
"987 682 OFFCURVE",
"813 531 CURVE",
"870 608 LINE SMOOTH",
"934 696 OFFCURVE",
"996 778 OFFCURVE",
"1055 852 CURVE",
"1374 945 OFFCURVE",
"1646 1146 OFFCURVE",
"1646 1324 CURVE SMOOTH",
"1646 1357 OFFCURVE",
"1619 1384 OFFCURVE",
"1573 1384 CURVE SMOOTH",
"1478 1384 OFFCURVE",
"1318 1286 OFFCURVE",
"953 862 CURVE {name = hr04;}",
"867 838 OFFCURVE",
"782 825 OFFCURVE",
"705 825 CURVE SMOOTH",
"504 825 OFFCURVE",
"335 911 OFFCURVE",
"335 1032 CURVE SMOOTH",
"335 1244 OFFCURVE",
"735 1446 OFFCURVE",
"1002 1446 CURVE SMOOTH",
"1034 1446 OFFCURVE",
"1059 1442 OFFCURVE",
"1074 1442 CURVE SMOOTH",
"1084 1442 OFFCURVE",
"1087 1444 OFFCURVE",
"1087 1450 CURVE SMOOTH",
"1087 1460 OFFCURVE",
"1051 1467 OFFCURVE",
"1006 1467 CURVE SMOOTH",
"643 1467 OFFCURVE",
"292 1305 OFFCURVE",
"292 1077 CURVE SMOOTH",
"292 905 OFFCURVE",
"448 800 OFFCURVE",
"707 800 CURVE SMOOTH",
"776 800 OFFCURVE",
"847 807 OFFCURVE",
"917 820 CURVE",
"806 690 OFFCURVE",
"679 532 OFFCURVE",
"530 340 CURVE SMOOTH",
"443 228 OFFCURVE",
"356 111 OFFCURVE",
"270 -2 CURVE {name = hr01;}",
"-433 -306 OFFCURVE",
"-644 -555 OFFCURVE",
"-644 -710 CURVE SMOOTH",
"-644 -752 OFFCURVE",
"-620 -787 OFFCURVE",
"-562 -787 CURVE SMOOTH"
);
},
{
closed = 1;
nodes = (
"-604 -762 OFFCURVE",
"-613 -742 OFFCURVE",
"-613 -717 CURVE SMOOTH",
"-613 -535 OFFCURVE",
"-130 -239 OFFCURVE",
"241 -39 CURVE",
"-50 -422 OFFCURVE",
"-333 -762 OFFCURVE",
"-561 -762 CURVE SMOOTH"
);
},
{
closed = 1;
nodes = (
"1332 1196 OFFCURVE",
"1506 1362 OFFCURVE",
"1578 1362 CURVE SMOOTH",
"1595 1362 OFFCURVE",
"1614 1355 OFFCURVE",
"1614 1335 CURVE SMOOTH",
"1614 1203 OFFCURVE",
"1373 1019 OFFCURVE",
"1103 912 CURVE"
);
}
);
width = 1520;
}
);
leftKerningGroup = Thorn;
rightKerningGroup = Thorn;
unicode = 00DE;
},
{
glyphname = Q;
lastChange = "2022-05-18 03:32:05 +0000";
layers = (
{
layerId = master01;
paths = (
{
closed = 1;
nodes = (
"1519 -290 OFFCURVE",
"1588 -277 OFFCURVE",
"1641 -257 CURVE",
"1715 -232 OFFCURVE",
"1779 -179 OFFCURVE",
"1779 -165 CURVE SMOOTH",
"1779 -159 OFFCURVE",
"1774 -153 OFFCURVE",
"1767 -153 CURVE SMOOTH",
"1762 -153 OFFCURVE",
"1759 -156 OFFCURVE",
"1754 -159 CURVE",
"1717 -190 LINE",
"1672 -223 OFFCURVE",
"1593 -250 OFFCURVE",
"1509 -250 CURVE SMOOTH",
"1380 -250 OFFCURVE",
"1184 -187 OFFCURVE",
"816 47 CURVE SMOOTH",
"793 62 OFFCURVE",
"767 68 OFFCURVE",
"742 78 CURVE",
"1201 241 OFFCURVE",
"1591 639 OFFCURVE",
"1591 1073 CURVE SMOOTH",
"1591 1308 OFFCURVE",
"1441 1401 OFFCURVE",
"1263 1401 CURVE SMOOTH",
"1129 1401 OFFCURVE",
"955 1357 OFFCURVE",
"830 1280 CURVE SMOOTH",
"537 1098 OFFCURVE",
"399 872 OFFCURVE",
"399 702 CURVE SMOOTH",
"399 573 OFFCURVE",
"477 477 OFFCURVE",
"623 477 CURVE SMOOTH",
"913 477 OFFCURVE",
"1253 828 OFFCURVE",
"1253 1134 CURVE SMOOTH",
"1253 1162 OFFCURVE",
"1245 1165 OFFCURVE",
"1237 1165 CURVE SMOOTH",
"1233 1165 OFFCURVE",
"1231 1162 OFFCURVE",
"1226 1135 CURVE SMOOTH",
"1176 868 OFFCURVE",
"828 500 OFFCURVE",
"628 500 CURVE SMOOTH",
"493 500 OFFCURVE",
"457 581 OFFCURVE",
"457 655 CURVE SMOOTH",
"457 799 OFFCURVE",
"713 1138 OFFCURVE",
"953 1281 CURVE SMOOTH",
"1048 1338 OFFCURVE",
"1152 1377 OFFCURVE",
"1253 1377 CURVE SMOOTH",
"1449 1377 OFFCURVE",
"1538 1280 OFFCURVE",
"1538 1121 CURVE SMOOTH",
"1538 811 OFFCURVE",
"1153 372 OFFCURVE",
"835 188 CURVE SMOOTH",
"781 157 OFFCURVE",
"726 128 OFFCURVE",
"671 104 CURVE",
"515 158 OFFCURVE",
"342 193 OFFCURVE",
"212 193 CURVE SMOOTH",
"93 193 OFFCURVE",
"0 146 OFFCURVE",
"0 104 CURVE SMOOTH",
"0 55 OFFCURVE",
"87 1 OFFCURVE",
"311 1 CURVE SMOOTH {name = hr00;}",
"411 1 OFFCURVE",
"513 14 OFFCURVE",
"612 39 CURVE",
"669 14 OFFCURVE",
"739 -5 OFFCURVE",
"808 -52 CURVE SMOOTH",
"1101 -253 OFFCURVE",
"1282 -290 OFFCURVE",
"1465 -290 CURVE SMOOTH"
);
},
{
closed = 1;
nodes = (
"167 26 OFFCURVE",
"66 56 OFFCURVE",
"66 113 CURVE SMOOTH",
"66 141 OFFCURVE",
"107 165 OFFCURVE",
"201 165 CURVE SMOOTH",
"286 165 OFFCURVE",
"376 142 OFFCURVE",
"558 63 CURVE",
"480 39 OFFCURVE",
"398 26 OFFCURVE",
"307 26 CURVE SMOOTH"
);
}
);
width = 1437;
}
);
leftKerningGroup = Q;
rightKerningGroup = O;
unicode = 0051;
},
{
glyphname = R;
lastChange = "2022-05-18 03:32:05 +0000";
layers = (
{
anchors = (
{
name = bottom;
position = "{803, 0}";
},
{
name = top;
position = "{1543, 1446}";
}
);
layerId = master01;
paths = (
{
closed = 1;
nodes = (
"467 -2 OFFCURVE",
"744 172 OFFCURVE",
"1133 716 CURVE",
"1302 963 OFFCURVE",
"1482 1155 OFFCURVE",
"1641 1263 CURVE",
"1680 1226 OFFCURVE",
"1702 1181 OFFCURVE",
"1704 1126 CURVE SMOOTH",
"1709 963 OFFCURVE",
"1535 723 OFFCURVE",
"1351 646 CURVE {name = hr03;}",
"1318 664 OFFCURVE",
"1274 671 OFFCURVE",
"1230 671 CURVE SMOOTH",
"1179 671 OFFCURVE",
"1152 652 OFFCURVE",
"1154 636 CURVE",
"1155 616 OFFCURVE",
"1185 598 OFFCURVE",
"1242 598 CURVE SMOOTH {name = hr04;}",
"1268 598 OFFCURVE",
"1300 601 OFFCURVE",
"1333 609 CURVE",
"1337 601 OFFCURVE",
"1339 593 OFFCURVE",
"1339 583 CURVE SMOOTH",
"1340 546 OFFCURVE",
"1328 512 OFFCURVE",
"1257 453 CURVE",
"1174 368 OFFCURVE",
"1079 268 OFFCURVE",
"1084 121 CURVE SMOOTH {name = hr05;}",
"1087 49 OFFCURVE",
"1147 -2 OFFCURVE",
"1255 -2 CURVE SMOOTH",
"1448 -2 OFFCURVE",
"1745 250 OFFCURVE",
"1743 481 CURVE SMOOTH",
"1743 499 OFFCURVE",
"1736 510 OFFCURVE",
"1725 510 CURVE SMOOTH",
"1720 510 OFFCURVE",
"1716 498 OFFCURVE",
"1711 480 CURVE",
"1623 219 OFFCURVE",
"1419 26 OFFCURVE",
"1260 26 CURVE SMOOTH",
"1179 26 OFFCURVE",
"1155 59 OFFCURVE",
"1155 99 CURVE",
"1154 125 OFFCURVE",
"1166 158 OFFCURVE",
"1212 197 CURVE",
"1392 377 OFFCURVE",
"1418 454 OFFCURVE",
"1413 544 CURVE",
"1412 577 OFFCURVE",
"1401 603 OFFCURVE",
"1383 622 CURVE",
"1637 697 OFFCURVE",
"1800 873 OFFCURVE",
"1793 1042 CURVE SMOOTH",
"1789 1141 OFFCURVE",
"1746 1222 OFFCURVE",
"1671 1283 CURVE",
"1733 1321 OFFCURVE",
"1791 1347 OFFCURVE",
"1844 1358 CURVE",
"1865 1361 OFFCURVE",
"1872 1366 OFFCURVE",
"1872 1374 CURVE SMOOTH",
"1871 1384 OFFCURVE",
"1861 1384 OFFCURVE",
"1852 1384 CURVE SMOOTH",
"1815 1384 OFFCURVE",
"1737 1361 OFFCURVE",
"1635 1309 CURVE",
"1543 1368 OFFCURVE",
"1415 1401 OFFCURVE",
"1262 1401 CURVE SMOOTH",
"845 1401 OFFCURVE",
"348 1110 OFFCURVE",
"359 779 CURVE SMOOTH",
"362 678 OFFCURVE",
"460 612 OFFCURVE",
"547 612 CURVE SMOOTH",
"894 612 OFFCURVE",
"1110 969 OFFCURVE",
"1101 1205 CURVE",
"1101 1227 OFFCURVE",
"1101 1237 OFFCURVE",
"1091 1237 CURVE SMOOTH",
"1083 1237 OFFCURVE",
"1079 1229 OFFCURVE",
"1076 1203 CURVE SMOOTH",
"1061 1064 OFFCURVE",
"789 638 OFFCURVE",
"549 638 CURVE SMOOTH",
"485 638 OFFCURVE",
"397 675 OFFCURVE",
"393 784 CURVE SMOOTH",
"384 1034 OFFCURVE",
"782 1373 OFFCURVE",
"1247 1373 CURVE SMOOTH",
"1398 1373 OFFCURVE",
"1523 1346 OFFCURVE",
"1604 1292 CURVE",
"1591 1285 OFFCURVE",
"1578 1278 OFFCURVE",
"1565 1270 CURVE SMOOTH",
"1339 1121 OFFCURVE",
"1127 946 OFFCURVE",
"914 648 CURVE",
"524 113 OFFCURVE",
"416 26 OFFCURVE",
"239 26 CURVE SMOOTH",
"140 26 OFFCURVE",
"80 68 OFFCURVE",
"80 127 CURVE SMOOTH",
"80 133 LINE",
"93 124 OFFCURVE",
"110 122 OFFCURVE",
"128 122 CURVE SMOOTH",
"157 122 OFFCURVE",
"183 146 OFFCURVE",
"183 172 CURVE SMOOTH",
"183 204 OFFCURVE",
"155 218 OFFCURVE",
"133 218 CURVE SMOOTH",
"92 218 OFFCURVE",
"40 194 OFFCURVE",
"40 135 CURVE SMOOTH",
"40 59 OFFCURVE",
"107 -2 OFFCURVE",
"252 -2 CURVE SMOOTH {name = hr01;}"
);
},
{
closed = 1;
nodes = (
"1206 621 OFFCURVE",
"1190 632 OFFCURVE",
"1190 638 CURVE SMOOTH {name = hr07;}",
"1190 644 OFFCURVE",
"1205 648 OFFCURVE",
"1230 648 CURVE SMOOTH",
"1264 648 OFFCURVE",
"1291 643 OFFCURVE",
"1310 632 CURVE {name = hr08;}",
"1286 625 OFFCURVE",
"1261 621 OFFCURVE",
"1237 621 CURVE SMOOTH"
);
}
);
width = 1756;
}
);
leftKerningGroup = R;
rightKerningGroup = R;
unicode = 0052;
},
{
glyphname = S;
lastChange = "2022-05-18 03:32:05 +0000";
layers = (
{
anchors = (
{
name = bottom;
position = "{247, 0}";
},
{
name = top;
position = "{1710, 1446}";
}
);
layerId = master01;
paths = (
{
closed = 1;
nodes = (
"561 -2 OFFCURVE",
"793 317 OFFCURVE",
"1021 667 CURVE",
"1455 723 OFFCURVE",
"1805 1072 OFFCURVE",
"1817 1277 CURVE SMOOTH",
"1821 1357 OFFCURVE",
"1770 1401 OFFCURVE",
"1690 1401 CURVE SMOOTH",
"1450 1401 OFFCURVE",
"1189 1186 OFFCURVE",
"871 685 CURVE",
"531 696 OFFCURVE",
"374 848 OFFCURVE",
"382 969 CURVE",
"394 1213 OFFCURVE",
"711 1378 OFFCURVE",
"1020 1378 CURVE SMOOTH",
"1082 1378 OFFCURVE",
"1123 1369 OFFCURVE",
"1166 1359 CURVE",
"1177 1358 OFFCURVE",
"1185 1355 OFFCURVE",
"1194 1355 CURVE SMOOTH",
"1206 1355 OFFCURVE",
"1206 1355 OFFCURVE",
"1206 1359 CURVE SMOOTH",
"1206 1377 OFFCURVE",
"1119 1401 OFFCURVE",
"1021 1401 CURVE SMOOTH",
"656 1401 OFFCURVE",
"329 1225 OFFCURVE",
"315 988 CURVE SMOOTH",
"303 797 OFFCURVE",
"538 671 OFFCURVE",
"855 660 CURVE",
"835 627 LINE SMOOTH",
"661 340 OFFCURVE",
"499 22 OFFCURVE",
"214 22 CURVE SMOOTH {name = hr00;}",
"116 22 OFFCURVE",
"40 68 OFFCURVE",
"40 127 CURVE SMOOTH",
"40 132 LINE",
"53 124 OFFCURVE",
"69 122 OFFCURVE",
"86 122 CURVE SMOOTH",
"117 122 OFFCURVE",
"143 146 OFFCURVE",
"143 172 CURVE SMOOTH",
"143 204 OFFCURVE",
"115 218 OFFCURVE",
"93 218 CURVE SMOOTH",
"52 218 OFFCURVE",
"0 194 OFFCURVE",
"0 135 CURVE SMOOTH",
"0 59 OFFCURVE",
"84 -2 OFFCURVE",
"230 -2 CURVE SMOOTH"
);
},
{
closed = 1;
nodes = (
"1063 732 OFFCURVE",
"1087 768 OFFCURVE",
"1111 805 CURVE SMOOTH",
"1344 1172 OFFCURVE",
"1524 1370 OFFCURVE",
"1689 1376 CURVE SMOOTH",
"1725 1377 OFFCURVE",
"1769 1353 OFFCURVE",
"1763 1281 CURVE",
"1752 1082 OFFCURVE",
"1425 758 OFFCURVE",
"1040 695 CURVE"
);
}
);
width = 1053;
}
);
leftKerningGroup = S;
rightKerningGroup = S;
unicode = 0053;
userData = {
KernOnName = S;
};
},
{
glyphname = Saltillo;
lastChange = "2022-05-18 03:32:05 +0000";
layers = (
{
layerId = master01;
paths = (
{
closed = 1;
nodes = (
"341 424 OFFCURVE",
"348 427 OFFCURVE",
"357 440 CURVE SMOOTH",
"383 476 OFFCURVE",
"455 579 OFFCURVE",
"572 743 CURVE SMOOTH",
"699 923 OFFCURVE",
"840 1129 OFFCURVE",
"1071 1388 CURVE",
"1054 1385 OFFCURVE",
"1014 1384 OFFCURVE",
"1004 1384 CURVE SMOOTH",
"951 1382 OFFCURVE",
"913 1385 OFFCURVE",
"897 1388 CURVE",
"856 1328 LINE SMOOTH",
"765 1194 OFFCURVE",
"467 709 OFFCURVE",
"343 479 CURVE SMOOTH",
"330 456 OFFCURVE",
"325 442 OFFCURVE",
"325 435 CURVE SMOOTH",
"325 427 OFFCURVE",
"329 424 OFFCURVE",
"335 424 CURVE SMOOTH {name = hr00;}"
);
}
);
width = 486;
}
);
leftKerningGroup = Saltillo;
rightKerningGroup = Saltillo;
unicode = A78B;
},
{
glyphname = Germandbls;
lastChange = "2022-05-18 03:32:05 +0000";
layers = (
{
layerId = master01;
paths = (
{
closed = 1;
nodes = (
"655 1154 OFFCURVE",
"822 1392 OFFCURVE",
"1085 1392 CURVE SMOOTH",
"1178 1392 OFFCURVE",
"1210 1335 OFFCURVE",
"1210 1283 CURVE SMOOTH",
"1210 1010 OFFCURVE",
"779 1047 OFFCURVE",
"802 755 CURVE SMOOTH",
"846 209 OFFCURVE",
"671 24 OFFCURVE",
"481 24 CURVE SMOOTH",
"404 24 OFFCURVE",
"329 71 OFFCURVE",
"325 138 CURVE SMOOTH",
"323 164 OFFCURVE",
"330 182 OFFCURVE",
"339 195 CURVE",
"347 191 OFFCURVE",
"366 186 OFFCURVE",
"383 186 CURVE SMOOTH",
"414 186 OFFCURVE",
"452 209 OFFCURVE",
"449 244 CURVE SMOOTH",
"448 267 OFFCURVE",
"431 282 OFFCURVE",
"397 283 CURVE SMOOTH",
"336 284 OFFCURVE",
"292 229 OFFCURVE",
"296 141 CURVE SMOOTH {name = hr00;}",
"301 50 OFFCURVE",
"379 -2 OFFCURVE",
"487 -2 CURVE SMOOTH",
"740 -2 OFFCURVE",
"879 166 OFFCURVE",
"906 429 CURVE SMOOTH",
"924 602 OFFCURVE",
"862 729 OFFCURVE",
"862 797 CURVE SMOOTH",
"862 1041 OFFCURVE",
"1322 1042 OFFCURVE",
"1308 1295 CURVE SMOOTH",
"1304 1363 OFFCURVE",
"1248 1422 OFFCURVE",
"1092 1422 CURVE SMOOTH",
"847 1422 OFFCURVE",
"669 1332 OFFCURVE",
"-175 0 CURVE",
"-68 0 LINE"
);
}
);
width = 968;
}
);
leftKerningGroup = Germandbls;
rightKerningGroup = Germandbls;
unicode = 1E9E;
},
{
glyphname = Schwa;
lastChange = "2022-05-18 03:32:05 +0000";
layers = (
{
layerId = master01;
paths = (
{
closed = 1;
nodes = (
"786 -1 OFFCURVE",
"1133 154 OFFCURVE",
"1434 573 CURVE SMOOTH",
"1501 666 OFFCURVE",
"1625 893 OFFCURVE",
"1625 1091 CURVE SMOOTH",
"1625 1265 OFFCURVE",
"1494 1387 OFFCURVE",
"1265 1387 CURVE SMOOTH",
"872 1387 OFFCURVE",
"609 1074 OFFCURVE",
"469 907 CURVE SMOOTH",
"434 865 OFFCURVE",
"417 846 OFFCURVE",
"403 832 CURVE",
"429 818 LINE",
"438 828 OFFCURVE",
"452 845 OFFCURVE",
"479 878 CURVE SMOOTH",
"600 1027 OFFCURVE",
"859 1348 OFFCURVE",
"1242 1348 CURVE SMOOTH",
"1431 1348 OFFCURVE",
"1512 1240 OFFCURVE",
"1512 1110 CURVE SMOOTH",
"1512 1023 OFFCURVE",
"1514 933 OFFCURVE",
"1431 777 CURVE",
"1423 773 LINE",
"709 632 OFFCURVE",
"317 374 OFFCURVE",
"320 124 CURVE SMOOTH",
"321 42 OFFCURVE",
"397 -1 OFFCURVE",
"531 -1 CURVE SMOOTH"
);
},
{
closed = 1;
nodes = (
"466 28 OFFCURVE",
"421 70 OFFCURVE",
"425 152 CURVE SMOOTH",
"435 381 OFFCURVE",
"767 609 OFFCURVE",
"1366 719 CURVE",
"1384 705 LINE",
"1365 675 OFFCURVE",
"1339 639 OFFCURVE",
"1304 594 CURVE SMOOTH",
"985 177 OFFCURVE",
"719 28 OFFCURVE",
"546 28 CURVE SMOOTH"
);
}
);
width = 1365;
}
);
leftKerningGroup = Schwa;
rightKerningGroup = Schwa;
unicode = 018F;
},
{
glyphname = T;
lastChange = "2022-05-18 03:32:05 +0000";
layers = (
{
anchors = (
{
name = bottom;
position = "{270, 0}";
},
{
name = center;
position = "{990, 523}";
},
{
name = top;
position = "{1703, 1446}";
}
);
layerId = master01;
paths = (
{
closed = 1;
nodes = (
"549 -2 OFFCURVE",
"875 187 OFFCURVE",
"1223 726 CURVE SMOOTH",
"1415 1024 OFFCURVE",
"1447 1062 OFFCURVE",
"1589 1155 CURVE SMOOTH",
"1604 1164 OFFCURVE",
"1609 1167 OFFCURVE",
"1609 1178 CURVE SMOOTH",
"1609 1183 OFFCURVE",
"1604 1187 OFFCURVE",
"1595 1187 CURVE SMOOTH",
"1554 1187 OFFCURVE",
"1340 1027 OFFCURVE",
"1111 763 CURVE",
"1022 658 OFFCURVE",
"946 563 OFFCURVE",
"888 472 CURVE SMOOTH",
"697 172 OFFCURVE",
"468 26 OFFCURVE",
"267 26 CURVE SMOOTH",
"139 26 OFFCURVE",
"40 68 OFFCURVE",
"40 157 CURVE SMOOTH",
"40 163 LINE",
"53 155 OFFCURVE",
"70 153 OFFCURVE",
"88 153 CURVE SMOOTH",
"118 153 OFFCURVE",
"144 177 OFFCURVE",
"144 203 CURVE SMOOTH",
"144 235 OFFCURVE",
"115 249 OFFCURVE",
"94 249 CURVE SMOOTH",
"53 249 OFFCURVE",
"0 225 OFFCURVE",
"0 165 CURVE SMOOTH",
"0 60 OFFCURVE",
"123 -2 OFFCURVE",
"259 -2 CURVE SMOOTH"
);
},
{
closed = 1;
nodes = (
"990 775 OFFCURVE",
"1241 999 OFFCURVE",
"1241 1221 CURVE SMOOTH",
"1241 1241 OFFCURVE",
"1236 1246 OFFCURVE",
"1230 1246 CURVE SMOOTH",
"1226 1246 OFFCURVE",
"1223 1245 OFFCURVE",
"1218 1221 CURVE",
"1186 1091 OFFCURVE",
"942 807 OFFCURVE",
"789 807 CURVE SMOOTH",
"705 807 OFFCURVE",
"664 860 OFFCURVE",
"664 923 CURVE SMOOTH",
"664 1096 OFFCURVE",
"965 1319 OFFCURVE",
"1204 1319 CURVE SMOOTH",
"1266 1319 OFFCURVE",
"1362 1310 OFFCURVE",
"1471 1289 CURVE",
"1597 1262 OFFCURVE",
"1673 1254 OFFCURVE",
"1739 1254 CURVE SMOOTH",
"1963 1254 OFFCURVE",
"2183 1342 OFFCURVE",
"2284 1460 CURVE",
"2306 1488 OFFCURVE",
"2317 1508 OFFCURVE",
"2317 1516 CURVE SMOOTH",
"2317 1523 OFFCURVE",
"2314 1526 OFFCURVE",
"2306 1526 CURVE SMOOTH",
"2302 1526 OFFCURVE",
"2296 1525 OFFCURVE",
"2287 1509 CURVE",
"2231 1420 OFFCURVE",
"2074 1335 OFFCURVE",
"1927 1335 CURVE SMOOTH",
"1888 1335 OFFCURVE",
"1791 1342 OFFCURVE",
"1716 1355 CURVE",
"1654 1368 OFFCURVE",
"1540 1384 OFFCURVE",
"1440 1384 CURVE SMOOTH",
"1329 1384 OFFCURVE",
"1169 1369 OFFCURVE",
"1074 1337 CURVE SMOOTH",
"820 1251 OFFCURVE",
"636 1064 OFFCURVE",
"636 930 CURVE SMOOTH",
"636 836 OFFCURVE",
"696 775 OFFCURVE",
"799 775 CURVE SMOOTH {name = hr00;}"
);
}
);
width = 1127;
}
);
leftKerningGroup = T;
rightKerningGroup = T;
unicode = 0054;
userData = {
KernOnName = T;
};
},
{
glyphname = U;
lastChange = "2022-05-18 03:32:05 +0000";
layers = (
{
anchors = (
{
name = bottom;
position = "{264, 0}";
},
{
name = ogonek;
position = "{785, 10}";
},
{
name = top;
position = "{1228, 1336}";
},
{
name = topright;
position = "{1532, 1247}";
}
);
layerId = master01;
paths = (
{
closed = 1;
nodes = (
"217 -2 OFFCURVE",
"406 75 OFFCURVE",
"697 322 CURVE",
"660 262 OFFCURVE",
"624 185 OFFCURVE",
"628 96 CURVE",
"630 31 OFFCURVE",
"684 -2 OFFCURVE",
"743 -2 CURVE SMOOTH",
"840 -2 OFFCURVE",
"970 83 OFFCURVE",
"1038 145 CURVE",
"1040 148 OFFCURVE",
"1043 155 OFFCURVE",
"1043 164 CURVE SMOOTH",
"1042 173 OFFCURVE",
"1040 179 OFFCURVE",
"1036 181 CURVE",
"961 104 OFFCURVE",
"832 24 OFFCURVE",
"750 24 CURVE SMOOTH",
"706 24 OFFCURVE",
"670 42 OFFCURVE",
"668 90 CURVE SMOOTH",
"664 193 OFFCURVE",
"772 342 OFFCURVE",
"956 538 CURVE",
"1083 669 OFFCURVE",
"1545 1211 OFFCURVE",
"1574 1249 CURVE",
"1429 1249 LINE",
"1148 928 OFFCURVE",
"875 604 OFFCURVE",
"797 505 CURVE",
"535 179 OFFCURVE",
"245 23 OFFCURVE",
"123 23 CURVE SMOOTH",
"77 23 OFFCURVE",
"58 42 OFFCURVE",
"57 72 CURVE SMOOTH",
"55 121 OFFCURVE",
"99 187 OFFCURVE",
"393 488 CURVE",
"822 934 OFFCURVE",
"905 1130 OFFCURVE",
"902 1254 CURVE",
"897 1349 OFFCURVE",
"814 1401 OFFCURVE",
"694 1401 CURVE SMOOTH",
"353 1401 OFFCURVE",
"-8 1110 OFFCURVE",
"1 899 CURVE SMOOTH {name = hr03;}",
"4 824 OFFCURVE",
"60 779 OFFCURVE",
"157 779 CURVE SMOOTH",
"342 779 OFFCURVE",
"555 936 OFFCURVE",
"668 1173 CURVE",
"695 1232 OFFCURVE",
"706 1288 OFFCURVE",
"704 1310 CURVE",
"704 1322 OFFCURVE",
"702 1328 OFFCURVE",
"696 1328 CURVE SMOOTH",
"691 1328 OFFCURVE",
"687 1321 OFFCURVE",
"677 1298 CURVE SMOOTH",
"585 1086 OFFCURVE",
"287 809 OFFCURVE",
"132 809 CURVE SMOOTH",
"74 809 OFFCURVE",
"32 844 OFFCURVE",
"30 910 CURVE",
"22 1089 OFFCURVE",
"359 1371 OFFCURVE",
"669 1371 CURVE SMOOTH",
"793 1371 OFFCURVE",
"866 1336 OFFCURVE",
"871 1247 CURVE",
"873 1172 OFFCURVE",
"807 1070 OFFCURVE",
"530 809 CURVE",
"155 449 OFFCURVE",
"17 221 OFFCURVE",
"22 82 CURVE SMOOTH {name = hr01;}",
"24 33 OFFCURVE",
"57 -2 OFFCURVE",
"121 -2 CURVE SMOOTH"
);
}
);
width = 1032;
}
);
leftKerningGroup = U;
rightKerningGroup = U;
unicode = 0055;
},
{
glyphname = V;
lastChange = "2022-05-18 03:32:05 +0000";
layers = (
{
anchors = (
{
name = bottom;
position = "{788, 0}";
},
{
name = top;
position = "{1239, 1388}";
}
);
layerId = master01;
paths = (
{
closed = 1;
nodes = (
"21 -43 OFFCURVE",
"49 -33 OFFCURVE",
"92 -6 CURVE SMOOTH {name = hr00;}",
"673 367 OFFCURVE",
"1127 686 OFFCURVE",
"1423 940 CURVE",
"1456 865 OFFCURVE",
"1524 813 OFFCURVE",
"1607 813 CURVE SMOOTH",
"1626 813 OFFCURVE",
"1648 817 OFFCURVE",
"1658 822 CURVE SMOOTH",
"1672 828 OFFCURVE",
"1678 834 OFFCURVE",
"1678 840 CURVE SMOOTH",
"1678 846 OFFCURVE",
"1672 847 OFFCURVE",
"1664 847 CURVE SMOOTH",
"1658 847 OFFCURVE",
"1653 845 OFFCURVE",
"1642 841 CURVE SMOOTH",
"1634 838 OFFCURVE",
"1623 836 OFFCURVE",
"1609 836 CURVE SMOOTH",
"1554 836 OFFCURVE",
"1485 878 OFFCURVE",
"1456 968 CURVE",
"1694 1176 OFFCURVE",
"1822 1340 OFFCURVE",
"1822 1453 CURVE SMOOTH",
"1822 1510 OFFCURVE",
"1789 1534 OFFCURVE",
"1746 1534 CURVE SMOOTH",
"1593 1534 OFFCURVE",
"1402 1282 OFFCURVE",
"1402 1044 CURVE SMOOTH",
"1402 1035 OFFCURVE",
"1402 1027 OFFCURVE",
"1403 1018 CURVE",
"1046 702 OFFCURVE",
"525 312 OFFCURVE",
"212 102 CURVE",
"401 282 OFFCURVE",
"544 431 OFFCURVE",
"768 777 CURVE",
"972 1089 OFFCURVE",
"989 1191 OFFCURVE",
"1066 1267 CURVE",
"1102 1301 OFFCURVE",
"1123 1316 OFFCURVE",
"1135 1324 CURVE SMOOTH",
"1149 1333 OFFCURVE",
"1162 1337 OFFCURVE",
"1161 1347 CURVE SMOOTH",
"1161 1353 OFFCURVE",
"1153 1357 OFFCURVE",
"1148 1357 CURVE SMOOTH",
"1126 1357 OFFCURVE",
"1062 1302 OFFCURVE",
"1034 1277 CURVE",
"759 1021 OFFCURVE",
"603 968 OFFCURVE",
"522 968 CURVE SMOOTH",
"489 968 OFFCURVE",
"473 982 OFFCURVE",
"473 1003 CURVE",
"472 1023 OFFCURVE",
"494 1047 OFFCURVE",
"556 1109 CURVE SMOOTH",
"621 1176 OFFCURVE",
"671 1267 OFFCURVE",
"669 1322 CURVE SMOOTH",
"665 1398 OFFCURVE",
"589 1436 OFFCURVE",
"483 1436 CURVE SMOOTH",
"384 1436 OFFCURVE",
"273 1394 OFFCURVE",
"204 1338 CURVE",
"190 1328 OFFCURVE",
"179 1318 OFFCURVE",
"180 1306 CURVE SMOOTH",
"180 1300 OFFCURVE",
"183 1295 OFFCURVE",
"191 1295 CURVE SMOOTH",
"198 1295 OFFCURVE",
"206 1302 OFFCURVE",
"216 1311 CURVE SMOOTH",
"285 1368 OFFCURVE",
"375 1415 OFFCURVE",
"481 1415 CURVE SMOOTH",
"541 1415 OFFCURVE",
"598 1399 OFFCURVE",
"600 1349 CURVE SMOOTH",
"602 1310 OFFCURVE",
"538 1244 OFFCURVE",
"498 1202 CURVE SMOOTH",
"433 1135 OFFCURVE",
"402 1086 OFFCURVE",
"404 1034 CURVE SMOOTH",
"407 975 OFFCURVE",
"459 942 OFFCURVE",
"519 942 CURVE SMOOTH",
"602 942 OFFCURVE",
"716 995 OFFCURVE",
"837 1081 CURVE",
"729 962 OFFCURVE",
"587 771 OFFCURVE",
"460 563 CURVE",
"274 263 OFFCURVE",
"148 67 OFFCURVE",
"49 0 CURVE SMOOTH",
"37 -9 OFFCURVE",
"22 -14 OFFCURVE",
"16 -18 CURVE",
"4 -23 OFFCURVE",
"0 -27 OFFCURVE",
"0 -32 CURVE SMOOTH",
"0 -38 OFFCURVE",
"6 -43 OFFCURVE",
"13 -43 CURVE SMOOTH"
);
},
{
closed = 1;
nodes = (
"1442 1064 LINE SMOOTH",
"1442 1295 OFFCURVE",
"1610 1509 OFFCURVE",
"1746 1509 CURVE SMOOTH",
"1762 1509 OFFCURVE",
"1787 1493 OFFCURVE",
"1787 1465 CURVE SMOOTH",
"1787 1392 OFFCURVE",
"1645 1237 OFFCURVE",
"1442 1053 CURVE"
);
}
);
width = 1029;
}
);
leftKerningGroup = V;
rightKerningGroup = V;
unicode = 0056;
},
{
glyphname = Vturned;
lastChange = "2022-05-18 03:32:05 +0000";
layers = (
{
anchors = (
{
name = bottom;
position = "{484, 0}";
},
{
name = top;
position = "{935, 1388}";
}
);
layerId = master01;
paths = (
{
closed = 1;
nodes = (
"1702 1431 OFFCURVE",
"1674 1421 OFFCURVE",
"1631 1394 CURVE SMOOTH {name = hr00;}",
"1050 1021 OFFCURVE",
"596 702 OFFCURVE",
"300 448 CURVE",
"267 523 OFFCURVE",
"199 575 OFFCURVE",
"116 575 CURVE SMOOTH",
"97 575 OFFCURVE",
"75 571 OFFCURVE",
"65 566 CURVE SMOOTH",
"51 560 OFFCURVE",
"45 554 OFFCURVE",
"45 548 CURVE SMOOTH",
"45 542 OFFCURVE",
"51 541 OFFCURVE",
"59 541 CURVE SMOOTH",
"65 541 OFFCURVE",
"70 543 OFFCURVE",
"81 547 CURVE SMOOTH",
"89 550 OFFCURVE",
"100 552 OFFCURVE",
"114 552 CURVE SMOOTH",
"169 552 OFFCURVE",
"238 510 OFFCURVE",
"267 420 CURVE",
"29 212 OFFCURVE",
"-99 48 OFFCURVE",
"-99 -65 CURVE SMOOTH",
"-99 -122 OFFCURVE",
"-66 -146 OFFCURVE",
"-23 -146 CURVE SMOOTH",
"130 -146 OFFCURVE",
"321 106 OFFCURVE",
"321 344 CURVE SMOOTH",
"321 353 OFFCURVE",
"321 361 OFFCURVE",
"320 370 CURVE",
"677 686 OFFCURVE",
"1198 1076 OFFCURVE",
"1511 1286 CURVE",
"1322 1106 OFFCURVE",
"1179 957 OFFCURVE",
"955 611 CURVE",
"751 299 OFFCURVE",
"734 197 OFFCURVE",
"657 121 CURVE",
"621 87 OFFCURVE",
"600 72 OFFCURVE",
"588 64 CURVE SMOOTH",
"574 55 OFFCURVE",
"561 51 OFFCURVE",
"562 41 CURVE SMOOTH",
"562 35 OFFCURVE",
"570 31 OFFCURVE",
"575 31 CURVE SMOOTH",
"597 31 OFFCURVE",
"661 86 OFFCURVE",
"689 111 CURVE",
"964 367 OFFCURVE",
"1120 420 OFFCURVE",
"1201 420 CURVE SMOOTH",
"1234 420 OFFCURVE",
"1250 406 OFFCURVE",
"1250 385 CURVE",
"1251 365 OFFCURVE",
"1229 341 OFFCURVE",
"1167 279 CURVE SMOOTH",
"1102 212 OFFCURVE",
"1052 121 OFFCURVE",
"1054 66 CURVE SMOOTH",
"1058 -10 OFFCURVE",
"1134 -48 OFFCURVE",
"1240 -48 CURVE SMOOTH",
"1339 -48 OFFCURVE",
"1450 -6 OFFCURVE",
"1519 50 CURVE",
"1533 60 OFFCURVE",
"1544 70 OFFCURVE",
"1543 82 CURVE SMOOTH",
"1543 88 OFFCURVE",
"1540 93 OFFCURVE",
"1532 93 CURVE SMOOTH",
"1525 93 OFFCURVE",
"1517 86 OFFCURVE",
"1507 77 CURVE SMOOTH",
"1438 20 OFFCURVE",
"1348 -27 OFFCURVE",
"1242 -27 CURVE SMOOTH",
"1182 -27 OFFCURVE",
"1125 -11 OFFCURVE",
"1123 39 CURVE SMOOTH",
"1121 78 OFFCURVE",
"1185 144 OFFCURVE",
"1225 186 CURVE SMOOTH",
"1290 253 OFFCURVE",
"1321 302 OFFCURVE",
"1319 354 CURVE SMOOTH",
"1316 413 OFFCURVE",
"1264 446 OFFCURVE",
"1204 446 CURVE SMOOTH",
"1121 446 OFFCURVE",
"1007 393 OFFCURVE",
"886 307 CURVE",
"994 426 OFFCURVE",
"1136 617 OFFCURVE",
"1263 825 CURVE",
"1449 1125 OFFCURVE",
"1575 1321 OFFCURVE",
"1674 1388 CURVE SMOOTH",
"1686 1397 OFFCURVE",
"1701 1402 OFFCURVE",
"1707 1406 CURVE",
"1719 1411 OFFCURVE",
"1723 1415 OFFCURVE",
"1723 1420 CURVE SMOOTH",
"1723 1426 OFFCURVE",
"1717 1431 OFFCURVE",
"1710 1431 CURVE SMOOTH"
);
},
{
closed = 1;
nodes = (
"281 324 LINE SMOOTH",
"281 93 OFFCURVE",
"113 -121 OFFCURVE",
"-23 -121 CURVE SMOOTH",
"-39 -121 OFFCURVE",
"-64 -105 OFFCURVE",
"-64 -77 CURVE SMOOTH",
"-64 -4 OFFCURVE",
"78 151 OFFCURVE",
"281 335 CURVE"
);
}
);
width = 1461;
}
);
leftKerningGroup = Vturned;
rightKerningGroup = Vturned;
unicode = 0245;
},
{
glyphname = W;
lastChange = "2022-05-18 03:32:05 +0000";
layers = (
{
anchors = (
{
name = bottom;
position = "{753, 0}";
},
{
name = top;
position = "{2215, 1474}";
}
);
layerId = master01;
paths = (
{
closed = 1;
nodes = (
"367 -43 OFFCURVE",
"426 -13 OFFCURVE",
"475 9 CURVE SMOOTH",
"597 64 OFFCURVE",
"770 190 OFFCURVE",
"937 341 CURVE SMOOTH",
"1308 677 OFFCURVE",
"1507 891 OFFCURVE",
"1657 1034 CURVE",
"1741 1112 OFFCURVE",
"1834 1181 OFFCURVE",
"1907 1236 CURVE",
"1803 1111 OFFCURVE",
"1607 869 OFFCURVE",
"1552 796 CURVE",
"1462 671 OFFCURVE",
"1332 466 OFFCURVE",
"1248 316 CURVE SMOOTH",
"1097 47 OFFCURVE",
"1081 28 OFFCURVE",
"982 -5 CURVE SMOOTH",
"966 -10 OFFCURVE",
"953 -17 OFFCURVE",
"953 -27 CURVE SMOOTH",
"953 -39 OFFCURVE",
"961 -43 OFFCURVE",
"972 -43 CURVE SMOOTH",
"1005 -43 OFFCURVE",
"1132 19 OFFCURVE",
"1278 171 CURVE SMOOTH",
"1599 506 OFFCURVE",
"1760 658 OFFCURVE",
"1947 838 CURVE SMOOTH",
"2397 1269 OFFCURVE",
"2608 1379 OFFCURVE",
"2773 1379 CURVE SMOOTH",
"2862 1379 OFFCURVE",
"2949 1354 OFFCURVE",
"2949 1269 CURVE SMOOTH",
"2949 1154 OFFCURVE",
"2829 1096 OFFCURVE",
"2748 1096 CURVE SMOOTH",
"2713 1096 OFFCURVE",
"2634 1115 OFFCURVE",
"2625 1164 CURVE SMOOTH",
"2620 1192 OFFCURVE",
"2616 1198 OFFCURVE",
"2598 1198 CURVE SMOOTH",
"2583 1198 OFFCURVE",
"2573 1187 OFFCURVE",
"2573 1165 CURVE SMOOTH",
"2573 1121 OFFCURVE",
"2675 1076 OFFCURVE",
"2750 1076 CURVE SMOOTH",
"2886 1076 OFFCURVE",
"3003 1155 OFFCURVE",
"3003 1271 CURVE SMOOTH",
"3003 1362 OFFCURVE",
"2918 1410 OFFCURVE",
"2785 1410 CURVE SMOOTH",
"2582 1410 OFFCURVE",
"2340 1246 OFFCURVE",
"2032 955 CURVE SMOOTH",
"1611 557 OFFCURVE",
"1544 489 OFFCURVE",
"1257 190 CURVE",
"1350 310 OFFCURVE",
"1443 427 OFFCURVE",
"1480 479 CURVE",
"1643 701 OFFCURVE",
"1821 1034 OFFCURVE",
"1943 1229 CURVE",
"1990 1301 OFFCURVE",
"2060 1367 OFFCURVE",
"2112 1393 CURVE SMOOTH",
"2160 1417 OFFCURVE",
"2169 1422 OFFCURVE",
"2169 1432 CURVE SMOOTH",
"2169 1438 OFFCURVE",
"2166 1446 OFFCURVE",
"2154 1446 CURVE SMOOTH",
"2146 1446 OFFCURVE",
"2123 1435 OFFCURVE",
"2049 1382 CURVE",
"1983 1333 OFFCURVE",
"1740 1166 OFFCURVE",
"1213 644 CURVE",
"782 219 OFFCURVE",
"644 130 OFFCURVE",
"490 43 CURVE {name = hr00;}",
"731 249 OFFCURVE",
"933 445 OFFCURVE",
"1190 803 CURVE SMOOTH",
"1479 1204 OFFCURVE",
"1527 1265 OFFCURVE",
"1607 1346 CURVE",
"1641 1383 OFFCURVE",
"1664 1395 OFFCURVE",
"1678 1403 CURVE",
"1691 1414 OFFCURVE",
"1705 1417 OFFCURVE",
"1705 1427 CURVE SMOOTH",
"1705 1434 OFFCURVE",
"1697 1436 OFFCURVE",
"1687 1436 CURVE SMOOTH",
"1672 1436 OFFCURVE",
"1639 1419 OFFCURVE",
"1612 1392 CURVE SMOOTH",
"1578 1360 OFFCURVE",
"1463 1245 OFFCURVE",
"1412 1196 CURVE SMOOTH",
"1226 1017 OFFCURVE",
"1095 880 OFFCURVE",
"970 724 CURVE SMOOTH",
"832 551 OFFCURVE",
"747 432 OFFCURVE",
"640 275 CURVE SMOOTH",
"480 40 OFFCURVE",
"426 6 OFFCURVE",
"363 -3 CURVE",
"326 -13 OFFCURVE",
"318 -18 OFFCURVE",
"318 -28 CURVE SMOOTH",
"318 -36 OFFCURVE",
"326 -43 OFFCURVE",
"342 -43 CURVE SMOOTH"
);
},
{
closed = 1;
nodes = (
"22 881 OFFCURVE",
"35 890 OFFCURVE",
"35 907 CURVE SMOOTH",
"35 948 OFFCURVE",
"65 1003 OFFCURVE",
"99 1044 CURVE",
"198 1168 OFFCURVE",
"383 1249 OFFCURVE",
"540 1249 CURVE SMOOTH",
"620 1249 OFFCURVE",
"672 1239 OFFCURVE",
"760 1210 CURVE SMOOTH",
"892 1167 OFFCURVE",
"975 1147 OFFCURVE",
"1085 1147 CURVE SMOOTH",
"1222 1147 OFFCURVE",
"1355 1188 OFFCURVE",
"1503 1324 CURVE SMOOTH",
"1516 1335 OFFCURVE",
"1519 1339 OFFCURVE",
"1519 1345 CURVE SMOOTH",
"1519 1349 OFFCURVE",
"1516 1352 OFFCURVE",
"1509 1352 CURVE SMOOTH",
"1506 1352 OFFCURVE",
"1496 1344 OFFCURVE",
"1477 1328 CURVE SMOOTH",
"1374 1243 OFFCURVE",
"1246 1204 OFFCURVE",
"1174 1204 CURVE SMOOTH",
"1087 1204 OFFCURVE",
"1032 1222 OFFCURVE",
"906 1267 CURVE",
"807 1301 OFFCURVE",
"695 1328 OFFCURVE",
"594 1328 CURVE SMOOTH",
"442 1328 OFFCURVE",
"257 1263 OFFCURVE",
"112 1109 CURVE SMOOTH",
"25 1015 OFFCURVE",
"0 925 OFFCURVE",
"0 897 CURVE SMOOTH",
"0 890 OFFCURVE",
"4 881 OFFCURVE",
"14 881 CURVE SMOOTH"
);
}
);
width = 1722;
}
);
leftKerningGroup = W;
rightKerningGroup = W;
unicode = 0057;
},
{
glyphname = X;
lastChange = "2022-05-18 03:32:05 +0000";
layers = (
{
anchors = (
{
name = bottom;
position = "{1044, 0}";
},
{
name = top;
position = "{1643, 1388}";
}
);
layerId = master01;
paths = (
{
closed = 1;
nodes = (
"409 -2 OFFCURVE",
"752 190 OFFCURVE",
"1045 548 CURVE",
"990 446 OFFCURVE",
"948 318 OFFCURVE",
"945 213 CURVE SMOOTH",
"942 70 OFFCURVE",
"1031 -2 OFFCURVE",
"1187 -2 CURVE SMOOTH",
"1424 -2 OFFCURVE",
"1752 270 OFFCURVE",
"1759 554 CURVE SMOOTH",
"1762 669 OFFCURVE",
"1700 736 OFFCURVE",
"1609 736 CURVE SMOOTH {name = hr03;}",
"1497 736 OFFCURVE",
"1386 635 OFFCURVE",
"1384 512 CURVE SMOOTH",
"1383 441 OFFCURVE",
"1413 404 OFFCURVE",
"1441 392 CURVE",
"1453 388 OFFCURVE",
"1466 386 OFFCURVE",
"1472 398 CURVE SMOOTH",
"1478 408 OFFCURVE",
"1475 418 OFFCURVE",
"1463 427 CURVE SMOOTH",
"1433 448 OFFCURVE",
"1425 481 OFFCURVE",
"1426 514 CURVE SMOOTH",
"1428 616 OFFCURVE",
"1512 711 OFFCURVE",
"1603 711 CURVE SMOOTH",
"1674 711 OFFCURVE",
"1725 658 OFFCURVE",
"1722 544 CURVE SMOOTH",
"1715 245 OFFCURVE",
"1382 22 OFFCURVE",
"1196 22 CURVE SMOOTH",
"1124 22 OFFCURVE",
"1048 49 OFFCURVE",
"1050 178 CURVE",
"1054 279 OFFCURVE",
"1138 502 OFFCURVE",
"1246 683 CURVE",
"1304 766 OFFCURVE",
"1345 808 OFFCURVE",
"1416 885 CURVE",
"1700 1174 OFFCURVE",
"1986 1393 OFFCURVE",
"2230 1393 CURVE SMOOTH",
"2241 1393 OFFCURVE",
"2253 1390 OFFCURVE",
"2263 1387 CURVE",
"2248 1377 OFFCURVE",
"2235 1356 OFFCURVE",
"2235 1336 CURVE",
"2233 1311 OFFCURVE",
"2249 1280 OFFCURVE",
"2278 1280 CURVE SMOOTH",
"2304 1280 OFFCURVE",
"2330 1301 OFFCURVE",
"2332 1342 CURVE",
"2333 1390 OFFCURVE",
"2290 1424 OFFCURVE",
"2227 1424 CURVE SMOOTH",
"1982 1424 OFFCURVE",
"1656 1200 OFFCURVE",
"1287 784 CURVE {name = hr04;}",
"1335 888 OFFCURVE",
"1377 1030 OFFCURVE",
"1381 1146 CURVE",
"1386 1373 OFFCURVE",
"1278 1436 OFFCURVE",
"1123 1436 CURVE SMOOTH {name = hr05;}",
"852 1436 OFFCURVE",
"490 1073 OFFCURVE",
"485 862 CURVE",
"484 785 OFFCURVE",
"528 748 OFFCURVE",
"600 748 CURVE SMOOTH",
"864 748 OFFCURVE",
"1172 1114 OFFCURVE",
"1170 1302 CURVE",
"1169 1329 OFFCURVE",
"1160 1335 OFFCURVE",
"1155 1335 CURVE SMOOTH",
"1150 1335 OFFCURVE",
"1146 1332 OFFCURVE",
"1140 1319 CURVE SMOOTH",
"1005 986 OFFCURVE",
"774 772 OFFCURVE",
"606 772 CURVE SMOOTH",
"545 772 OFFCURVE",
"514 798 OFFCURVE",
"516 862 CURVE SMOOTH",
"521 1054 OFFCURVE",
"854 1410 OFFCURVE",
"1125 1410 CURVE SMOOTH",
"1243 1410 OFFCURVE",
"1310 1352 OFFCURVE",
"1307 1229 CURVE SMOOTH",
"1304 1117 OFFCURVE",
"1197 870 OFFCURVE",
"1104 691 CURVE",
"862 318 OFFCURVE",
"439 26 OFFCURVE",
"231 26 CURVE SMOOTH",
"124 26 OFFCURVE",
"41 68 OFFCURVE",
"41 157 CURVE SMOOTH",
"41 163 LINE",
"54 154 OFFCURVE",
"71 153 OFFCURVE",
"88 153 CURVE SMOOTH",
"118 153 OFFCURVE",
"145 177 OFFCURVE",
"145 203 CURVE SMOOTH",
"146 235 OFFCURVE",
"118 249 OFFCURVE",
"96 249 CURVE SMOOTH",
"55 249 OFFCURVE",
"3 225 OFFCURVE",
"1 165 CURVE",
"-1 60 OFFCURVE",
"104 -2 OFFCURVE",
"225 -2 CURVE SMOOTH {name = hr01;}"
);
}
);
width = 1743;
}
);
leftKerningGroup = X;
rightKerningGroup = X;
unicode = 0058;
userData = {
KernOnName = X;
};
},
{
glyphname = Y;
lastChange = "2022-05-18 03:32:05 +0000";
layers = (
{
anchors = (
{
name = bottom;
position = "{1276, 230}";
},
{
name = top;
position = "{1516, 1392}";
},
{
name = topleft;
position = "{348, 1388}";
}
);
layerId = master01;
paths = (
{
closed = 1;
nodes = (
"610 -230 OFFCURVE",
"1009 72 OFFCURVE",
"1283 586 CURVE",
"1485 968 OFFCURVE",
"1660 1188 OFFCURVE",
"1825 1253 CURVE",
"1854 1263 LINE",
"1867 1266 OFFCURVE",
"1870 1271 OFFCURVE",
"1870 1275 CURVE SMOOTH",
"1870 1282 OFFCURVE",
"1865 1287 OFFCURVE",
"1853 1287 CURVE SMOOTH",
"1800 1287 OFFCURVE",
"1672 1221 OFFCURVE",
"1528 1058 CURVE",
"1047 522 OFFCURVE",
"828 408 OFFCURVE",
"741 408 CURVE SMOOTH",
"694 408 OFFCURVE",
"674 440 OFFCURVE",
"674 479 CURVE SMOOTH",
"674 552 OFFCURVE",
"776 672 OFFCURVE",
"937 829 CURVE",
"1184 1055 OFFCURVE",
"1239 1183 OFFCURVE",
"1239 1287 CURVE SMOOTH",
"1239 1393 OFFCURVE",
"1127 1435 OFFCURVE",
"992 1435 CURVE SMOOTH",
"662 1435 OFFCURVE",
"265 1108 OFFCURVE",
"265 886 CURVE SMOOTH",
"265 815 OFFCURVE",
"304 768 OFFCURVE",
"383 768 CURVE SMOOTH",
"587 768 OFFCURVE",
"961 1114 OFFCURVE",
"941 1301 CURVE",
"939 1311 OFFCURVE",
"934 1318 OFFCURVE",
"930 1318 CURVE SMOOTH",
"927 1318 OFFCURVE",
"926 1316 OFFCURVE",
"920 1304 CURVE",
"899 1231 OFFCURVE",
"594 810 OFFCURVE",
"385 810 CURVE SMOOTH",
"323 810 OFFCURVE",
"294 841 OFFCURVE",
"294 895 CURVE SMOOTH",
"294 1086 OFFCURVE",
"682 1407 OFFCURVE",
"992 1407 CURVE SMOOTH",
"1121 1407 OFFCURVE",
"1188 1371 OFFCURVE",
"1188 1298 CURVE SMOOTH",
"1188 1261 OFFCURVE",
"1163 1218 OFFCURVE",
"951 1010 CURVE",
"774 830 OFFCURVE",
"633 615 OFFCURVE",
"633 490 CURVE SMOOTH",
"633 440 OFFCURVE",
"663 384 OFFCURVE",
"738 384 CURVE SMOOTH",
"824 384 OFFCURVE",
"1001 464 OFFCURVE",
"1327 802 CURVE",
"1233 679 OFFCURVE",
"1121 518 OFFCURVE",
"1021 370 CURVE",
"759 -10 OFFCURVE",
"492 -204 OFFCURVE",
"306 -204 CURVE SMOOTH",
"171 -204 OFFCURVE",
"70 -145 OFFCURVE",
"70 -72 CURVE SMOOTH",
"70 -65 OFFCURVE",
"71 -58 OFFCURVE",
"73 -51 CURVE",
"85 -56 OFFCURVE",
"99 -57 OFFCURVE",
"113 -57 CURVE SMOOTH",
"143 -57 OFFCURVE",
"170 -33 OFFCURVE",
"170 -8 CURVE SMOOTH {name = hr00;}",
"170 25 OFFCURVE",
"140 39 OFFCURVE",
"120 39 CURVE SMOOTH",
"79 39 OFFCURVE",
"30 3 OFFCURVE",
"30 -56 CURVE SMOOTH",
"30 -164 OFFCURVE",
"149 -230 OFFCURVE",
"300 -230 CURVE SMOOTH"
);
}
);
width = 1290;
}
);
leftKerningGroup = Y;
rightKerningGroup = Y;
unicode = 0059;
},
{
glyphname = Z;
lastChange = "2022-05-18 03:32:05 +0000";
layers = (
{
anchors = (
{
name = bottom;
position = "{610, 0}";
},
{
name = center;
position = "{1100, 694}";
},
{
name = top;
position = "{1330, 1446}";
}
);
layerId = master01;
paths = (
{
closed = 1;
nodes = (
"1328 -47 OFFCURVE",
"1520 79 OFFCURVE",
"1520 293 CURVE SMOOTH",
"1520 396 OFFCURVE",
"1436 472 OFFCURVE",
"1321 472 CURVE SMOOTH",
"1310 472 OFFCURVE",
"1300 470 OFFCURVE",
"1290 467 CURVE SMOOTH",
"1270 461 OFFCURVE",
"1236 439 OFFCURVE",
"1246 408 CURVE SMOOTH",
"1254 383 OFFCURVE",
"1285 373 OFFCURVE",
"1314 377 CURVE",
"1343 383 OFFCURVE",
"1370 405 OFFCURVE",
"1372 435 CURVE",
"1455 418 OFFCURVE",
"1491 354 OFFCURVE",
"1491 292 CURVE SMOOTH",
"1491 104 OFFCURVE",
"1282 28 OFFCURVE",
"1013 49 CURVE SMOOTH",
"906 57 OFFCURVE",
"782 96 OFFCURVE",
"653 133 CURVE",
"836 254 OFFCURVE",
"1029 463 OFFCURVE",
"1239 782 CURVE SMOOTH",
"1396 1020 OFFCURVE",
"1613 1269 OFFCURVE",
"1708 1335 CURVE",
"1737 1352 OFFCURVE",
"1745 1359 OFFCURVE",
"1773 1374 CURVE",
"1786 1384 OFFCURVE",
"1791 1392 OFFCURVE",
"1791 1399 CURVE SMOOTH",
"1791 1406 OFFCURVE",
"1785 1409 OFFCURVE",
"1778 1409 CURVE SMOOTH",
"1768 1409 OFFCURVE",
"1757 1406 OFFCURVE",
"1738 1389 CURVE SMOOTH {name = hr03;}",
"1689 1344 OFFCURVE",
"1602 1301 OFFCURVE",
"1518 1301 CURVE SMOOTH",
"1314 1301 OFFCURVE",
"1223 1401 OFFCURVE",
"964 1401 CURVE SMOOTH",
"682 1401 OFFCURVE",
"456 1181 OFFCURVE",
"449 972 CURVE",
"446 912 OFFCURVE",
"492 825 OFFCURVE",
"595 825 CURVE SMOOTH",
"776 825 OFFCURVE",
"970 999 OFFCURVE",
"953 1195 CURVE SMOOTH",
"951 1219 OFFCURVE",
"938 1239 OFFCURVE",
"934 1239 CURVE SMOOTH",
"930 1239 OFFCURVE",
"924 1236 OFFCURVE",
"923 1224 CURVE SMOOTH",
"912 1118 OFFCURVE",
"756 849 OFFCURVE",
"584 849 CURVE SMOOTH {name = hr04;}",
"515 849 OFFCURVE",
"473 911 OFFCURVE",
"475 970 CURVE SMOOTH",
"482 1145 OFFCURVE",
"668 1321 OFFCURVE",
"834 1327 CURVE SMOOTH",
"1077 1336 OFFCURVE",
"1158 1242 OFFCURVE",
"1377 1242 CURVE SMOOTH",
"1464 1242 OFFCURVE",
"1553 1264 OFFCURVE",
"1624 1299 CURVE",
"1340 1095 OFFCURVE",
"1151 873 OFFCURVE",
"966 619 CURVE SMOOTH",
"811 407 OFFCURVE",
"683 254 OFFCURVE",
"569 156 CURVE",
"478 179 OFFCURVE",
"385 197 OFFCURVE",
"297 197 CURVE SMOOTH",
"131 197 OFFCURVE",
"42 146 OFFCURVE",
"40 91 CURVE SMOOTH {name = hr01;}",
"39 42 OFFCURVE",
"113 -2 OFFCURVE",
"259 -2 CURVE SMOOTH",
"361 -2 OFFCURVE",
"469 27 OFFCURVE",
"583 90 CURVE",
"747 30 OFFCURVE",
"914 -47 OFFCURVE",
"1087 -47 CURVE SMOOTH"
);
},
{
closed = 1;
nodes = (
"122 22 OFFCURVE",
"69 59 OFFCURVE",
"71 90 CURVE SMOOTH {name = hr06;}",
"73 141 OFFCURVE",
"180 163 OFFCURVE",
"268 163 CURVE SMOOTH",
"350 163 OFFCURVE",
"433 142 OFFCURVE",
"517 114 CURVE",
"432 52 OFFCURVE",
"350 22 OFFCURVE",
"262 22 CURVE SMOOTH"
);
}
);
width = 1595;
}
);
leftKerningGroup = Z;
rightKerningGroup = Z;
unicode = 005A;
},
{
glyphname = C.alt;
lastChange = "2022-05-18 03:32:05 +0000";
layers = (
{
anchors = (
{
name = bottom;
position = "{542, 0}";
},
{
name = top;
position = "{1614, 1446}";
}
);
layerId = master01;
paths = (
{
closed = 1;
nodes = (
"977 -2 OFFCURVE",
"1294 364 OFFCURVE",
"1294 593 CURVE SMOOTH",
"1294 677 OFFCURVE",
"1233 733 OFFCURVE",
"1121 733 CURVE SMOOTH",
"825 733 OFFCURVE",
"528 395 OFFCURVE",
"536 29 CURVE",
"446 47 OFFCURVE",
"382 108 OFFCURVE",
"382 213 CURVE SMOOTH",
"382 351 OFFCURVE",
"512 552 OFFCURVE",
"691 748 CURVE",
"1122 769 OFFCURVE",
"1716 1099 OFFCURVE",
"1716 1327 CURVE SMOOTH",
"1716 1381 OFFCURVE",
"1673 1401 OFFCURVE",
"1616 1401 CURVE SMOOTH",
"1275 1401 OFFCURVE",
"818 1118 OFFCURVE",
"546 782 CURVE",
"415 811 OFFCURVE",
"343 894 OFFCURVE",
"343 979 CURVE SMOOTH {name = hr04;}",
"343 1225 OFFCURVE",
"722 1446 OFFCURVE",
"988 1446 CURVE SMOOTH",
"1021 1446 OFFCURVE",
"1046 1442 OFFCURVE",
"1061 1442 CURVE SMOOTH",
"1069 1442 OFFCURVE",
"1074 1444 OFFCURVE",
"1074 1450 CURVE SMOOTH",
"1074 1460 OFFCURVE",
"1037 1467 OFFCURVE",
"993 1467 CURVE SMOOTH",
"628 1467 OFFCURVE",
"300 1219 OFFCURVE",
"300 1020 CURVE SMOOTH",
"300 897 OFFCURVE",
"375 794 OFFCURVE",
"528 759 CURVE",
"398 592 OFFCURVE",
"315 414 OFFCURVE",
"315 251 CURVE SMOOTH {name = hr01;}",
"315 95 OFFCURVE",
"419 -2 OFFCURVE",
"575 -2 CURVE SMOOTH"
);
},
{
closed = 1;
nodes = (
"576 24 OFFCURVE",
"566 24 OFFCURVE",
"557 25 CURVE",
"557 26 LINE",
"557 404 OFFCURVE",
"883 706 OFFCURVE",
"1110 706 CURVE SMOOTH",
"1173 706 OFFCURVE",
"1202 683 OFFCURVE",
"1202 628 CURVE SMOOTH",
"1202 440 OFFCURVE",
"856 24 OFFCURVE",
"586 24 CURVE SMOOTH"
);
},
{
closed = 1;
nodes = (
"1008 1086 OFFCURVE",
"1416 1377 OFFCURVE",
"1614 1377 CURVE SMOOTH",
"1661 1377 OFFCURVE",
"1692 1362 OFFCURVE",
"1692 1324 CURVE SMOOTH",
"1692 1160 OFFCURVE",
"1083 813 OFFCURVE",
"716 775 CURVE {name = hr06;}"
);
}
);
width = 1286;
}
);
leftKerningGroup = C.alt;
leftMetricsKey = C;
rightKerningGroup = C.alt;
rightMetricsKey = C;
},
{
glyphname = a;
lastChange = "2022-05-18 03:32:05 +0000";
layers = (
{
anchors = (
{
name = bottom;
position = "{226, 0}";
},
{
name = ogonek;
position = "{522, 10}";
},
{
name = top;
position = "{647, 760}";
}
);
layerId = master01;
paths = (
{
closed = 1;
nodes = (
"182 -2 OFFCURVE",
"328 72 OFFCURVE",
"491 272 CURVE",
"501 268 LINE",
"397 141 OFFCURVE",
"380 106 OFFCURVE",
"380 60 CURVE SMOOTH",
"380 21 OFFCURVE",
"412 -2 OFFCURVE",
"480 -2 CURVE SMOOTH",
"683 -2 OFFCURVE",
"915 308 OFFCURVE",
"990 391 CURVE",
"970 408 LINE",
"903 333 OFFCURVE",
"675 26 OFFCURVE",
"495 26 CURVE SMOOTH",
"474 26 OFFCURVE",
"464 39 OFFCURVE",
"464 58 CURVE SMOOTH",
"464 93 OFFCURVE",
"498 154 OFFCURVE",
"584 255 CURVE",
"921 661 LINE",
"904 658 OFFCURVE",
"864 657 OFFCURVE",
"846 657 CURVE SMOOTH",
"824 657 OFFCURVE",
"799 661 OFFCURVE",
"786 665 CURVE",
"758 630 OFFCURVE",
"730 594 OFFCURVE",
"688 544 CURVE",
"696 564 OFFCURVE",
"700 584 OFFCURVE",
"700 603 CURVE SMOOTH",
"700 654 OFFCURVE",
"645 685 OFFCURVE",
"576 685 CURVE SMOOTH",
"438 685 OFFCURVE",
"283 632 OFFCURVE",
"103 423 CURVE",
"15 323 OFFCURVE",
"-20 218 OFFCURVE",
"-20 129 CURVE SMOOTH",
"-20 47 OFFCURVE",
"17 -2 OFFCURVE",
"103 -2 CURVE SMOOTH {name = hr00;}"
);
},
{
closed = 1;
nodes = (
"76 28 OFFCURVE",
"62 42 OFFCURVE",
"62 80 CURVE SMOOTH",
"62 144 OFFCURVE",
"103 238 OFFCURVE",
"203 358 CURVE SMOOTH",
"377 565 OFFCURVE",
"536 654 OFFCURVE",
"602 654 CURVE SMOOTH",
"637 654 OFFCURVE",
"672 635 OFFCURVE",
"672 594 CURVE SMOOTH",
"672 552 OFFCURVE",
"643 498 OFFCURVE",
"612 452 CURVE",
"587 423 OFFCURVE",
"560 390 OFFCURVE",
"528 351 CURVE SMOOTH",
"332 119 OFFCURVE",
"192 28 OFFCURVE",
"107 28 CURVE SMOOTH"
);
}
);
width = 856;
}
);
leftKerningGroup = a;
rightKerningGroup = a;
unicode = 0061;
userData = {
KernOnName = a;
};
},
{
glyphname = ae;
lastChange = "2022-05-18 03:32:05 +0000";
layers = (
{
anchors = (
{
name = bottom;
position = "{443, 0}";
},
{
name = top;
position = "{869, 760}";
}
);
layerId = master01;
paths = (
{
closed = 1;
nodes = (
"1086 -6 OFFCURVE",
"1314 344 OFFCURVE",
"1364 389 CURVE",
"1342 406 LINE",
"1305 373 OFFCURVE",
"1078 23 OFFCURVE",
"765 23 CURVE SMOOTH",
"708 23 OFFCURVE",
"658 59 OFFCURVE",
"658 122 CURVE SMOOTH",
"658 165 OFFCURVE",
"670 216 OFFCURVE",
"717 291 CURVE",
"1116 423 OFFCURVE",
"1230 541 OFFCURVE",
"1225 619 CURVE SMOOTH",
"1222 654 OFFCURVE",
"1194 685 OFFCURVE",
"1113 685 CURVE SMOOTH",
"1027 685 OFFCURVE",
"908 644 OFFCURVE",
"794 554 CURVE",
"869 661 LINE",
"852 658 OFFCURVE",
"822 657 OFFCURVE",
"804 657 CURVE SMOOTH",
"782 657 OFFCURVE",
"769 661 OFFCURVE",
"755 665 CURVE",
"736 640 OFFCURVE",
"719 614 OFFCURVE",
"698 583 CURVE",
"699 590 OFFCURVE",
"700 596 OFFCURVE",
"700 603 CURVE SMOOTH",
"700 654 OFFCURVE",
"655 685 OFFCURVE",
"585 685 CURVE SMOOTH",
"447 685 OFFCURVE",
"283 632 OFFCURVE",
"103 423 CURVE",
"15 323 OFFCURVE",
"-20 218 OFFCURVE",
"-20 129 CURVE SMOOTH {name = hr01;}",
"-20 47 OFFCURVE",
"17 -2 OFFCURVE",
"103 -2 CURVE SMOOTH",
"230 -2 OFFCURVE",
"458 164 OFFCURVE",
"619 356 CURVE",
"592 303 OFFCURVE",
"567 227 OFFCURVE",
"569 170 CURVE SMOOTH",
"573 71 OFFCURVE",
"624 -6 OFFCURVE",
"754 -6 CURVE SMOOTH {name = hr02;}"
);
},
{
closed = 1;
nodes = (
"77 28 OFFCURVE",
"62 42 OFFCURVE",
"62 80 CURVE SMOOTH",
"62 144 OFFCURVE",
"105 235 OFFCURVE",
"206 356 CURVE SMOOTH",
"380 562 OFFCURVE",
"545 654 OFFCURVE",
"611 654 CURVE SMOOTH",
"647 654 OFFCURVE",
"672 635 OFFCURVE",
"672 594 CURVE SMOOTH",
"672 564 OFFCURVE",
"655 526 OFFCURVE",
"634 489 CURVE",
"604 449 OFFCURVE",
"568 401 OFFCURVE",
"518 341 CURVE SMOOTH",
"322 108 OFFCURVE",
"192 28 OFFCURVE",
"108 28 CURVE SMOOTH"
);
},
{
closed = 1;
nodes = (
"752 343 OFFCURVE",
"765 361 OFFCURVE",
"780 380 CURVE SMOOTH",
"919 562 OFFCURVE",
"1016 661 OFFCURVE",
"1107 661 CURVE SMOOTH",
"1139 661 OFFCURVE",
"1160 644 OFFCURVE",
"1160 605 CURVE SMOOTH",
"1160 517 OFFCURVE",
"1000 416 OFFCURVE",
"740 327 CURVE"
);
}
);
width = 1231;
}
);
leftKerningGroup = a;
leftMetricsKey = a;
rightKerningGroup = e;
rightMetricsKey = e;
unicode = 00E6;
},
{
glyphname = b;
lastChange = "2022-05-18 03:32:05 +0000";
layers = (
{
anchors = (
{
name = bottom;
position = "{77, 0}";
},
{
name = top;
position = "{1053, 1595}";
}
);
layerId = master01;
paths = (
{
closed = 1;
nodes = (
"224 -10 OFFCURVE",
"374 39 OFFCURVE",
"505 185 CURVE",
"530 209 OFFCURVE",
"551 232 OFFCURVE",
"569 256 CURVE",
"573 213 OFFCURVE",
"595 186 OFFCURVE",
"652 186 CURVE SMOOTH",
"755 186 OFFCURVE",
"877 340 OFFCURVE",
"921 389 CURVE",
"900 406 LINE",
"867 364 OFFCURVE",
"740 211 OFFCURVE",
"652 211 CURVE",
"601 213 OFFCURVE",
"596 243 OFFCURVE",
"596 264 CURVE SMOOTH",
"596 275 OFFCURVE",
"595 285 OFFCURVE",
"597 294 CURVE",
"636 354 OFFCURVE",
"660 419 OFFCURVE",
"683 510 CURVE SMOOTH {name = hr03;}",
"688 527 OFFCURVE",
"690 545 OFFCURVE",
"691 563 CURVE SMOOTH",
"692 613 OFFCURVE",
"674 655 OFFCURVE",
"633 655 CURVE SMOOTH",
"586 655 OFFCURVE",
"573 611 OFFCURVE",
"571 579 CURVE SMOOTH",
"570 548 OFFCURVE",
"584 531 OFFCURVE",
"583 492 CURVE SMOOTH",
"583 477 OFFCURVE",
"571 343 OFFCURVE",
"514 274 CURVE",
"416 99 OFFCURVE",
"259 15 OFFCURVE",
"130 15 CURVE SMOOTH",
"93 15 OFFCURVE",
"55 31 OFFCURVE",
"55 100 CURVE SMOOTH",
"55 188 OFFCURVE",
"145 348 OFFCURVE",
"454 727 CURVE",
"975 931 OFFCURVE",
"1311 1313 OFFCURVE",
"1311 1522 CURVE SMOOTH",
"1311 1557 OFFCURVE",
"1286 1579 OFFCURVE",
"1238 1579 CURVE SMOOTH",
"1000 1579 OFFCURVE",
"456 943 OFFCURVE",
"245 628 CURVE SMOOTH",
"95 402 OFFCURVE",
"0 247 OFFCURVE",
"0 119 CURVE SMOOTH",
"0 49 OFFCURVE",
"40 -10 OFFCURVE",
"128 -10 CURVE SMOOTH {name = hr01;}"
);
},
{
closed = 1;
nodes = (
"575 873 LINE SMOOTH",
"855 1211 OFFCURVE",
"1112 1558 OFFCURVE",
"1238 1558 CURVE SMOOTH",
"1262 1558 OFFCURVE",
"1277 1545 OFFCURVE",
"1277 1522 CURVE SMOOTH",
"1277 1364 OFFCURVE",
"910 931 OFFCURVE",
"487 767 CURVE"
);
}
);
width = 787;
}
);
leftKerningGroup = b;
rightKerningGroup = b;
unicode = 0062;
},
{
glyphname = c;
lastChange = "2022-05-18 03:32:05 +0000";
layers = (
{
anchors = (
{
name = bottom;
position = "{176, 0}";
},
{
name = top;
position = "{552, 760}";
}
);
layerId = master01;
paths = (
{
closed = 1;
nodes = (
"548 -6 OFFCURVE",
"800 370 OFFCURVE",
"817 389 CURVE",
"795 406 LINE",
"779 388 OFFCURVE",
"536 23 OFFCURVE",
"213 23 CURVE SMOOTH",
"145 23 OFFCURVE",
"97 71 OFFCURVE",
"97 129 CURVE SMOOTH",
"97 187 OFFCURVE",
"119 260 OFFCURVE",
"192 357 CURVE SMOOTH",
"349 562 OFFCURVE",
"474 659 OFFCURVE",
"564 659 CURVE SMOOTH",
"618 659 OFFCURVE",
"640 635 OFFCURVE",
"640 601 CURVE SMOOTH",
"640 597 LINE",
"625 604 OFFCURVE",
"606 609 OFFCURVE",
"589 608 CURVE SMOOTH",
"548 606 OFFCURVE",
"513 578 OFFCURVE",
"514 541 CURVE SMOOTH",
"515 502 OFFCURVE",
"548 482 OFFCURVE",
"579 482 CURVE SMOOTH",
"631 482 OFFCURVE",
"688 535 OFFCURVE",
"685 592 CURVE SMOOTH",
"683 635 OFFCURVE",
"653 682 OFFCURVE",
"564 685 CURVE SMOOTH",
"447 689 OFFCURVE",
"269 629 OFFCURVE",
"124 459 CURVE SMOOTH",
"40 359 OFFCURVE",
"0 261 OFFCURVE",
"0 174 CURVE SMOOTH",
"0 74 OFFCURVE",
"65 -6 OFFCURVE",
"207 -6 CURVE SMOOTH {name = hr00;}"
);
}
);
width = 684;
}
);
leftKerningGroup = o;
rightKerningGroup = c;
unicode = 0063;
},
{
glyphname = d;
lastChange = "2022-05-18 03:32:05 +0000";
layers = (
{
anchors = (
{
name = _stemr;
position = "{1206, 1191}";
},
{
name = bottom;
position = "{127, 0}";
},
{
name = center;
position = "{387, 340}";
},
{
name = top;
position = "{620, 854}";
},
{
name = topright;
position = "{1580, 1121}";
}
);
layerId = master01;
paths = (
{
closed = 1;
nodes = (
"209 -2 OFFCURVE",
"337 70 OFFCURVE",
"518 272 CURVE",
"526 268 LINE",
"445 171 OFFCURVE",
"407 111 OFFCURVE",
"406 66 CURVE SMOOTH",
"406 26 OFFCURVE",
"431 -2 OFFCURVE",
"497 -2 CURVE SMOOTH",
"733 -2 OFFCURVE",
"994 347 OFFCURVE",
"1037 389 CURVE",
"1015 406 LINE",
"977 368 OFFCURVE",
"734 28 OFFCURVE",
"513 28 CURVE SMOOTH",
"493 28 OFFCURVE",
"488 36 OFFCURVE",
"488 55 CURVE SMOOTH",
"488 89 OFFCURVE",
"528 147 OFFCURVE",
"605 250 CURVE",
"1555 1582 LINE",
"1538 1580 OFFCURVE",
"1523 1579 OFFCURVE",
"1512 1579 CURVE SMOOTH",
"1477 1579 OFFCURVE",
"1447 1587 OFFCURVE",
"1428 1595 CURVE",
"1137 1187 OFFCURVE",
"882 817 OFFCURVE",
"722 586 CURVE",
"722 592 OFFCURVE",
"723 597 OFFCURVE",
"723 603 CURVE SMOOTH",
"723 658 OFFCURVE",
"656 685 OFFCURVE",
"601 685 CURVE SMOOTH",
"470 685 OFFCURVE",
"306 632 OFFCURVE",
"126 423 CURVE",
"38 323 OFFCURVE",
"1 218 OFFCURVE",
"1 129 CURVE SMOOTH",
"1 47 OFFCURVE",
"44 -2 OFFCURVE",
"128 -2 CURVE SMOOTH {name = hr00;}"
);
},
{
closed = 1;
nodes = (
"104 28 OFFCURVE",
"85 42 OFFCURVE",
"85 80 CURVE SMOOTH",
"85 144 OFFCURVE",
"128 235 OFFCURVE",
"228 356 CURVE",
"403 562 OFFCURVE",
"552 654 OFFCURVE",
"617 654 CURVE SMOOTH",
"654 654 OFFCURVE",
"693 635 OFFCURVE",
"693 594 CURVE SMOOTH",
"693 570 OFFCURVE",
"684 542 OFFCURVE",
"670 513 CURVE",
"612 430 OFFCURVE",
"572 373 OFFCURVE",
"554 351 CURVE SMOOTH",
"493 277 OFFCURVE",
"435 222 OFFCURVE",
"383 173 CURVE",
"260 62 OFFCURVE",
"188 28 OFFCURVE",
"135 28 CURVE SMOOTH"
);
}
);
width = 904;
}
);
leftKerningGroup = d;
leftMetricsKey = o;
rightKerningGroup = d;
unicode = 0064;
userData = {
KernOnName = d;
};
},
{
glyphname = eth;
lastChange = "2022-05-18 03:32:05 +0000";
layers = (
{
layerId = master01;
paths = (
{
closed = 1;
nodes = (
"267 -2 OFFCURVE",
"381 51 OFFCURVE",
"488 147 CURVE",
"475 116 OFFCURVE",
"472 93 OFFCURVE",
"472 71 CURVE SMOOTH",
"472 27 OFFCURVE",
"495 -2 OFFCURVE",
"558 -2 CURVE SMOOTH",
"726 -2 OFFCURVE",
"985 347 OFFCURVE",
"1024 389 CURVE",
"1003 406 LINE",
"959 356 OFFCURVE",
"710 24 OFFCURVE",
"561 24 CURVE SMOOTH",
"520 24 OFFCURVE",
"504 39 OFFCURVE",
"504 70 CURVE SMOOTH",
"504 102 OFFCURVE",
"519 151 OFFCURVE",
"551 209 CURVE",
"644 311 OFFCURVE",
"731 446 OFFCURVE",
"805 609 CURVE SMOOTH",
"882 778 OFFCURVE",
"920 929 OFFCURVE",
"928 1060 CURVE",
"1149 1145 LINE",
"1147 1155 OFFCURVE",
"1145 1163 OFFCURVE",
"1146 1176 CURVE",
"930 1092 LINE",
"930 1110 LINE SMOOTH",
"930 1214 OFFCURVE",
"912 1293 OFFCURVE",
"879 1362 CURVE SMOOTH",
"870 1382 OFFCURVE",
"866 1384 OFFCURVE",
"857 1384 CURVE SMOOTH",
"852 1384 OFFCURVE",
"845 1379 OFFCURVE",
"845 1369 CURVE SMOOTH",
"845 1362 OFFCURVE",
"847 1353 OFFCURVE",
"854 1335 CURVE SMOOTH",
"870 1290 OFFCURVE",
"878 1239 OFFCURVE",
"878 1181 CURVE",
"877 1145 OFFCURVE",
"873 1107 OFFCURVE",
"866 1068 CURVE",
"646 983 LINE",
"649 972 OFFCURVE",
"650 963 OFFCURVE",
"650 953 CURVE",
"859 1033 LINE",
"830 901 OFFCURVE",
"768 750 OFFCURVE",
"679 593 CURVE",
"662 653 OFFCURVE",
"613 685 OFFCURVE",
"538 685 CURVE SMOOTH",
"507 685 OFFCURVE",
"459 681 OFFCURVE",
"409 665 CURVE",
"192 592 OFFCURVE",
"0 340 OFFCURVE",
"0 155 CURVE SMOOTH",
"0 64 OFFCURVE",
"54 -2 OFFCURVE",
"155 -2 CURVE SMOOTH {name = hr00;}"
);
},
{
closed = 1;
nodes = (
"110 26 OFFCURVE",
"82 52 OFFCURVE",
"82 100 CURVE SMOOTH",
"82 172 OFFCURVE",
"116 243 OFFCURVE",
"224 376 CURVE",
"380 573 OFFCURVE",
"480 644 OFFCURVE",
"559 644 CURVE SMOOTH",
"620 644 OFFCURVE",
"651 612 OFFCURVE",
"658 556 CURVE",
"603 462 OFFCURVE",
"538 365 OFFCURVE",
"466 268 CURVE SMOOTH",
"323 75 OFFCURVE",
"249 26 OFFCURVE",
"152 26 CURVE SMOOTH"
);
}
);
width = 891;
}
);
leftKerningGroup = eth;
rightKerningGroup = eth;
unicode = 00F0;
},
{
glyphname = e;
lastChange = "2022-05-18 03:32:05 +0000";
layers = (
{
anchors = (
{
name = bottom;
position = "{205, 0}";
},
{
name = ogonek;
position = "{342, 35}";
},
{
name = top;
position = "{508, 760}";
}
);
layerId = master01;
paths = (
{
closed = 1;
nodes = (
"516 -6 OFFCURVE",
"744 344 OFFCURVE",
"794 389 CURVE",
"773 406 LINE",
"736 373 OFFCURVE",
"509 23 OFFCURVE",
"196 23 CURVE SMOOTH",
"139 23 OFFCURVE",
"90 59 OFFCURVE",
"90 122 CURVE SMOOTH",
"90 165 OFFCURVE",
"102 216 OFFCURVE",
"149 291 CURVE",
"547 423 OFFCURVE",
"661 541 OFFCURVE",
"656 619 CURVE SMOOTH",
"654 654 OFFCURVE",
"626 685 OFFCURVE",
"545 685 CURVE SMOOTH",
"418 685 OFFCURVE",
"219 597 OFFCURVE",
"71 391 CURVE SMOOTH",
"37 344 OFFCURVE",
"-1 242 OFFCURVE",
"1 170 CURVE SMOOTH",
"3 71 OFFCURVE",
"54 -6 OFFCURVE",
"185 -6 CURVE SMOOTH {name = hr00;}"
);
},
{
closed = 1;
nodes = (
"183 343 OFFCURVE",
"196 361 OFFCURVE",
"211 380 CURVE SMOOTH",
"350 562 OFFCURVE",
"448 661 OFFCURVE",
"538 661 CURVE SMOOTH",
"571 661 OFFCURVE",
"590 644 OFFCURVE",
"590 605 CURVE SMOOTH",
"590 517 OFFCURVE",
"431 416 OFFCURVE",
"172 326 CURVE"
);
}
);
width = 661;
}
);
leftKerningGroup = o;
rightKerningGroup = e;
unicode = 0065;
userData = {
KernOnName = e;
};
},
{
glyphname = schwa;
lastChange = "2022-05-18 03:32:05 +0000";
layers = (
{
anchors = (
{
name = bottom;
position = "{285, 0}";
},
{
name = ogonek;
position = "{261, 750}";
},
{
name = top;
position = "{686, 760}";
}
);
layerId = master01;
paths = (
{
closed = 1;
nodes = (
"307 -11 OFFCURVE",
"506 77 OFFCURVE",
"654 283 CURVE SMOOTH",
"688 330 OFFCURVE",
"726 432 OFFCURVE",
"724 504 CURVE SMOOTH",
"722 603 OFFCURVE",
"671 680 OFFCURVE",
"540 680 CURVE SMOOTH {name = hr00;}",
"299 680 OFFCURVE",
"157 447 OFFCURVE",
"107 402 CURVE",
"131 389 LINE",
"168 422 OFFCURVE",
"306 651 OFFCURVE",
"529 651 CURVE SMOOTH",
"586 651 OFFCURVE",
"635 615 OFFCURVE",
"635 552 CURVE SMOOTH",
"635 509 OFFCURVE",
"623 458 OFFCURVE",
"576 383 CURVE",
"178 251 OFFCURVE",
"64 133 OFFCURVE",
"69 55 CURVE SMOOTH",
"71 20 OFFCURVE",
"99 -11 OFFCURVE",
"180 -11 CURVE SMOOTH"
);
},
{
closed = 1;
nodes = (
"154 13 OFFCURVE",
"135 30 OFFCURVE",
"135 69 CURVE SMOOTH",
"135 157 OFFCURVE",
"294 258 OFFCURVE",
"553 348 CURVE",
"542 331 OFFCURVE",
"529 313 OFFCURVE",
"514 294 CURVE SMOOTH",
"375 112 OFFCURVE",
"277 13 OFFCURVE",
"187 13 CURVE SMOOTH"
);
}
);
width = 725;
}
);
leftKerningGroup = schwa;
rightKerningGroup = schwa;
rightMetricsKey = "=|o";
unicode = 0259;
},
{
glyphname = f;
lastChange = "2022-05-18 03:32:05 +0000";
layers = (
{
anchors = (
{
name = bottom;
position = "{341, 0}";
},
{
name = top;
position = "{620, 1341}";
}
);
layerId = master01;
paths = (
{
closed = 1;
nodes = (
"-62 -787 OFFCURVE",
"153 -322 OFFCURVE",
"188 144 CURVE {name = hr00;}",
"229 208 LINE",
"262 184 OFFCURVE",
"303 167 OFFCURVE",
"354 162 CURVE SMOOTH",
"631 133 OFFCURVE",
"773 348 OFFCURVE",
"816 389 CURVE",
"793 405 LINE",
"724 321 OFFCURVE",
"600 171 OFFCURVE",
"355 187 CURVE SMOOTH",
"310 190 OFFCURVE",
"273 207 OFFCURVE",
"244 232 CURVE",
"315 342 LINE",
"727 601 OFFCURVE",
"1266 1210 OFFCURVE",
"1254 1493 CURVE",
"1253 1541 OFFCURVE",
"1225 1579 OFFCURVE",
"1168 1579 CURVE SMOOTH",
"1066 1579 OFFCURVE",
"893 1396 OFFCURVE",
"702 1123 CURVE SMOOTH",
"653 1054 OFFCURVE",
"566 905 OFFCURVE",
"182 319 CURVE",
"174 336 OFFCURVE",
"168 353 OFFCURVE",
"165 368 CURVE",
"198 385 OFFCURVE",
"230 435 OFFCURVE",
"230 465 CURVE SMOOTH",
"230 504 OFFCURVE",
"206 526 OFFCURVE",
"176 526 CURVE SMOOTH",
"142 526 OFFCURVE",
"118 496 OFFCURVE",
"111 453 CURVE SMOOTH",
"106 416 OFFCURVE",
"119 346 OFFCURVE",
"159 284 CURVE",
"68 147 LINE SMOOTH",
"-331 -454 OFFCURVE",
"-400 -581 OFFCURVE",
"-394 -690 CURVE",
"-393 -746 OFFCURVE",
"-351 -787 OFFCURVE",
"-296 -787 CURVE SMOOTH"
);
},
{
closed = 1;
nodes = (
"-316 -762 OFFCURVE",
"-334 -742 OFFCURVE",
"-334 -720 CURVE SMOOTH",
"-334 -634 OFFCURVE",
"-92 -282 OFFCURVE",
"155 94 CURVE",
"108 -419 OFFCURVE",
"-174 -762 OFFCURVE",
"-289 -762 CURVE SMOOTH"
);
},
{
closed = 1;
nodes = (
"557 718 OFFCURVE",
"708 952 OFFCURVE",
"893 1245 CURVE SMOOTH",
"1052 1496 OFFCURVE",
"1120 1556 OFFCURVE",
"1163 1556 CURVE SMOOTH",
"1188 1556 OFFCURVE",
"1208 1536 OFFCURVE",
"1209 1499 CURVE SMOOTH",
"1218 1240 OFFCURVE",
"720 648 OFFCURVE",
"351 398 CURVE"
);
}
);
width = 682;
}
);
leftKerningGroup = f;
rightKerningGroup = f;
unicode = 0066;
userData = {
KernOnName = f;
};
},
{
glyphname = g;
lastChange = "2022-05-18 03:32:05 +0000";
layers = (
{
anchors = (
{
name = bottom;
position = "{350, -487}";
},
{
name = top;
position = "{747, 760}";
}
);
layerId = master01;
paths = (
{
closed = 1;
nodes = (
"-256 -787 OFFCURVE",
"-123 -705 OFFCURVE",
"274 -214 CURVE",
"572 -72 OFFCURVE",
"820 110 OFFCURVE",
"1053 389 CURVE",
"1033 406 LINE",
"822 152 OFFCURVE",
"591 -26 OFFCURVE",
"312 -168 CURVE",
"404 -52 OFFCURVE",
"511 84 OFFCURVE",
"635 246 CURVE",
"957 661 LINE",
"940 658 OFFCURVE",
"900 657 OFFCURVE",
"883 657 CURVE SMOOTH",
"860 657 OFFCURVE",
"835 661 OFFCURVE",
"820 665 CURVE",
"794 629 OFFCURVE",
"767 595 OFFCURVE",
"726 544 CURVE",
"734 564 OFFCURVE",
"738 584 OFFCURVE",
"738 603 CURVE SMOOTH",
"737 654 OFFCURVE",
"681 685 OFFCURVE",
"594 685 CURVE SMOOTH",
"468 685 OFFCURVE",
"297 632 OFFCURVE",
"126 423 CURVE SMOOTH",
"41 323 OFFCURVE",
"7 218 OFFCURVE",
"7 129 CURVE SMOOTH",
"9 47 OFFCURVE",
"48 -2 OFFCURVE",
"132 -2 CURVE SMOOTH {name = hr00;}",
"216 -2 OFFCURVE",
"359 73 OFFCURVE",
"534 272 CURVE",
"542 268 LINE",
"379 64 OFFCURVE",
"248 -100 OFFCURVE",
"139 -233 CURVE",
"-427 -473 OFFCURVE",
"-574 -609 OFFCURVE",
"-570 -720 CURVE SMOOTH",
"-570 -751 OFFCURVE",
"-527 -787 OFFCURVE",
"-471 -787 CURVE SMOOTH"
);
},
{
closed = 1;
nodes = (
"-510 -760 OFFCURVE",
"-537 -735 OFFCURVE",
"-537 -720 CURVE SMOOTH",
"-537 -604 OFFCURVE",
"-366 -480 OFFCURVE",
"104 -276 CURVE",
"-223 -672 OFFCURVE",
"-332 -760 OFFCURVE",
"-468 -760 CURVE SMOOTH"
);
},
{
closed = 1;
nodes = (
"106 28 OFFCURVE",
"92 42 OFFCURVE",
"90 80 CURVE SMOOTH",
"89 144 OFFCURVE",
"133 234 OFFCURVE",
"231 356 CURVE SMOOTH",
"396 562 OFFCURVE",
"557 654 OFFCURVE",
"620 654 CURVE SMOOTH",
"675 654 OFFCURVE",
"709 635 OFFCURVE",
"710 594 CURVE",
"710 550 OFFCURVE",
"679 493 OFFCURVE",
"647 446 CURVE",
"569 351 LINE",
"363 111 OFFCURVE",
"214 28 OFFCURVE",
"139 28 CURVE SMOOTH"
);
}
);
width = 920;
}
);
leftKerningGroup = g;
rightKerningGroup = g;
unicode = 0067;
},
{
glyphname = h;
lastChange = "2022-05-18 03:32:05 +0000";
layers = (
{
layerId = master01;
paths = (
{
closed = 1;
nodes = (
"754 -2 OFFCURVE",
"999 345 OFFCURVE",
"1041 389 CURVE",
"1019 406 LINE",
"984 369 OFFCURVE",
"742 26 OFFCURVE",
"532 26 CURVE SMOOTH",
"496 26 OFFCURVE",
"461 36 OFFCURVE",
"461 49 CURVE SMOOTH",
"461 66 OFFCURVE",
"465 75 OFFCURVE",
"532 147 CURVE SMOOTH",
"755 388 OFFCURVE",
"815 504 OFFCURVE",
"819 584 CURVE SMOOTH",
"821 634 OFFCURVE",
"787 685 OFFCURVE",
"701 685 CURVE SMOOTH",
"658 685 OFFCURVE",
"600 674 OFFCURVE",
"534 632 CURVE",
"439 568 OFFCURVE",
"300 441 OFFCURVE",
"96 207 CURVE",
"91 218 LINE",
"1083 1595 LINE",
"1065 1593 OFFCURVE",
"1050 1591 OFFCURVE",
"1040 1591 CURVE SMOOTH",
"987 1589 OFFCURVE",
"961 1593 OFFCURVE",
"944 1595 CURVE",
"-163 14 LINE",
"-148 18 OFFCURVE",
"-115 24 OFFCURVE",
"-67 24 CURVE SMOOTH",
"-48 24 OFFCURVE",
"-30 23 OFFCURVE",
"-9 19 CURVE {name = hr00;}",
"83 141 LINE",
"279 385 OFFCURVE",
"438 531 OFFCURVE",
"543 603 CURVE",
"605 644 OFFCURVE",
"661 660 OFFCURVE",
"692 660 CURVE SMOOTH",
"729 660 OFFCURVE",
"739 643 OFFCURVE",
"739 624 CURVE SMOOTH",
"739 592 OFFCURVE",
"705 531 OFFCURVE",
"600 413 CURVE SMOOTH",
"404 193 OFFCURVE",
"387 129 OFFCURVE",
"387 75 CURVE SMOOTH",
"387 28 OFFCURVE",
"458 -2 OFFCURVE",
"520 -2 CURVE SMOOTH"
);
}
);
width = 908;
}
);
leftKerningGroup = h;
rightKerningGroup = n;
unicode = 0068;
},
{
glyphname = hbar;
lastChange = "2022-05-18 03:32:05 +0000";
layers = (
{
layerId = master01;
paths = (
{
closed = 1;
nodes = (
"754 -2 OFFCURVE",
"999 345 OFFCURVE",
"1041 389 CURVE",
"1019 406 LINE",
"984 369 OFFCURVE",
"742 26 OFFCURVE",
"532 26 CURVE SMOOTH",
"496 26 OFFCURVE",
"461 36 OFFCURVE",
"461 49 CURVE SMOOTH",
"461 66 OFFCURVE",
"465 75 OFFCURVE",
"532 147 CURVE SMOOTH",
"755 388 OFFCURVE",
"815 504 OFFCURVE",
"819 584 CURVE SMOOTH",
"821 634 OFFCURVE",
"787 685 OFFCURVE",
"701 685 CURVE SMOOTH",
"658 685 OFFCURVE",
"600 674 OFFCURVE",
"534 632 CURVE",
"439 568 OFFCURVE",
"300 441 OFFCURVE",
"96 207 CURVE",
"91 218 LINE",
"782 1178 LINE",
"1056 1178 LINE",
"1058 1186 OFFCURVE",
"1061 1197 OFFCURVE",
"1068 1205 CURVE",
"802 1205 LINE",
"1083 1595 LINE",
"1065 1593 OFFCURVE",
"1050 1591 OFFCURVE",
"1040 1591 CURVE SMOOTH",
"987 1589 OFFCURVE",
"961 1593 OFFCURVE",
"944 1595 CURVE",
"671 1205 LINE",
"550 1205 LINE",
"544 1197 OFFCURVE",
"535 1186 OFFCURVE",
"525 1178 CURVE",
"652 1178 LINE",
"-163 14 LINE",
"-148 18 OFFCURVE",
"-115 24 OFFCURVE",
"-67 24 CURVE SMOOTH",
"-48 24 OFFCURVE",
"-30 23 OFFCURVE",
"-9 19 CURVE {name = hr00;}",
"83 141 LINE",
"279 385 OFFCURVE",
"438 531 OFFCURVE",
"543 603 CURVE",
"605 644 OFFCURVE",
"661 660 OFFCURVE",
"692 660 CURVE SMOOTH",
"729 660 OFFCURVE",
"739 643 OFFCURVE",
"739 624 CURVE SMOOTH",
"739 592 OFFCURVE",
"705 531 OFFCURVE",
"600 413 CURVE SMOOTH",
"404 193 OFFCURVE",
"387 129 OFFCURVE",
"387 75 CURVE SMOOTH",
"387 28 OFFCURVE",
"458 -2 OFFCURVE",
"520 -2 CURVE SMOOTH"
);
}
);
width = 908;
}
);
leftKerningGroup = h;
leftMetricsKey = h;
rightKerningGroup = n;
rightMetricsKey = h;
unicode = 0127;
},
{
glyphname = i;
lastChange = "2022-05-26 11:56:19 +0000";
layers = (
{
anchors = (
{
name = bottom;
position = "{-124, 0}";
}
);
layerId = master01;
paths = (
{
closed = 1;
nodes = (
"275 -2 OFFCURVE",
"549 350 OFFCURVE",
"587 389 CURVE",
"567 407 LINE",
"548 386 OFFCURVE",
"252 26 OFFCURVE",
"73 26 CURVE SMOOTH",
"50 26 OFFCURVE",
"0 25 OFFCURVE",
"0 60 CURVE SMOOTH",
"0 115 OFFCURVE",
"79 218 OFFCURVE",
"469 677 CURVE",
"458 676 OFFCURVE",
"450 675 OFFCURVE",
"427 675 CURVE SMOOTH",
"402 675 OFFCURVE",
"343 676 OFFCURVE",
"331 678 CURVE",
"-24 264 OFFCURVE",
"-80 161 OFFCURVE",
"-80 81 CURVE SMOOTH",
"-80 30 OFFCURVE",
"-26 -2 OFFCURVE",
"56 -2 CURVE SMOOTH"
);
},
{
closed = 1;
nodes = (
"616 876 OFFCURVE",
"667 920 OFFCURVE",
"667 969 CURVE SMOOTH {name = hr02;}",
"667 1004 OFFCURVE",
"643 1032 OFFCURVE",
"606 1032 CURVE SMOOTH",
"551 1032 OFFCURVE",
"506 984 OFFCURVE",
"506 938 CURVE SMOOTH",
"506 902 OFFCURVE",
"530 876 OFFCURVE",
"567 876 CURVE SMOOTH {name = hr00;}"
);
}
);
width = 454;
}
);
leftKerningGroup = i;
rightKerningGroup = i;
unicode = 0069;
userData = {
KernOnName = i;
};
},
{
glyphname = idotless;
lastChange = "2022-05-18 03:32:05 +0000";
layers = (
{
anchors = (
{
name = bottom;
position = "{-124, 0}";
},
{
name = ogonek;
position = "{147, 27}";
},
{
name = top;
position = "{510, 760}";
}
);
layerId = master01;
paths = (
{
closed = 1;
nodes = (
"275 -2 OFFCURVE",
"549 350 OFFCURVE",
"587 389 CURVE",
"567 407 LINE",
"548 386 OFFCURVE",
"252 26 OFFCURVE",
"73 26 CURVE SMOOTH {name = hr00;}",
"50 26 OFFCURVE",
"0 25 OFFCURVE",
"0 60 CURVE SMOOTH",
"0 115 OFFCURVE",
"79 218 OFFCURVE",
"469 677 CURVE",
"458 676 OFFCURVE",
"450 675 OFFCURVE",
"427 675 CURVE SMOOTH",
"402 675 OFFCURVE",
"343 676 OFFCURVE",
"331 678 CURVE",
"-24 264 OFFCURVE",
"-80 161 OFFCURVE",
"-80 81 CURVE SMOOTH",
"-80 30 OFFCURVE",
"-26 -2 OFFCURVE",
"56 -2 CURVE SMOOTH"
);
}
);
width = 454;
}
);
leftKerningGroup = idotless;
rightKerningGroup = idotless;
unicode = 0131;
},
{
glyphname = ij;
lastChange = "2022-05-18 03:32:05 +0000";
layers = (
{
layerId = master01;
paths = (
{
closed = 1;
nodes = (
"-306 -787 OFFCURVE",
"-146 -710 OFFCURVE",
"274 -205 CURVE",
"637 -34 OFFCURVE",
"795 74 OFFCURVE",
"1049 389 CURVE",
"1029 406 LINE",
"795 111 OFFCURVE",
"643 -1 OFFCURVE",
"311 -160 CURVE",
"404 -47 OFFCURVE",
"509 85 OFFCURVE",
"630 242 CURVE SMOOTH",
"779 437 OFFCURVE",
"874 559 OFFCURVE",
"966 677 CURVE",
"957 676 OFFCURVE",
"940 675 OFFCURVE",
"917 675 CURVE SMOOTH",
"892 675 OFFCURVE",
"824 675 OFFCURVE",
"810 677 CURVE",
"806 649 OFFCURVE",
"642 430 OFFCURVE",
"498 246 CURVE",
"393 142 OFFCURVE",
"254 26 OFFCURVE",
"153 26 CURVE SMOOTH",
"130 26 OFFCURVE",
"80 25 OFFCURVE",
"80 60 CURVE SMOOTH",
"80 115 OFFCURVE",
"159 218 OFFCURVE",
"549 677 CURVE",
"538 676 OFFCURVE",
"530 675 OFFCURVE",
"507 675 CURVE SMOOTH",
"482 675 OFFCURVE",
"423 676 OFFCURVE",
"411 678 CURVE",
"56 264 OFFCURVE",
"0 161 OFFCURVE",
"0 81 CURVE SMOOTH",
"0 30 OFFCURVE",
"54 -2 OFFCURVE",
"136 -2 CURVE SMOOTH",
"221 -2 OFFCURVE",
"314 51 OFFCURVE",
"399 119 CURVE",
"370 82 OFFCURVE",
"344 48 OFFCURVE",
"325 25 CURVE SMOOTH",
"247 -74 OFFCURVE",
"179 -160 OFFCURVE",
"116 -236 CURVE",
"-460 -475 OFFCURVE",
"-620 -610 OFFCURVE",
"-620 -720 CURVE SMOOTH",
"-620 -751 OFFCURVE",
"-589 -787 OFFCURVE",
"-531 -787 CURVE SMOOTH"
);
},
{
closed = 1;
nodes = (
"-571 -760 OFFCURVE",
"-587 -735 OFFCURVE",
"-587 -720 CURVE SMOOTH",
"-587 -605 OFFCURVE",
"-399 -481 OFFCURVE",
"82 -277 CURVE",
"-266 -696 OFFCURVE",
"-385 -759 OFFCURVE",
"-528 -760 CURVE SMOOTH"
);
},
{
closed = 1;
nodes = (
"696 873 OFFCURVE",
"747 917 OFFCURVE",
"747 966 CURVE SMOOTH",
"747 1001 OFFCURVE",
"723 1029 OFFCURVE",
"686 1029 CURVE SMOOTH",
"631 1029 OFFCURVE",
"586 981 OFFCURVE",
"586 935 CURVE SMOOTH",
"586 899 OFFCURVE",
"610 873 OFFCURVE",
"647 873 CURVE SMOOTH"
);
},
{
closed = 1;
nodes = (
"1094 873 OFFCURVE",
"1145 917 OFFCURVE",
"1145 966 CURVE SMOOTH",
"1145 1001 OFFCURVE",
"1122 1029 OFFCURVE",
"1085 1029 CURVE SMOOTH",
"1030 1029 OFFCURVE",
"984 981 OFFCURVE",
"984 935 CURVE SMOOTH",
"984 899 OFFCURVE",
"1009 873 OFFCURVE",
"1045 873 CURVE SMOOTH {name = hr00;}"
);
}
);
width = 916;
}
);
leftKerningGroup = y;
rightKerningGroup = j;
rightMetricsKey = j;
unicode = 0133;
},
{
glyphname = ij_acutecomb;
lastChange = "2022-05-18 03:32:05 +0000";
layers = (
{
anchors = (
{
name = top;
position = "{1222, 1149}";
}
);
layerId = master01;
paths = (
{
closed = 1;
nodes = (
"-306 -787 OFFCURVE",
"-146 -710 OFFCURVE",
"274 -205 CURVE",
"637 -34 OFFCURVE",
"795 74 OFFCURVE",
"1049 389 CURVE",
"1029 406 LINE",
"795 111 OFFCURVE",
"643 -1 OFFCURVE",
"311 -160 CURVE",
"404 -47 OFFCURVE",
"509 85 OFFCURVE",
"630 242 CURVE SMOOTH",
"779 437 OFFCURVE",
"874 559 OFFCURVE",
"966 677 CURVE",
"957 676 OFFCURVE",
"940 675 OFFCURVE",
"917 675 CURVE SMOOTH",
"892 675 OFFCURVE",
"824 675 OFFCURVE",
"810 677 CURVE",
"806 649 OFFCURVE",
"642 430 OFFCURVE",
"498 246 CURVE",
"393 142 OFFCURVE",
"254 26 OFFCURVE",
"153 26 CURVE SMOOTH",
"130 26 OFFCURVE",
"80 25 OFFCURVE",
"80 60 CURVE SMOOTH",
"80 115 OFFCURVE",
"159 218 OFFCURVE",
"549 677 CURVE",
"538 676 OFFCURVE",
"530 675 OFFCURVE",
"507 675 CURVE SMOOTH",
"482 675 OFFCURVE",
"423 676 OFFCURVE",
"411 678 CURVE",
"56 264 OFFCURVE",
"0 161 OFFCURVE",
"0 81 CURVE SMOOTH",
"0 30 OFFCURVE",
"54 -2 OFFCURVE",
"136 -2 CURVE SMOOTH",
"221 -2 OFFCURVE",
"314 51 OFFCURVE",
"399 119 CURVE",
"370 82 OFFCURVE",
"344 48 OFFCURVE",
"325 25 CURVE SMOOTH",
"247 -74 OFFCURVE",
"179 -160 OFFCURVE",
"116 -236 CURVE",
"-460 -475 OFFCURVE",
"-620 -610 OFFCURVE",
"-620 -720 CURVE SMOOTH",
"-620 -751 OFFCURVE",
"-589 -787 OFFCURVE",
"-531 -787 CURVE SMOOTH"
);
},
{
closed = 1;
nodes = (
"-571 -760 OFFCURVE",
"-587 -735 OFFCURVE",
"-587 -720 CURVE SMOOTH",
"-587 -605 OFFCURVE",
"-399 -481 OFFCURVE",
"82 -277 CURVE",
"-266 -696 OFFCURVE",
"-385 -759 OFFCURVE",
"-528 -760 CURVE SMOOTH"
);
},
{
closed = 1;
nodes = (
"567 808 OFFCURVE",
"582 816 OFFCURVE",
"606 831 CURVE SMOOTH",
"735 909 OFFCURVE",
"831 1040 OFFCURVE",
"831 1114 CURVE SMOOTH",
"831 1152 OFFCURVE",
"813 1169 OFFCURVE",
"788 1169 CURVE SMOOTH",
"757 1169 OFFCURVE",
"741 1146 OFFCURVE",
"735 1098 CURVE",
"724 1023 OFFCURVE",
"714 986 OFFCURVE",
"695 954 CURVE SMOOTH",
"663 903 OFFCURVE",
"609 862 OFFCURVE",
"570 840 CURVE",
"553 828 OFFCURVE",
"545 826 OFFCURVE",
"545 818 CURVE SMOOTH",
"545 813 OFFCURVE",
"549 808 OFFCURVE",
"557 808 CURVE SMOOTH {name = hr00;}"
);
},
{
closed = 1;
nodes = (
"952 808 OFFCURVE",
"967 816 OFFCURVE",
"991 831 CURVE SMOOTH",
"1120 909 OFFCURVE",
"1216 1040 OFFCURVE",
"1216 1114 CURVE SMOOTH",
"1216 1152 OFFCURVE",
"1198 1169 OFFCURVE",
"1173 1169 CURVE SMOOTH",
"1142 1169 OFFCURVE",
"1126 1146 OFFCURVE",
"1120 1098 CURVE",
"1109 1023 OFFCURVE",
"1099 986 OFFCURVE",
"1080 954 CURVE SMOOTH",
"1048 903 OFFCURVE",
"994 862 OFFCURVE",
"955 840 CURVE",
"938 828 OFFCURVE",
"930 826 OFFCURVE",
"930 818 CURVE SMOOTH",
"930 813 OFFCURVE",
"934 808 OFFCURVE",
"942 808 CURVE SMOOTH {name = hr00;}"
);
}
);
width = 932;
}
);
leftKerningGroup = y;
leftMetricsKey = ij;
rightKerningGroup = j;
},
{
glyphname = j;
lastChange = "2022-05-18 03:32:05 +0000";
layers = (
{
layerId = master01;
paths = (
{
closed = 1;
nodes = (
"-837 -787 OFFCURVE",
"-677 -710 OFFCURVE",
"-257 -205 CURVE",
"106 -34 OFFCURVE",
"264 74 OFFCURVE",
"518 389 CURVE",
"498 406 LINE",
"264 111 OFFCURVE",
"112 -1 OFFCURVE",
"-220 -160 CURVE",
"-127 -47 OFFCURVE",
"-21 85 OFFCURVE",
"99 242 CURVE SMOOTH",
"248 437 OFFCURVE",
"343 559 OFFCURVE",
"435 677 CURVE",
"426 676 OFFCURVE",
"409 675 OFFCURVE",
"386 675 CURVE SMOOTH",
"361 675 OFFCURVE",
"293 675 OFFCURVE",
"279 677 CURVE",
"274 635 OFFCURVE",
"-89 172 OFFCURVE",
"-206 25 CURVE SMOOTH",
"-284 -74 OFFCURVE",
"-352 -160 OFFCURVE",
"-415 -236 CURVE",
"-991 -475 OFFCURVE",
"-1151 -610 OFFCURVE",
"-1151 -720 CURVE SMOOTH",
"-1151 -751 OFFCURVE",
"-1120 -787 OFFCURVE",
"-1062 -787 CURVE SMOOTH"
);
},
{
closed = 1;
nodes = (
"-1102 -760 OFFCURVE",
"-1118 -735 OFFCURVE",
"-1118 -720 CURVE SMOOTH",
"-1118 -605 OFFCURVE",
"-930 -481 OFFCURVE",
"-449 -277 CURVE",
"-797 -696 OFFCURVE",
"-916 -759 OFFCURVE",
"-1059 -760 CURVE SMOOTH"
);
},
{
closed = 1;
nodes = (
"563 876 OFFCURVE",
"614 920 OFFCURVE",
"614 969 CURVE SMOOTH",
"614 1004 OFFCURVE",
"591 1032 OFFCURVE",
"554 1032 CURVE SMOOTH",
"499 1032 OFFCURVE",
"453 984 OFFCURVE",
"453 938 CURVE SMOOTH",
"453 902 OFFCURVE",
"478 876 OFFCURVE",
"514 876 CURVE SMOOTH {name = hr00;}"
);
}
);
width = 385;
}
);
leftKerningGroup = j;
rightKerningGroup = j;
unicode = 006A;
},
{
glyphname = jdotless;
lastChange = "2022-05-18 03:32:05 +0000";
layers = (
{
anchors = (
{
name = bottom;
position = "{-417, -787}";
},
{
name = top;
position = "{430, 760}";
}
);
layerId = master01;
paths = (
{
closed = 1;
nodes = (
"-838 -787 OFFCURVE",
"-679 -710 OFFCURVE",
"-259 -205 CURVE",
"103 -34 OFFCURVE",
"262 75 OFFCURVE",
"515 389 CURVE",
"495 406 LINE",
"261 112 OFFCURVE",
"109 0 OFFCURVE",
"-222 -160 CURVE",
"-129 -47 OFFCURVE",
"-24 85 OFFCURVE",
"96 242 CURVE SMOOTH {name = hr00;}",
"245 437 OFFCURVE",
"340 559 OFFCURVE",
"432 677 CURVE",
"423 676 OFFCURVE",
"406 675 OFFCURVE",
"383 675 CURVE SMOOTH",
"358 675 OFFCURVE",
"290 675 OFFCURVE",
"276 677 CURVE",
"271 635 OFFCURVE",
"-92 172 OFFCURVE",
"-209 25 CURVE SMOOTH",
"-286 -73 OFFCURVE",
"-355 -160 OFFCURVE",
"-417 -235 CURVE",
"-994 -474 OFFCURVE",
"-1151 -610 OFFCURVE",
"-1151 -720 CURVE SMOOTH",
"-1151 -751 OFFCURVE",
"-1121 -787 OFFCURVE",
"-1062 -787 CURVE SMOOTH"
);
},
{
closed = 1;
nodes = (
"-1102 -760 OFFCURVE",
"-1118 -735 OFFCURVE",
"-1118 -720 CURVE SMOOTH",
"-1118 -605 OFFCURVE",
"-933 -481 OFFCURVE",
"-452 -277 CURVE",
"-799 -696 OFFCURVE",
"-917 -759 OFFCURVE",
"-1060 -760 CURVE SMOOTH"
);
}
);
width = 385;
}
);
leftKerningGroup = j;
leftMetricsKey = j;
widthMetricsKey = j;
rightKerningGroup = jdotless;
unicode = 0237;
},
{
glyphname = k;
lastChange = "2022-05-18 03:32:05 +0000";
layers = (
{
anchors = (
{
name = bottom;
position = "{161, 0}";
},
{
name = top;
position = "{1143, 1211}";
}
);
layerId = master01;
paths = (
{
closed = 1;
nodes = (
"-148 18 OFFCURVE",
"-109 24 OFFCURVE",
"-92 24 CURVE SMOOTH",
"-73 24 OFFCURVE",
"-48 22 OFFCURVE",
"-34 19 CURVE {name = hr00;}",
"74 184 OFFCURVE",
"203 373 OFFCURVE",
"388 630 CURVE SMOOTH",
"1082 1595 LINE",
"1065 1593 OFFCURVE",
"1050 1591 OFFCURVE",
"1040 1591 CURVE SMOOTH",
"986 1589 OFFCURVE",
"960 1593 OFFCURVE",
"944 1595 CURVE",
"-163 14 LINE"
);
},
{
closed = 1;
nodes = (
"683 -2 OFFCURVE",
"978 375 OFFCURVE",
"994 389 CURVE",
"974 407 LINE",
"961 393 OFFCURVE",
"680 26 OFFCURVE",
"475 26 CURVE SMOOTH",
"439 26 OFFCURVE",
"428 38 OFFCURVE",
"428 57 CURVE SMOOTH",
"428 72 OFFCURVE",
"444 91 OFFCURVE",
"466 112 CURVE SMOOTH",
"588 223 OFFCURVE",
"603 279 OFFCURVE",
"603 332 CURVE SMOOTH",
"603 385 OFFCURVE",
"568 434 OFFCURVE",
"508 462 CURVE",
"533 480 OFFCURVE",
"559 503 OFFCURVE",
"585 534 CURVE",
"694 673 OFFCURVE",
"751 714 OFFCURVE",
"811 714 CURVE SMOOTH",
"828 714 OFFCURVE",
"840 710 OFFCURVE",
"850 702 CURVE",
"829 695 OFFCURVE",
"811 677 OFFCURVE",
"810 652 CURVE",
"807 617 OFFCURVE",
"838 592 OFFCURVE",
"867 592 CURVE SMOOTH",
"904 592 OFFCURVE",
"937 612 OFFCURVE",
"938 661 CURVE SMOOTH",
"939 705 OFFCURVE",
"896 744 OFFCURVE",
"832 744 CURVE SMOOTH",
"711 744 OFFCURVE",
"629 627 OFFCURVE",
"558 545 CURVE SMOOTH",
"522 505 OFFCURVE",
"506 490 OFFCURVE",
"475 475 CURVE",
"451 482 OFFCURVE",
"423 486 OFFCURVE",
"393 486 CURVE SMOOTH",
"341 486 OFFCURVE",
"297 464 OFFCURVE",
"297 440 CURVE SMOOTH",
"297 424 OFFCURVE",
"317 409 OFFCURVE",
"354 409 CURVE SMOOTH",
"377 409 OFFCURVE",
"422 412 OFFCURVE",
"476 442 CURVE",
"511 430 OFFCURVE",
"535 407 OFFCURVE",
"535 384 CURVE SMOOTH",
"535 369 OFFCURVE",
"525 353 OFFCURVE",
"486 313 CURVE",
"390 219 OFFCURVE",
"364 156 OFFCURVE",
"364 105 CURVE SMOOTH",
"364 49 OFFCURVE",
"391 -2 OFFCURVE",
"464 -2 CURVE SMOOTH"
);
}
);
width = 861;
}
);
leftKerningGroup = h;
leftMetricsKey = h;
rightKerningGroup = k;
unicode = 006B;
},
{
glyphname = kgreenlandic;
lastChange = "2022-05-18 03:32:05 +0000";
layers = (
{
layerId = master01;
paths = (
{
closed = 1;
nodes = (
"682 -2 OFFCURVE",
"978 375 OFFCURVE",
"993 389 CURVE",
"972 407 LINE",
"960 393 OFFCURVE",
"678 26 OFFCURVE",
"475 26 CURVE SMOOTH",
"438 26 OFFCURVE",
"426 38 OFFCURVE",
"426 57 CURVE SMOOTH",
"426 72 OFFCURVE",
"442 91 OFFCURVE",
"466 112 CURVE SMOOTH",
"587 218 OFFCURVE",
"602 271 OFFCURVE",
"602 321 CURVE SMOOTH",
"602 375 OFFCURVE",
"567 424 OFFCURVE",
"507 451 CURVE",
"532 469 OFFCURVE",
"558 492 OFFCURVE",
"584 523 CURVE",
"693 670 OFFCURVE",
"750 714 OFFCURVE",
"809 714 CURVE SMOOTH",
"827 714 OFFCURVE",
"839 711 OFFCURVE",
"849 702 CURVE",
"829 695 OFFCURVE",
"810 677 OFFCURVE",
"808 652 CURVE SMOOTH",
"806 617 OFFCURVE",
"837 592 OFFCURVE",
"866 592 CURVE SMOOTH {name = hr04;}",
"903 592 OFFCURVE",
"937 612 OFFCURVE",
"938 661 CURVE SMOOTH",
"938 705 OFFCURVE",
"896 744 OFFCURVE",
"831 744 CURVE SMOOTH",
"711 744 OFFCURVE",
"628 621 OFFCURVE",
"557 535 CURVE",
"521 495 OFFCURVE",
"505 480 OFFCURVE",
"473 464 CURVE",
"449 471 OFFCURVE",
"421 475 OFFCURVE",
"392 475 CURVE SMOOTH",
"340 475 OFFCURVE",
"295 454 OFFCURVE",
"295 430 CURVE SMOOTH",
"295 413 OFFCURVE",
"316 399 OFFCURVE",
"353 399 CURVE SMOOTH",
"376 399 OFFCURVE",
"422 402 OFFCURVE",
"476 432 CURVE",
"510 420 OFFCURVE",
"533 397 OFFCURVE",
"533 374 CURVE SMOOTH",
"533 359 OFFCURVE",
"523 343 OFFCURVE",
"486 303 CURVE",
"389 213 OFFCURVE",
"364 154 OFFCURVE",
"364 105 CURVE SMOOTH",
"364 49 OFFCURVE",
"390 -2 OFFCURVE",
"463 -2 CURVE SMOOTH"
);
},
{
closed = 1;
nodes = (
"-149 18 OFFCURVE",
"-111 24 OFFCURVE",
"-93 24 CURVE SMOOTH",
"-74 24 OFFCURVE",
"-48 22 OFFCURVE",
"-35 19 CURVE {name = hr01;}",
"73 184 OFFCURVE",
"248 442 OFFCURVE",
"433 700 CURVE",
"475 747 LINE",
"457 746 OFFCURVE",
"443 746 OFFCURVE",
"432 744 CURVE {name = hr02;}",
"409 743 OFFCURVE",
"366 746 OFFCURVE",
"350 747 CURVE {name = hr03;}",
"-164 14 LINE"
);
}
);
width = 860;
}
);
leftKerningGroup = kgreenlandic;
rightKerningGroup = k;
unicode = 0138;
},
{
glyphname = l;
lastChange = "2022-05-18 03:32:05 +0000";
layers = (
{
anchors = (
{
name = bottom;
position = "{-21, 0}";
},
{
name = center;
position = "{570, 971}";
},
{
name = top;
position = "{1013, 1596}";
},
{
name = topright;
position = "{1098, 1137}";
}
);
layerId = master01;
paths = (
{
closed = 1;
nodes = (
"263 -2 OFFCURVE",
"547 347 OFFCURVE",
"590 389 CURVE",
"570 406 LINE",
"530 368 OFFCURVE",
"254 26 OFFCURVE",
"57 26 CURVE SMOOTH {name = hr00;}",
"29 26 OFFCURVE",
"10 39 OFFCURVE",
"10 59 CURVE SMOOTH",
"10 90 OFFCURVE",
"22 119 OFFCURVE",
"262 454 CURVE",
"1084 1595 LINE",
"1067 1593 OFFCURVE",
"1052 1591 OFFCURVE",
"1042 1591 CURVE SMOOTH",
"989 1589 OFFCURVE",
"963 1593 OFFCURVE",
"945 1595 CURVE",
"172 490 LINE",
"-38 187 OFFCURVE",
"-57 150 OFFCURVE",
"-57 79 CURVE SMOOTH",
"-57 33 OFFCURVE",
"-16 -2 OFFCURVE",
"40 -2 CURVE SMOOTH"
);
}
);
width = 456;
}
);
leftKerningGroup = l;
rightKerningGroup = l;
unicode = 006C;
},
{
glyphname = ldot;
lastChange = "2022-05-18 03:32:05 +0000";
layers = (
{
layerId = master01;
paths = (
{
closed = 1;
nodes = (
"279 -2 OFFCURVE",
"569 347 OFFCURVE",
"613 389 CURVE",
"593 406 LINE",
"552 368 OFFCURVE",
"270 26 OFFCURVE",
"68 26 CURVE SMOOTH {name = hr00;}",
"34 26 OFFCURVE",
"10 39 OFFCURVE",
"10 59 CURVE SMOOTH",
"10 90 OFFCURVE",
"22 119 OFFCURVE",
"262 454 CURVE",
"1084 1595 LINE",
"1067 1593 OFFCURVE",
"1052 1591 OFFCURVE",
"1042 1591 CURVE SMOOTH",
"989 1589 OFFCURVE",
"963 1593 OFFCURVE",
"945 1595 CURVE",
"172 490 LINE",
"-38 187 OFFCURVE",
"-57 150 OFFCURVE",
"-57 79 CURVE SMOOTH",
"-57 33 OFFCURVE",
"-12 -2 OFFCURVE",
"51 -2 CURVE SMOOTH"
);
},
{
closed = 1;
nodes = (
"775 772 OFFCURVE",
"814 805 OFFCURVE",
"814 840 CURVE SMOOTH",
"814 866 OFFCURVE",
"797 887 OFFCURVE",
"769 887 CURVE SMOOTH",
"728 887 OFFCURVE",
"693 853 OFFCURVE",
"693 817 CURVE SMOOTH",
"693 792 OFFCURVE",
"713 772 OFFCURVE",
"740 772 CURVE SMOOTH"
);
}
);
width = 456;
}
);
leftKerningGroup = l;
leftMetricsKey = l;
rightKerningGroup = l;
rightMetricsKey = l;
unicode = 0140;
},
{
glyphname = lslash;
lastChange = "2022-05-18 03:32:05 +0000";
layers = (
{
layerId = master01;
paths = (
{
closed = 1;
nodes = (
"263 -2 OFFCURVE",
"547 347 OFFCURVE",
"590 389 CURVE",
"570 406 LINE",
"530 368 OFFCURVE",
"254 26 OFFCURVE",
"57 26 CURVE SMOOTH {name = hr00;}",
"29 26 OFFCURVE",
"10 39 OFFCURVE",
"10 59 CURVE SMOOTH",
"10 90 OFFCURVE",
"22 119 OFFCURVE",
"262 454 CURVE",
"1084 1595 LINE",
"1067 1593 OFFCURVE",
"1052 1591 OFFCURVE",
"1042 1591 CURVE SMOOTH",
"989 1589 OFFCURVE",
"963 1593 OFFCURVE",
"945 1595 CURVE",
"172 490 LINE",
"-38 187 OFFCURVE",
"-57 150 OFFCURVE",
"-57 79 CURVE SMOOTH",
"-57 33 OFFCURVE",
"-16 -2 OFFCURVE",
"40 -2 CURVE SMOOTH"
);
},
{
closed = 1;
nodes = (
"1244 1677 OFFCURVE",
"1306 1687 OFFCURVE",
"1355 1713 CURVE SMOOTH",
"1405 1736 OFFCURVE",
"1429 1757 OFFCURVE",
"1431 1772 CURVE",
"1430 1774 OFFCURVE",
"1424 1780 OFFCURVE",
"1415 1780 CURVE SMOOTH",
"1406 1781 OFFCURVE",
"1399 1780 OFFCURVE",
"1389 1769 CURVE",
"1359 1736 OFFCURVE",
"1313 1724 OFFCURVE",
"1262 1724 CURVE SMOOTH",
"1226 1724 OFFCURVE",
"1177 1733 OFFCURVE",
"1103 1757 CURVE SMOOTH",
"1050 1774 OFFCURVE",
"982 1792 OFFCURVE",
"935 1792 CURVE SMOOTH",
"886 1792 OFFCURVE",
"824 1782 OFFCURVE",
"775 1757 CURVE SMOOTH",
"725 1733 OFFCURVE",
"701 1713 OFFCURVE",
"699 1698 CURVE",
"700 1695 OFFCURVE",
"706 1690 OFFCURVE",
"715 1690 CURVE SMOOTH",
"724 1689 OFFCURVE",
"731 1690 OFFCURVE",
"741 1700 CURVE",
"771 1733 OFFCURVE",
"817 1744 OFFCURVE",
"868 1745 CURVE SMOOTH",
"903 1746 OFFCURVE",
"952 1736 OFFCURVE",
"1027 1713 CURVE SMOOTH",
"1081 1695 OFFCURVE",
"1147 1677 OFFCURVE",
"1195 1677 CURVE SMOOTH"
);
}
);
width = 456;
}
);
leftKerningGroup = lslash;
widthMetricsKey = l;
rightKerningGroup = lslash;
unicode = 0142;
},
{
glyphname = m;
lastChange = "2022-05-18 03:32:05 +0000";
layers = (
{
anchors = (
{
name = bottom;
position = "{498, 0}";
},
{
name = top;
position = "{978, 760}";
}
);
layerId = master01;
paths = (
{
closed = 1;
nodes = (
"1258 -5 OFFCURVE",
"1529 347 OFFCURVE",
"1568 389 CURVE",
"1547 406 LINE",
"1513 368 OFFCURVE",
"1246 24 OFFCURVE",
"1083 24 CURVE SMOOTH",
"1033 24 OFFCURVE",
"1010 34 OFFCURVE",
"1010 48 CURVE",
"1017 49 LINE",
"1017 66 OFFCURVE",
"1020 75 OFFCURVE",
"1089 147 CURVE",
"1311 388 OFFCURVE",
"1372 504 OFFCURVE",
"1375 584 CURVE",
"1376 634 OFFCURVE",
"1344 685 OFFCURVE",
"1258 685 CURVE SMOOTH",
"1203 685 OFFCURVE",
"1147 665 OFFCURVE",
"1047 584 CURVE SMOOTH",
"1003 548 OFFCURVE",
"951 500 OFFCURVE",
"891 439 CURVE {name = hr05;}",
"935 507 OFFCURVE",
"941 536 OFFCURVE",
"944 584 CURVE SMOOTH",
"947 634 OFFCURVE",
"912 685 OFFCURVE",
"827 685 CURVE SMOOTH",
"774 685 OFFCURVE",
"719 668 OFFCURVE",
"642 609 CURVE",
"561 551 OFFCURVE",
"434 423 OFFCURVE",
"247 207 CURVE",
"242 218 LINE",
"452 510 LINE SMOOTH",
"488 561 OFFCURVE",
"496 592 OFFCURVE",
"498 613 CURVE SMOOTH {name = hr06;}",
"504 675 OFFCURVE",
"456 685 OFFCURVE",
"417 685 CURVE SMOOTH",
"312 685 OFFCURVE",
"189 489 OFFCURVE",
"112 406 CURVE SMOOTH",
"107 401 OFFCURVE",
"112 398 OFFCURVE",
"115 394 CURVE",
"121 389 OFFCURVE",
"131 388 OFFCURVE",
"133 389 CURVE",
"204 478 OFFCURVE",
"343 651 OFFCURVE",
"381 651 CURVE SMOOTH",
"401 651 OFFCURVE",
"404 638 OFFCURVE",
"403 622 CURVE SMOOTH",
"400 593 OFFCURVE",
"363 554 OFFCURVE",
"-12 14 CURVE",
"1 18 OFFCURVE",
"35 24 OFFCURVE",
"83 24 CURVE SMOOTH {name = hr01;}",
"102 24 OFFCURVE",
"121 23 OFFCURVE",
"140 19 CURVE",
"233 141 LINE",
"412 359 OFFCURVE",
"553 502 OFFCURVE",
"645 576 CURVE SMOOTH",
"727 641 OFFCURVE",
"782 660 OFFCURVE",
"816 660 CURVE SMOOTH {name = hr03;}",
"845 660 OFFCURVE",
"865 650 OFFCURVE",
"865 629 CURVE SMOOTH",
"865 603 OFFCURVE",
"845 560 OFFCURVE",
"730 408 CURVE SMOOTH",
"554 176 OFFCURVE",
"617 255 OFFCURVE",
"420 14 CURVE",
"434 18 OFFCURVE",
"468 24 OFFCURVE",
"515 24 CURVE SMOOTH",
"535 24 OFFCURVE",
"553 23 OFFCURVE",
"572 19 CURVE",
"665 141 LINE",
"836 357 OFFCURVE",
"978 498 OFFCURVE",
"1082 577 CURVE SMOOTH",
"1169 642 OFFCURVE",
"1213 660 OFFCURVE",
"1245 660 CURVE SMOOTH",
"1284 660 OFFCURVE",
"1296 643 OFFCURVE",
"1296 624 CURVE SMOOTH",
"1296 592 OFFCURVE",
"1260 531 OFFCURVE",
"1156 413 CURVE",
"959 193 OFFCURVE",
"937 127 OFFCURVE",
"937 73 CURVE SMOOTH {name = hr04;}",
"937 26 OFFCURVE",
"999 -5 OFFCURVE",
"1071 -5 CURVE SMOOTH"
);
}
);
width = 1435;
}
);
leftKerningGroup = n;
leftMetricsKey = n;
rightKerningGroup = n;
rightMetricsKey = n;
unicode = 006D;
},
{
glyphname = n;
lastChange = "2022-05-18 03:32:05 +0000";
layers = (
{
anchors = (
{
name = bottom;
position = "{363, 0}";
},
{
name = top;
position = "{720, 760}";
}
);
layerId = master01;
paths = (
{
closed = 1;
nodes = (
"886 -2 OFFCURVE",
"1136 347 OFFCURVE",
"1175 389 CURVE",
"1154 406 LINE",
"1120 368 OFFCURVE",
"871 26 OFFCURVE",
"667 26 CURVE SMOOTH",
"625 26 OFFCURVE",
"595 36 OFFCURVE",
"595 49 CURVE SMOOTH",
"595 66 OFFCURVE",
"599 75 OFFCURVE",
"667 147 CURVE",
"889 388 OFFCURVE",
"950 504 OFFCURVE",
"953 584 CURVE",
"954 634 OFFCURVE",
"922 685 OFFCURVE",
"836 685 CURVE SMOOTH",
"795 685 OFFCURVE",
"748 674 OFFCURVE",
"684 632 CURVE SMOOTH",
"588 568 OFFCURVE",
"455 441 OFFCURVE",
"247 207 CURVE",
"242 218 LINE",
"452 510 LINE SMOOTH {name = hr04;}",
"488 561 OFFCURVE",
"496 592 OFFCURVE",
"498 613 CURVE SMOOTH",
"504 675 OFFCURVE",
"456 685 OFFCURVE",
"417 685 CURVE SMOOTH",
"312 685 OFFCURVE",
"189 489 OFFCURVE",
"112 406 CURVE SMOOTH",
"107 401 OFFCURVE",
"112 398 OFFCURVE",
"115 394 CURVE",
"121 389 OFFCURVE",
"131 388 OFFCURVE",
"133 389 CURVE",
"204 478 OFFCURVE",
"343 651 OFFCURVE",
"381 651 CURVE SMOOTH",
"401 651 OFFCURVE",
"404 638 OFFCURVE",
"403 622 CURVE SMOOTH",
"400 593 OFFCURVE",
"363 554 OFFCURVE",
"-12 14 CURVE",
"4 18 OFFCURVE",
"35 24 OFFCURVE",
"83 24 CURVE SMOOTH {name = hr01;}",
"103 24 OFFCURVE",
"120 23 OFFCURVE",
"141 19 CURVE",
"234 141 LINE",
"433 385 OFFCURVE",
"587 531 OFFCURVE",
"692 603 CURVE SMOOTH",
"753 644 OFFCURVE",
"798 660 OFFCURVE",
"825 660 CURVE SMOOTH",
"862 660 OFFCURVE",
"873 643 OFFCURVE",
"873 624 CURVE SMOOTH",
"873 592 OFFCURVE",
"839 531 OFFCURVE",
"734 413 CURVE SMOOTH",
"537 193 OFFCURVE",
"521 129 OFFCURVE",
"521 75 CURVE SMOOTH {name = hr03;}",
"521 28 OFFCURVE",
"583 -2 OFFCURVE",
"657 -2 CURVE SMOOTH"
);
}
);
width = 1042;
}
);
leftKerningGroup = n;
rightKerningGroup = n;
unicode = 006E;
userData = {
KernOnName = n;
};
},
{
glyphname = eng;
lastChange = "2022-05-18 03:32:05 +0000";
layers = (
{
anchors = (
{
name = bottom;
position = "{335, 0}";
}
);
layerId = master01;
paths = (
{
closed = 1;
nodes = (
"-208 -787 OFFCURVE",
"-48 -710 OFFCURVE",
"372 -205 CURVE",
"735 -34 OFFCURVE",
"893 74 OFFCURVE",
"1147 389 CURVE",
"1127 406 LINE",
"893 111 OFFCURVE",
"741 -1 OFFCURVE",
"409 -160 CURVE",
"666 148 LINE SMOOTH",
"861 358 OFFCURVE",
"949 488 OFFCURVE",
"953 584 CURVE SMOOTH",
"954 634 OFFCURVE",
"922 685 OFFCURVE",
"836 685 CURVE SMOOTH",
"795 685 OFFCURVE",
"748 674 OFFCURVE",
"684 632 CURVE SMOOTH",
"588 568 OFFCURVE",
"455 441 OFFCURVE",
"247 207 CURVE",
"242 218 LINE",
"452 510 LINE SMOOTH {name = hr04;}",
"488 561 OFFCURVE",
"496 592 OFFCURVE",
"498 613 CURVE SMOOTH",
"504 675 OFFCURVE",
"456 685 OFFCURVE",
"417 685 CURVE SMOOTH",
"312 685 OFFCURVE",
"189 489 OFFCURVE",
"112 406 CURVE SMOOTH",
"107 401 OFFCURVE",
"112 398 OFFCURVE",
"115 394 CURVE",
"121 389 OFFCURVE",
"131 388 OFFCURVE",
"133 389 CURVE",
"204 478 OFFCURVE",
"343 651 OFFCURVE",
"381 651 CURVE SMOOTH",
"401 651 OFFCURVE",
"404 638 OFFCURVE",
"403 622 CURVE SMOOTH",
"400 593 OFFCURVE",
"363 554 OFFCURVE",
"-12 14 CURVE",
"4 18 OFFCURVE",
"35 24 OFFCURVE",
"83 24 CURVE SMOOTH {name = hr01;}",
"103 24 OFFCURVE",
"120 23 OFFCURVE",
"141 19 CURVE",
"234 141 LINE",
"433 385 OFFCURVE",
"587 531 OFFCURVE",
"692 603 CURVE SMOOTH",
"753 644 OFFCURVE",
"798 660 OFFCURVE",
"825 660 CURVE SMOOTH",
"862 660 OFFCURVE",
"873 643 OFFCURVE",
"873 624 CURVE SMOOTH",
"873 592 OFFCURVE",
"839 531 OFFCURVE",
"734 413 CURVE SMOOTH",
"651 307 OFFCURVE",
"488 111 OFFCURVE",
"417 25 CURVE SMOOTH",
"336 -74 OFFCURVE",
"277 -160 OFFCURVE",
"214 -236 CURVE",
"-362 -475 OFFCURVE",
"-522 -610 OFFCURVE",
"-522 -720 CURVE SMOOTH",
"-522 -751 OFFCURVE",
"-491 -787 OFFCURVE",
"-433 -787 CURVE SMOOTH"
);
},
{
closed = 1;
nodes = (
"-453 -760 OFFCURVE",
"-469 -735 OFFCURVE",
"-469 -720 CURVE SMOOTH",
"-469 -605 OFFCURVE",
"-281 -481 OFFCURVE",
"200 -277 CURVE",
"-148 -696 OFFCURVE",
"-267 -759 OFFCURVE",
"-410 -760 CURVE SMOOTH"
);
}
);
width = 1014;
}
);
leftKerningGroup = n;
rightKerningGroup = j;
unicode = 014B;
},
{
glyphname = o;
lastChange = "2022-05-18 03:32:05 +0000";
layers = (
{
anchors = (
{
name = bottom;
position = "{143, 0}";
},
{
name = center;
position = "{380, 340}";
},
{
name = ogonek;
position = "{508, 10}";
},
{
name = top;
position = "{580, 760}";
},
{
name = topright;
position = "{622, 664}";
}
);
layerId = master01;
paths = (
{
closed = 1;
nodes = (
"289 -2 OFFCURVE",
"419 79 OFFCURVE",
"518 191 CURVE",
"530 170 OFFCURVE",
"553 161 OFFCURVE",
"583 161 CURVE SMOOTH",
"686 161 OFFCURVE",
"834 340 OFFCURVE",
"885 389 CURVE",
"863 406 LINE",
"837 380 OFFCURVE",
"684 189 OFFCURVE",
"585 189 CURVE SMOOTH",
"559 189 OFFCURVE",
"544 201 OFFCURVE",
"540 218 CURVE",
"626 325 OFFCURVE",
"682 456 OFFCURVE",
"676 570 CURVE SMOOTH",
"671 650 OFFCURVE",
"612 685 OFFCURVE",
"542 685 CURVE SMOOTH",
"366 685 OFFCURVE",
"195 546 OFFCURVE",
"98 408 CURVE SMOOTH",
"49 337 OFFCURVE",
"-3 222 OFFCURVE",
"1 131 CURVE",
"7 56 OFFCURVE",
"58 -2 OFFCURVE",
"170 -2 CURVE SMOOTH {name = hr00;}"
);
},
{
closed = 1;
nodes = (
"135 28 OFFCURVE",
"113 79 OFFCURVE",
"113 115 CURVE",
"108 178 OFFCURVE",
"143 259 OFFCURVE",
"242 383 CURVE SMOOTH",
"380 555 OFFCURVE",
"496 649 OFFCURVE",
"573 649 CURVE SMOOTH",
"609 649 OFFCURVE",
"644 627 OFFCURVE",
"648 562 CURVE SMOOTH",
"651 510 OFFCURVE",
"636 446 OFFCURVE",
"604 379 CURVE",
"563 366 OFFCURVE",
"508 317 OFFCURVE",
"508 234 CURVE SMOOTH",
"508 230 LINE",
"468 182 OFFCURVE",
"421 138 OFFCURVE",
"369 101 CURVE SMOOTH",
"308 57 OFFCURVE",
"243 28 OFFCURVE",
"196 28 CURVE SMOOTH"
);
}
);
width = 752;
}
);
leftKerningGroup = o;
rightKerningGroup = o;
unicode = 006F;
userData = {
KernOnName = o;
};
},
{
glyphname = oslash;
lastChange = "2022-05-18 03:32:05 +0000";
layers = (
{
anchors = (
{
name = top;
position = "{476, 760}";
}
);
layerId = master01;
paths = (
{
closed = 1;
nodes = (
"5 -168 OFFCURVE",
"10 -168 OFFCURVE",
"16 -168 CURVE SMOOTH",
"23 -168 OFFCURVE",
"29 -168 OFFCURVE",
"38 -169 CURVE",
"164 -1 LINE",
"168 -1 OFFCURVE",
"173 -2 OFFCURVE",
"178 -2 CURVE SMOOTH",
"297 -2 OFFCURVE",
"427 79 OFFCURVE",
"526 191 CURVE",
"538 170 OFFCURVE",
"561 161 OFFCURVE",
"591 161 CURVE SMOOTH",
"694 161 OFFCURVE",
"842 340 OFFCURVE",
"893 389 CURVE",
"871 406 LINE",
"845 380 OFFCURVE",
"692 189 OFFCURVE",
"593 189 CURVE SMOOTH",
"567 189 OFFCURVE",
"552 201 OFFCURVE",
"548 218 CURVE",
"634 325 OFFCURVE",
"690 456 OFFCURVE",
"684 570 CURVE SMOOTH",
"682 603 OFFCURVE",
"670 628 OFFCURVE",
"653 647 CURVE",
"827 878 LINE",
"811 878 LINE SMOOTH",
"801 878 OFFCURVE",
"790 878 OFFCURVE",
"784 880 CURVE",
"625 668 LINE",
"604 679 OFFCURVE",
"577 685 OFFCURVE",
"550 685 CURVE SMOOTH",
"374 685 OFFCURVE",
"203 546 OFFCURVE",
"106 408 CURVE SMOOTH",
"57 337 OFFCURVE",
"5 222 OFFCURVE",
"9 131 CURVE",
"14 68 OFFCURVE",
"51 17 OFFCURVE",
"128 2 CURVE {name = hr00;}",
"0 -169 LINE"
);
},
{
closed = 1;
nodes = (
"131 59 OFFCURVE",
"121 90 OFFCURVE",
"121 115 CURVE",
"116 178 OFFCURVE",
"151 259 OFFCURVE",
"250 383 CURVE SMOOTH",
"388 555 OFFCURVE",
"504 649 OFFCURVE",
"581 649 CURVE SMOOTH",
"590 649 OFFCURVE",
"599 647 OFFCURVE",
"608 644 CURVE",
"157 41 LINE"
);
},
{
closed = 1;
nodes = (
"198 28 OFFCURVE",
"192 28 OFFCURVE",
"187 29 CURVE",
"635 624 LINE",
"646 610 OFFCURVE",
"654 590 OFFCURVE",
"656 562 CURVE SMOOTH",
"659 510 OFFCURVE",
"644 446 OFFCURVE",
"612 379 CURVE",
"571 366 OFFCURVE",
"516 317 OFFCURVE",
"516 234 CURVE SMOOTH",
"516 230 LINE",
"476 182 OFFCURVE",
"429 138 OFFCURVE",
"377 101 CURVE SMOOTH",
"316 57 OFFCURVE",
"251 28 OFFCURVE",
"204 28 CURVE SMOOTH"
);
}
);
width = 893;
}
);
leftKerningGroup = o;
rightKerningGroup = o;
unicode = 00F8;
},
{
glyphname = oe;
lastChange = "2022-05-18 03:32:05 +0000";
layers = (
{
layerId = master01;
paths = (
{
closed = 1;
nodes = (
"1060 -6 OFFCURVE",
"1287 344 OFFCURVE",
"1338 389 CURVE",
"1317 406 LINE",
"1279 373 OFFCURVE",
"1052 23 OFFCURVE",
"740 23 CURVE SMOOTH",
"682 23 OFFCURVE",
"633 59 OFFCURVE",
"633 122 CURVE SMOOTH",
"633 165 OFFCURVE",
"645 216 OFFCURVE",
"691 291 CURVE",
"1091 422 OFFCURVE",
"1205 541 OFFCURVE",
"1199 619 CURVE SMOOTH",
"1197 654 OFFCURVE",
"1169 685 OFFCURVE",
"1088 685 CURVE SMOOTH",
"974 685 OFFCURVE",
"803 614 OFFCURVE",
"662 452 CURVE",
"672 492 OFFCURVE",
"677 532 OFFCURVE",
"675 570 CURVE SMOOTH",
"671 650 OFFCURVE",
"611 685 OFFCURVE",
"540 685 CURVE SMOOTH",
"365 685 OFFCURVE",
"195 546 OFFCURVE",
"97 408 CURVE",
"48 337 OFFCURVE",
"-5 222 OFFCURVE",
"1 131 CURVE SMOOTH",
"6 56 OFFCURVE",
"57 -2 OFFCURVE",
"169 -2 CURVE SMOOTH {name = hr01;}",
"302 -2 OFFCURVE",
"449 99 OFFCURVE",
"550 231 CURVE",
"546 209 OFFCURVE",
"543 189 OFFCURVE",
"544 170 CURVE SMOOTH",
"547 71 OFFCURVE",
"599 -6 OFFCURVE",
"728 -6 CURVE SMOOTH {name = hr02;}"
);
},
{
closed = 1;
nodes = (
"135 28 OFFCURVE",
"113 79 OFFCURVE",
"112 115 CURVE",
"107 178 OFFCURVE",
"141 259 OFFCURVE",
"241 383 CURVE SMOOTH",
"380 555 OFFCURVE",
"496 649 OFFCURVE",
"572 649 CURVE SMOOTH",
"609 649 OFFCURVE",
"643 627 OFFCURVE",
"648 562 CURVE",
"656 432 OFFCURVE",
"546 226 OFFCURVE",
"368 101 CURVE",
"307 57 OFFCURVE",
"242 28 OFFCURVE",
"196 28 CURVE SMOOTH"
);
},
{
closed = 1;
nodes = (
"726 343 OFFCURVE",
"739 361 OFFCURVE",
"754 380 CURVE SMOOTH",
"894 562 OFFCURVE",
"991 661 OFFCURVE",
"1082 661 CURVE SMOOTH",
"1114 661 OFFCURVE",
"1133 644 OFFCURVE",
"1133 605 CURVE SMOOTH",
"1133 517 OFFCURVE",
"974 416 OFFCURVE",
"714 326 CURVE"
);
}
);
width = 1205;
}
);
leftKerningGroup = o;
rightKerningGroup = e;
rightMetricsKey = e;
unicode = 0153;
},
{
glyphname = p;
lastChange = "2022-05-18 03:32:05 +0000";
layers = (
{
anchors = (
{
name = bottom;
position = "{29, 0}";
},
{
name = top;
position = "{822, 722}";
}
);
layerId = master01;
paths = (
{
closed = 1;
nodes = (
"-567 -709 OFFCURVE",
"-538 -705 OFFCURVE",
"-524 -701 CURVE",
"-509 -674 OFFCURVE",
"-211 -202 OFFCURVE",
"-45 19 CURVE {name = hr00;}",
"138 237 OFFCURVE",
"415 498 OFFCURVE",
"587 597 CURVE",
"656 638 OFFCURVE",
"713 660 OFFCURVE",
"776 660 CURVE SMOOTH",
"802 660 OFFCURVE",
"817 644 OFFCURVE",
"817 628 CURVE SMOOTH",
"817 604 OFFCURVE",
"806 573 OFFCURVE",
"688 488 CURVE",
"449 311 OFFCURVE",
"359 187 OFFCURVE",
"359 97 CURVE SMOOTH",
"359 36 OFFCURVE",
"396 -2 OFFCURVE",
"475 -2 CURVE SMOOTH",
"678 -2 OFFCURVE",
"916 299 OFFCURVE",
"995 389 CURVE",
"973 406 LINE",
"889 309 OFFCURVE",
"667 26 OFFCURVE",
"481 26 CURVE SMOOTH",
"435 26 OFFCURVE",
"410 43 OFFCURVE",
"410 71 CURVE SMOOTH",
"410 100 OFFCURVE",
"437 132 OFFCURVE",
"570 227 CURVE SMOOTH",
"794 385 OFFCURVE",
"871 500 OFFCURVE",
"871 602 CURVE SMOOTH",
"871 651 OFFCURVE",
"843 685 OFFCURVE",
"776 685 CURVE SMOOTH",
"695 685 OFFCURVE",
"657 666 OFFCURVE",
"595 634 CURVE SMOOTH",
"493 581 OFFCURVE",
"345 459 OFFCURVE",
"136 258 CURVE",
"129 266 LINE",
"371 592 OFFCURVE",
"335 551 OFFCURVE",
"689 978 CURVE",
"670 972 OFFCURVE",
"651 971 OFFCURVE",
"632 971 CURVE SMOOTH",
"612 971 OFFCURVE",
"586 972 OFFCURVE",
"538 977 CURVE",
"255 592 OFFCURVE",
"254 604 OFFCURVE",
"62 337 CURVE",
"-147 33 OFFCURVE",
"-487 -424 OFFCURVE",
"-691 -700 CURVE",
"-673 -706 OFFCURVE",
"-634 -709 OFFCURVE",
"-618 -709 CURVE SMOOTH"
);
}
);
width = 862;
}
);
leftKerningGroup = p;
rightKerningGroup = p;
unicode = 0070;
userData = {
KernOnName = p;
};
},
{
glyphname = thorn;
lastChange = "2022-05-18 03:32:05 +0000";
layers = (
{
layerId = master01;
paths = (
{
closed = 1;
nodes = (
"-601 -709 OFFCURVE",
"-573 -705 OFFCURVE",
"-558 -701 CURVE",
"-544 -674 OFFCURVE",
"-204 -202 OFFCURVE",
"-47 19 CURVE {name = hr00;}",
"134 237 OFFCURVE",
"411 498 OFFCURVE",
"583 597 CURVE SMOOTH",
"654 638 OFFCURVE",
"710 660 OFFCURVE",
"772 660 CURVE SMOOTH",
"799 660 OFFCURVE",
"815 644 OFFCURVE",
"815 628 CURVE SMOOTH",
"815 604 OFFCURVE",
"802 573 OFFCURVE",
"685 488 CURVE",
"446 311 OFFCURVE",
"356 187 OFFCURVE",
"356 97 CURVE SMOOTH",
"356 36 OFFCURVE",
"394 -2 OFFCURVE",
"472 -2 CURVE SMOOTH",
"674 -2 OFFCURVE",
"913 299 OFFCURVE",
"992 389 CURVE",
"971 406 LINE",
"886 309 OFFCURVE",
"664 26 OFFCURVE",
"478 26 CURVE SMOOTH",
"432 26 OFFCURVE",
"408 43 OFFCURVE",
"408 71 CURVE SMOOTH",
"408 100 OFFCURVE",
"434 132 OFFCURVE",
"566 227 CURVE",
"791 385 OFFCURVE",
"868 500 OFFCURVE",
"868 602 CURVE SMOOTH",
"868 651 OFFCURVE",
"840 685 OFFCURVE",
"774 685 CURVE SMOOTH",
"693 685 OFFCURVE",
"654 666 OFFCURVE",
"592 634 CURVE SMOOTH",
"490 581 OFFCURVE",
"343 459 OFFCURVE",
"133 258 CURVE",
"125 266 LINE",
"377 592 OFFCURVE",
"782 1153 OFFCURVE",
"1149 1580 CURVE",
"1129 1575 OFFCURVE",
"1110 1573 OFFCURVE",
"1092 1573 CURVE SMOOTH",
"1072 1573 OFFCURVE",
"1045 1574 OFFCURVE",
"997 1579 CURVE",
"705 1194 OFFCURVE",
"259 604 OFFCURVE",
"59 337 CURVE SMOOTH",
"-168 33 OFFCURVE",
"-504 -424 OFFCURVE",
"-725 -700 CURVE",
"-707 -706 OFFCURVE",
"-669 -709 OFFCURVE",
"-652 -709 CURVE SMOOTH"
);
}
);
width = 859;
}
);
leftKerningGroup = thorn;
rightKerningGroup = thorn;
unicode = 00FE;
},
{
glyphname = q;
lastChange = "2022-05-18 03:32:05 +0000";
layers = (
{
layerId = master01;
paths = (
{
closed = 1;
nodes = (
"93 -787 OFFCURVE",
"416 -401 OFFCURVE",
"511 31 CURVE",
"529 11 OFFCURVE",
"559 -2 OFFCURVE",
"597 -2 CURVE SMOOTH",
"776 -2 OFFCURVE",
"1028 347 OFFCURVE",
"1064 389 CURVE",
"1042 406 LINE",
"1012 368 OFFCURVE",
"751 24 OFFCURVE",
"595 24 CURVE SMOOTH",
"558 24 OFFCURVE",
"525 43 OFFCURVE",
"519 69 CURVE",
"518 87 OFFCURVE",
"515 103 OFFCURVE",
"510 115 CURVE",
"629 251 LINE SMOOTH",
"766 408 OFFCURVE",
"839 514 OFFCURVE",
"950 645 CURVE",
"933 644 OFFCURVE",
"894 643 OFFCURVE",
"877 643 CURVE SMOOTH",
"855 643 OFFCURVE",
"830 645 OFFCURVE",
"818 650 CURVE",
"786 609 OFFCURVE",
"756 568 OFFCURVE",
"703 502 CURVE",
"710 523 OFFCURVE",
"714 546 OFFCURVE",
"714 571 CURVE SMOOTH",
"714 648 OFFCURVE",
"657 670 OFFCURVE",
"591 670 CURVE SMOOTH",
"448 670 OFFCURVE",
"295 617 OFFCURVE",
"119 414 CURVE SMOOTH",
"33 316 OFFCURVE",
"-3 213 OFFCURVE",
"-3 127 CURVE SMOOTH",
"-3 46 OFFCURVE",
"36 -2 OFFCURVE",
"119 -2 CURVE SMOOTH {name = hr00;}",
"173 -2 OFFCURVE",
"275 36 OFFCURVE",
"389 126 CURVE",
"17 -258 OFFCURVE",
"-184 -565 OFFCURVE",
"-184 -715 CURVE SMOOTH",
"-184 -762 OFFCURVE",
"-159 -787 OFFCURVE",
"-117 -787 CURVE SMOOTH"
);
},
{
closed = 1;
nodes = (
"-143 -765 OFFCURVE",
"-152 -754 OFFCURVE",
"-152 -732 CURVE SMOOTH",
"-152 -659 OFFCURVE",
"254 -180 OFFCURVE",
"489 91 CURVE",
"492 83 OFFCURVE",
"492 72 OFFCURVE",
"489 57 CURVE SMOOTH",
"404 -340 OFFCURVE",
"29 -765 OFFCURVE",
"-117 -765 CURVE SMOOTH"
);
},
{
closed = 1;
nodes = (
"93 28 OFFCURVE",
"79 42 OFFCURVE",
"79 79 CURVE SMOOTH",
"79 141 OFFCURVE",
"122 229 OFFCURVE",
"219 347 CURVE",
"391 549 OFFCURVE",
"551 641 OFFCURVE",
"615 641 CURVE SMOOTH",
"650 641 OFFCURVE",
"689 620 OFFCURVE",
"689 580 CURVE SMOOTH",
"689 507 OFFCURVE",
"665 460 OFFCURVE",
"638 423 CURVE",
"619 399 OFFCURVE",
"597 373 OFFCURVE",
"573 344 CURVE SMOOTH",
"377 109 OFFCURVE",
"214 28 OFFCURVE",
"124 28 CURVE SMOOTH"
);
}
);
width = 931;
}
);
leftKerningGroup = q;
rightKerningGroup = q;
unicode = 0071;
},
{
glyphname = r;
lastChange = "2022-05-18 03:32:05 +0000";
layers = (
{
anchors = (
{
name = bottom;
position = "{31, 0}";
},
{
name = top;
position = "{546, 760}";
}
);
layerId = master01;
paths = (
{
closed = 1;
nodes = (
"501 -2 OFFCURVE",
"741 319 OFFCURVE",
"815 389 CURVE",
"795 406 LINE",
"746 353 OFFCURVE",
"477 32 OFFCURVE",
"315 32 CURVE SMOOTH",
"293 32 OFFCURVE",
"277 44 OFFCURVE",
"277 79 CURVE SMOOTH",
"277 174 OFFCURVE",
"464 402 OFFCURVE",
"610 515 CURVE SMOOTH",
"631 532 OFFCURVE",
"639 541 OFFCURVE",
"639 548 CURVE SMOOTH",
"639 552 OFFCURVE",
"636 562 OFFCURVE",
"611 563 CURVE SMOOTH",
"535 568 OFFCURVE",
"315 608 OFFCURVE",
"315 634 CURVE SMOOTH",
"315 653 OFFCURVE",
"322 674 OFFCURVE",
"333 687 CURVE",
"345 707 OFFCURVE",
"360 726 OFFCURVE",
"360 757 CURVE SMOOTH",
"360 784 OFFCURVE",
"339 803 OFFCURVE",
"307 803 CURVE SMOOTH",
"250 803 OFFCURVE",
"207 741 OFFCURVE",
"218 677 CURVE SMOOTH",
"222 657 OFFCURVE",
"236 641 OFFCURVE",
"260 626 CURVE",
"232 569 OFFCURVE",
"178 490 OFFCURVE",
"111 406 CURVE SMOOTH",
"47 326 OFFCURVE",
"33 317 OFFCURVE",
"33 312 CURVE",
"31 306 OFFCURVE",
"32 293 OFFCURVE",
"36 295 CURVE",
"38 298 OFFCURVE",
"52 295 OFFCURVE",
"132 389 CURVE",
"210 478 OFFCURVE",
"260 558 OFFCURVE",
"287 612 CURVE",
"346 585 OFFCURVE",
"444 563 OFFCURVE",
"580 541 CURVE",
"313 362 OFFCURVE",
"146 208 OFFCURVE",
"146 101 CURVE SMOOTH {name = hr00;}",
"146 39 OFFCURVE",
"197 -2 OFFCURVE",
"272 -2 CURVE SMOOTH"
);
}
);
width = 682;
}
);
leftKerningGroup = r;
rightKerningGroup = r;
unicode = 0072;
userData = {
KernOnName = r;
};
},
{
glyphname = s;
lastChange = "2022-05-18 03:32:05 +0000";
layers = (
{
anchors = (
{
name = bottom;
position = "{67, 0}";
},
{
name = top;
position = "{497, 841}";
}
);
layerId = master01;
paths = (
{
closed = 1;
nodes = (
"210 -23 OFFCURVE",
"340 21 OFFCURVE",
"403 160 CURVE",
"413 158 OFFCURVE",
"424 158 OFFCURVE",
"436 158 CURVE SMOOTH",
"539 158 OFFCURVE",
"683 342 OFFCURVE",
"729 389 CURVE",
"707 406 LINE",
"680 369 OFFCURVE",
"525 182 OFFCURVE",
"439 182 CURVE SMOOTH",
"429 182 OFFCURVE",
"420 183 OFFCURVE",
"412 184 CURVE",
"426 223 OFFCURVE",
"432 268 OFFCURVE",
"430 321 CURVE {name = hr03;}",
"424 426 OFFCURVE",
"389 562 OFFCURVE",
"391 634 CURVE SMOOTH",
"391 654 OFFCURVE",
"386 657 OFFCURVE",
"422 700 CURVE SMOOTH",
"453 736 OFFCURVE",
"467 755 OFFCURVE",
"468 771 CURVE",
"468 791 OFFCURVE",
"451 804 OFFCURVE",
"428 804 CURVE SMOOTH",
"398 804 OFFCURVE",
"384 766 OFFCURVE",
"376 726 CURVE",
"298 626 OFFCURVE",
"156 458 OFFCURVE",
"111 406 CURVE SMOOTH {name = hr04;}",
"93 384 OFFCURVE",
"74 363 OFFCURVE",
"77 357 CURVE SMOOTH",
"82 348 OFFCURVE",
"93 351 OFFCURVE",
"95 351 CURVE SMOOTH",
"93 351 OFFCURVE",
"105 357 OFFCURVE",
"132 389 CURVE SMOOTH",
"189 458 OFFCURVE",
"292 585 OFFCURVE",
"368 679 CURVE",
"368 676 OFFCURVE",
"368 673 OFFCURVE",
"367 670 CURVE SMOOTH",
"331 566 OFFCURVE",
"332 438 OFFCURVE",
"326 374 CURVE",
"293 101 OFFCURVE",
"117 13 OFFCURVE",
"33 13 CURVE SMOOTH",
"-8 13 OFFCURVE",
"-124 23 OFFCURVE",
"-124 99 CURVE SMOOTH",
"-124 144 OFFCURVE",
"-83 172 OFFCURVE",
"-68 187 CURVE",
"-59 182 OFFCURVE",
"-42 166 OFFCURVE",
"-26 166 CURVE SMOOTH",
"9 166 OFFCURVE",
"42 188 OFFCURVE",
"44 209 CURVE",
"44 234 OFFCURVE",
"29 247 OFFCURVE",
"3 247 CURVE SMOOTH",
"-34 247 OFFCURVE",
"-150 199 OFFCURVE",
"-150 100 CURVE SMOOTH",
"-150 -10 OFFCURVE",
"-7 -23 OFFCURVE",
"56 -23 CURVE SMOOTH {name = hr01;}"
);
}
);
width = 596;
}
);
leftKerningGroup = s;
rightKerningGroup = s;
unicode = 0073;
},
{
glyphname = saltillo;
lastChange = "2022-05-18 03:32:05 +0000";
layers = (
{
layerId = master01;
paths = (
{
closed = 1;
nodes = (
"280 611 OFFCURVE",
"287 614 OFFCURVE",
"296 627 CURVE SMOOTH",
"322 663 OFFCURVE",
"394 766 OFFCURVE",
"511 930 CURVE SMOOTH",
"638 1110 OFFCURVE",
"779 1316 OFFCURVE",
"980 1575 CURVE",
"963 1572 OFFCURVE",
"923 1571 OFFCURVE",
"913 1570 CURVE SMOOTH",
"890 1569 OFFCURVE",
"852 1572 OFFCURVE",
"836 1575 CURVE",
"795 1515 LINE SMOOTH",
"704 1381 OFFCURVE",
"406 896 OFFCURVE",
"282 666 CURVE SMOOTH",
"269 643 OFFCURVE",
"264 629 OFFCURVE",
"264 622 CURVE SMOOTH",
"264 614 OFFCURVE",
"268 611 OFFCURVE",
"274 611 CURVE SMOOTH {name = hr00;}"
);
}
);
width = 232;
}
);
leftKerningGroup = saltillo;
rightKerningGroup = saltillo;
unicode = A78C;
},
{
glyphname = germandbls;
lastChange = "2022-05-18 03:32:05 +0000";
layers = (
{
layerId = master01;
paths = (
{
closed = 1;
nodes = (
"-225 -222 OFFCURVE",
"-215 -217 OFFCURVE",
"-199 -214 CURVE",
"-185 -186 OFFCURVE",
"-141 -96 OFFCURVE",
"97 218 CURVE",
"372 592 OFFCURVE",
"959 1549 OFFCURVE",
"1135 1549 CURVE SMOOTH",
"1206 1549 OFFCURVE",
"1233 1526 OFFCURVE",
"1236 1471 CURVE SMOOTH",
"1243 1346 OFFCURVE",
"1164 1235 OFFCURVE",
"860 988 CURVE",
"731 894 OFFCURVE",
"689 847 OFFCURVE",
"698 748 CURVE",
"743 209 OFFCURVE",
"608 24 OFFCURVE",
"418 24 CURVE SMOOTH",
"341 24 OFFCURVE",
"266 71 OFFCURVE",
"262 138 CURVE SMOOTH",
"260 164 OFFCURVE",
"267 182 OFFCURVE",
"276 195 CURVE",
"284 191 OFFCURVE",
"303 186 OFFCURVE",
"320 186 CURVE SMOOTH",
"351 186 OFFCURVE",
"389 209 OFFCURVE",
"386 244 CURVE",
"385 267 OFFCURVE",
"368 283 OFFCURVE",
"334 283 CURVE SMOOTH",
"282 283 OFFCURVE",
"229 229 OFFCURVE",
"233 141 CURVE SMOOTH {name = hr00;}",
"238 50 OFFCURVE",
"316 -2 OFFCURVE",
"424 -2 CURVE SMOOTH",
"480 -2 OFFCURVE",
"542 7 OFFCURVE",
"601 32 CURVE",
"888 34 OFFCURVE",
"1119 347 OFFCURVE",
"1155 389 CURVE",
"1133 406 LINE",
"1104 370 OFFCURVE",
"896 96 OFFCURVE",
"659 62 CURVE",
"756 124 OFFCURVE",
"829 236 OFFCURVE",
"820 429 CURVE",
"814 528 OFFCURVE",
"797 617 OFFCURVE",
"780 665 CURVE SMOOTH",
"763 711 OFFCURVE",
"751 755 OFFCURVE",
"749 785 CURVE SMOOTH",
"746 847 OFFCURVE",
"768 902 OFFCURVE",
"1000 1050 CURVE",
"1248 1219 OFFCURVE",
"1332 1328 OFFCURVE",
"1325 1455 CURVE SMOOTH",
"1321 1526 OFFCURVE",
"1257 1579 OFFCURVE",
"1149 1579 CURVE SMOOTH",
"897 1579 OFFCURVE",
"608 1134 OFFCURVE",
"62 337 CURVE",
"-153 28 OFFCURVE",
"-215 -53 OFFCURVE",
"-339 -212 CURVE",
"-322 -218 OFFCURVE",
"-294 -222 OFFCURVE",
"-277 -222 CURVE SMOOTH"
);
}
);
width = 1022;
}
);
leftKerningGroup = germandbls;
rightKerningGroup = germandbls;
unicode = 00DF;
},
{
glyphname = longs;
lastChange = "2022-05-18 03:32:05 +0000";
layers = (
{
layerId = master01;
paths = (
{
closed = 1;
nodes = (
"-62 -787 OFFCURVE",
"153 -322 OFFCURVE",
"188 144 CURVE {name = hr00;}",
"229 208 LINE",
"262 184 OFFCURVE",
"303 167 OFFCURVE",
"354 162 CURVE SMOOTH",
"631 133 OFFCURVE",
"773 348 OFFCURVE",
"816 389 CURVE",
"793 405 LINE",
"724 321 OFFCURVE",
"600 171 OFFCURVE",
"355 187 CURVE SMOOTH",
"310 190 OFFCURVE",
"273 207 OFFCURVE",
"244 232 CURVE",
"557 718 OFFCURVE",
"708 952 OFFCURVE",
"893 1245 CURVE SMOOTH",
"1052 1496 OFFCURVE",
"1120 1556 OFFCURVE",
"1163 1556 CURVE SMOOTH",
"1188 1556 OFFCURVE",
"1208 1536 OFFCURVE",
"1209 1499 CURVE SMOOTH",
"1214 1354 OFFCURVE",
"1061 1106 OFFCURVE",
"861 872 CURVE",
"912 872 LINE",
"1113 1103 OFFCURVE",
"1260 1344 OFFCURVE",
"1254 1493 CURVE",
"1253 1541 OFFCURVE",
"1225 1579 OFFCURVE",
"1168 1579 CURVE SMOOTH",
"1066 1579 OFFCURVE",
"893 1396 OFFCURVE",
"702 1123 CURVE SMOOTH",
"653 1054 OFFCURVE",
"566 905 OFFCURVE",
"182 319 CURVE",
"174 336 OFFCURVE",
"168 353 OFFCURVE",
"165 368 CURVE",
"198 385 OFFCURVE",
"230 435 OFFCURVE",
"230 465 CURVE SMOOTH",
"230 504 OFFCURVE",
"206 526 OFFCURVE",
"176 526 CURVE SMOOTH",
"142 526 OFFCURVE",
"118 496 OFFCURVE",
"111 453 CURVE SMOOTH",
"106 416 OFFCURVE",
"119 346 OFFCURVE",
"159 284 CURVE",
"68 147 LINE SMOOTH",
"-331 -454 OFFCURVE",
"-400 -581 OFFCURVE",
"-394 -690 CURVE",
"-393 -746 OFFCURVE",
"-351 -787 OFFCURVE",
"-296 -787 CURVE SMOOTH"
);
},
{
closed = 1;
nodes = (
"-316 -762 OFFCURVE",
"-334 -742 OFFCURVE",
"-334 -720 CURVE SMOOTH",
"-334 -634 OFFCURVE",
"-92 -282 OFFCURVE",
"155 94 CURVE",
"108 -419 OFFCURVE",
"-174 -762 OFFCURVE",
"-289 -762 CURVE SMOOTH"
);
}
);
width = 682;
}
);
leftKerningGroup = longs;
leftMetricsKey = f;
rightKerningGroup = longs;
rightMetricsKey = f;
unicode = 017F;
},
{
glyphname = t;
lastChange = "2022-05-18 03:32:05 +0000";
layers = (
{
anchors = (
{
name = bottom;
position = "{8, 0}";
},
{
name = center;
position = "{345, 569}";
},
{
name = top;
position = "{714, 1091}";
},
{
name = topright;
position = "{1020, 996}";
}
);
layerId = master01;
paths = (
{
closed = 1;
nodes = (
"246 -2 OFFCURVE",
"485 299 OFFCURVE",
"563 389 CURVE",
"541 406 LINE",
"460 309 OFFCURVE",
"235 28 OFFCURVE",
"51 26 CURVE {name = hr00;}",
"20 27 OFFCURVE",
"1 38 OFFCURVE",
"1 58 CURVE SMOOTH",
"1 87 OFFCURVE",
"39 160 OFFCURVE",
"289 497 CURVE SMOOTH",
"553 853 LINE",
"836 853 LINE SMOOTH",
"853 853 OFFCURVE",
"861 858 OFFCURVE",
"861 868 CURVE SMOOTH",
"861 877 OFFCURVE",
"853 882 OFFCURVE",
"833 882 CURVE SMOOTH",
"575 882 LINE",
"768 1142 LINE",
"751 1139 OFFCURVE",
"736 1138 OFFCURVE",
"725 1138 CURVE SMOOTH",
"671 1137 OFFCURVE",
"646 1139 OFFCURVE",
"629 1142 CURVE",
"444 882 LINE",
"353 882 LINE SMOOTH",
"330 882 OFFCURVE",
"315 880 OFFCURVE",
"315 866 CURVE SMOOTH",
"315 855 OFFCURVE",
"324 853 OFFCURVE",
"345 853 CURVE SMOOTH",
"424 853 LINE",
"166 490 LINE SMOOTH",
"-48 189 OFFCURVE",
"-68 148 OFFCURVE",
"-68 76 CURVE SMOOTH",
"-68 31 OFFCURVE",
"-31 -2 OFFCURVE",
"42 -2 CURVE SMOOTH"
);
}
);
width = 429;
}
);
leftKerningGroup = t;
rightKerningGroup = t;
unicode = 0074;
},
{
glyphname = u;
lastChange = "2022-05-18 03:32:05 +0000";
layers = (
{
anchors = (
{
name = bottom;
position = "{104, -2}";
},
{
name = ogonek;
position = "{628, 49}";
},
{
name = top;
position = "{683, 760}";
},
{
name = topright;
position = "{899, 673}";
}
);
layerId = master01;
paths = (
{
closed = 1;
nodes = (
"104 -2 OFFCURVE",
"161 10 OFFCURVE",
"229 51 CURVE SMOOTH",
"297 92 OFFCURVE",
"367 153 OFFCURVE",
"453 246 CURVE",
"415 180 OFFCURVE",
"401 131 OFFCURVE",
"403 83 CURVE",
"404 30 OFFCURVE",
"444 -2 OFFCURVE",
"498 -2 CURVE SMOOTH",
"691 -2 OFFCURVE",
"977 347 OFFCURVE",
"1018 389 CURVE",
"998 406 LINE",
"961 368 OFFCURVE",
"683 26 OFFCURVE",
"505 26 CURVE SMOOTH",
"457 26 OFFCURVE",
"454 46 OFFCURVE",
"453 62 CURVE",
"453 87 OFFCURVE",
"462 103 OFFCURVE",
"526 178 CURVE",
"638 315 OFFCURVE",
"822 547 OFFCURVE",
"940 676 CURVE",
"923 674 OFFCURVE",
"899 673 OFFCURVE",
"868 673 CURVE SMOOTH",
"839 673 OFFCURVE",
"830 675 OFFCURVE",
"788 679 CURVE",
"724 603 OFFCURVE",
"669 538 OFFCURVE",
"623 481 CURVE SMOOTH",
"607 462 OFFCURVE",
"590 442 OFFCURVE",
"561 406 CURVE SMOOTH",
"427 241 OFFCURVE",
"313 140 OFFCURVE",
"224 80 CURVE SMOOTH",
"160 38 OFFCURVE",
"98 23 OFFCURVE",
"71 23 CURVE SMOOTH {name = hr00;}",
"34 23 OFFCURVE",
"23 40 OFFCURVE",
"23 59 CURVE",
"20 144 OFFCURVE",
"123 246 OFFCURVE",
"167 301 CURVE SMOOTH",
"256 410 OFFCURVE",
"376 555 OFFCURVE",
"489 676 CURVE",
"478 674 OFFCURVE",
"436 673 OFFCURVE",
"417 673 CURVE SMOOTH",
"392 673 OFFCURVE",
"354 676 OFFCURVE",
"337 679 CURVE",
"275 612 OFFCURVE",
"219 538 OFFCURVE",
"167 477 CURVE SMOOTH",
"19 304 OFFCURVE",
"-64 197 OFFCURVE",
"-59 99 CURVE",
"-58 49 OFFCURVE",
"-24 -2 OFFCURVE",
"63 -2 CURVE SMOOTH"
);
}
);
width = 885;
}
);
leftKerningGroup = u;
rightKerningGroup = u;
unicode = 0075;
userData = {
KernOnName = u;
};
},
{
glyphname = v;
lastChange = "2022-05-18 03:32:05 +0000";
layers = (
{
layerId = master01;
paths = (
{
closed = 1;
nodes = (
"194 -2 OFFCURVE",
"421 149 OFFCURVE",
"569 274 CURVE",
"540 210 OFFCURVE",
"556 168 OFFCURVE",
"621 168 CURVE SMOOTH",
"728 168 OFFCURVE",
"876 316 OFFCURVE",
"943 389 CURVE",
"922 406 LINE",
"870 347 OFFCURVE",
"720 193 OFFCURVE",
"629 193 CURVE SMOOTH",
"557 193 OFFCURVE",
"578 260 OFFCURVE",
"623 322 CURVE",
"650 347 LINE",
"818 510 OFFCURVE",
"849 598 OFFCURVE",
"849 654 CURVE SMOOTH",
"849 694 OFFCURVE",
"828 709 OFFCURVE",
"793 709 CURVE SMOOTH",
"749 709 OFFCURVE",
"714 674 OFFCURVE",
"714 625 CURVE SMOOTH",
"714 512 OFFCURVE",
"694 424 OFFCURVE",
"549 295 CURVE",
"395 160 OFFCURVE",
"199 24 OFFCURVE",
"52 24 CURVE SMOOTH {name = hr00;}",
"18 24 OFFCURVE",
"-4 26 OFFCURVE",
"-4 70 CURVE SMOOTH",
"-4 141 OFFCURVE",
"192 328 OFFCURVE",
"258 398 CURVE SMOOTH",
"352 498 OFFCURVE",
"387 552 OFFCURVE",
"525 676 CURVE",
"507 674 OFFCURVE",
"484 673 OFFCURVE",
"453 673 CURVE SMOOTH",
"422 673 OFFCURVE",
"410 675 OFFCURVE",
"368 679 CURVE",
"267 578 OFFCURVE",
"178 490 OFFCURVE",
"119 415 CURVE SMOOTH",
"-46 209 OFFCURVE",
"-74 152 OFFCURVE",
"-74 81 CURVE SMOOTH",
"-74 30 OFFCURVE",
"-36 -2 OFFCURVE",
"38 -2 CURVE SMOOTH"
);
}
);
width = 810;
}
);
leftKerningGroup = v;
rightKerningGroup = v;
unicode = 0076;
},
{
glyphname = vturned;
lastChange = "2022-05-18 03:32:05 +0000";
layers = (
{
layerId = master01;
paths = (
{
closed = 1;
nodes = (
"-10 9 OFFCURVE",
"25 44 OFFCURVE",
"25 93 CURVE SMOOTH",
"25 206 OFFCURVE",
"35 307 OFFCURVE",
"180 436 CURVE",
"334 611 OFFCURVE",
"530 694 OFFCURVE",
"677 694 CURVE SMOOTH {name = hr00;}",
"711 694 OFFCURVE",
"733 692 OFFCURVE",
"733 648 CURVE SMOOTH",
"733 577 OFFCURVE",
"547 390 OFFCURVE",
"481 320 CURVE SMOOTH",
"387 220 OFFCURVE",
"352 166 OFFCURVE",
"214 42 CURVE",
"232 44 OFFCURVE",
"255 45 OFFCURVE",
"286 45 CURVE SMOOTH",
"317 45 OFFCURVE",
"329 43 OFFCURVE",
"371 39 CURVE",
"472 140 OFFCURVE",
"563 227 OFFCURVE",
"620 303 CURVE SMOOTH",
"775 509 OFFCURVE",
"803 566 OFFCURVE",
"803 637 CURVE SMOOTH",
"803 688 OFFCURVE",
"765 720 OFFCURVE",
"691 720 CURVE SMOOTH",
"535 720 OFFCURVE",
"308 622 OFFCURVE",
"160 457 CURVE",
"79 371 LINE",
"-89 208 OFFCURVE",
"-110 120 OFFCURVE",
"-110 64 CURVE SMOOTH",
"-110 24 OFFCURVE",
"-89 9 OFFCURVE",
"-54 9 CURVE SMOOTH"
);
}
);
width = 660;
}
);
leftKerningGroup = vturned;
rightKerningGroup = vturned;
unicode = 028C;
},
{
glyphname = w;
lastChange = "2022-05-18 03:32:05 +0000";
layers = (
{
anchors = (
{
name = bottom;
position = "{221, 0}";
},
{
name = top;
position = "{880, 760}";
}
);
layerId = master01;
paths = (
{
closed = 1;
nodes = (
"57 -2 OFFCURVE",
"159 43 OFFCURVE",
"298 147 CURVE SMOOTH",
"342 179 OFFCURVE",
"385 215 OFFCURVE",
"427 253 CURVE",
"378 172 OFFCURVE",
"359 110 OFFCURVE",
"359 63 CURVE SMOOTH",
"359 26 OFFCURVE",
"376 -2 OFFCURVE",
"422 -2 CURVE SMOOTH",
"533 -2 OFFCURVE",
"749 122 OFFCURVE",
"905 244 CURVE",
"895 197 OFFCURVE",
"918 168 OFFCURVE",
"971 168 CURVE SMOOTH",
"1080 168 OFFCURVE",
"1219 316 OFFCURVE",
"1287 389 CURVE",
"1265 406 LINE",
"1214 347 OFFCURVE",
"1072 193 OFFCURVE",
"980 193 CURVE SMOOTH",
"928 193 OFFCURVE",
"923 229 OFFCURVE",
"940 273 CURVE",
"971 298 OFFCURVE",
"999 324 OFFCURVE",
"1022 347 CURVE SMOOTH",
"1187 512 OFFCURVE",
"1221 598 OFFCURVE",
"1221 654 CURVE SMOOTH",
"1221 694 OFFCURVE",
"1202 719 OFFCURVE",
"1155 719 CURVE SMOOTH",
"1113 719 OFFCURVE",
"1085 674 OFFCURVE",
"1085 625 CURVE SMOOTH",
"1085 512 OFFCURVE",
"1052 459 OFFCURVE",
"919 319 CURVE SMOOTH",
"759 152 OFFCURVE",
"523 26 OFFCURVE",
"433 26 CURVE SMOOTH",
"420 26 OFFCURVE",
"408 31 OFFCURVE",
"408 49 CURVE SMOOTH",
"408 68 OFFCURVE",
"426 103 OFFCURVE",
"489 178 CURVE",
"608 315 OFFCURVE",
"827 547 OFFCURVE",
"950 676 CURVE",
"931 674 OFFCURVE",
"909 673 OFFCURVE",
"878 673 CURVE SMOOTH",
"847 673 OFFCURVE",
"839 675 OFFCURVE",
"797 679 CURVE",
"688 570 OFFCURVE",
"631 513 OFFCURVE",
"535 401 CURVE",
"473 330 OFFCURVE",
"387 250 OFFCURVE",
"298 185 CURVE",
"136 64 OFFCURVE",
"43 26 OFFCURVE",
"-9 26 CURVE SMOOTH {name = hr00;}",
"-32 26 OFFCURVE",
"-35 33 OFFCURVE",
"-35 48 CURVE SMOOTH",
"-35 72 OFFCURVE",
"-4 115 OFFCURVE",
"61 194 CURVE SMOOTH",
"146 295 OFFCURVE",
"349 510 OFFCURVE",
"511 676 CURVE",
"498 674 OFFCURVE",
"457 673 OFFCURVE",
"439 673 CURVE SMOOTH",
"414 673 OFFCURVE",
"375 676 OFFCURVE",
"358 679 CURVE",
"82 422 OFFCURVE",
"-80 188 OFFCURVE",
"-80 62 CURVE SMOOTH",
"-80 18 OFFCURVE",
"-53 -2 OFFCURVE",
"-15 -2 CURVE SMOOTH"
);
}
);
width = 1154;
}
);
leftKerningGroup = w;
rightKerningGroup = w;
unicode = 0077;
},
{
glyphname = x;
lastChange = "2022-05-18 03:32:05 +0000";
layers = (
{
anchors = (
{
name = bottom;
position = "{290, 0}";
},
{
name = top;
position = "{741, 719}";
}
);
layerId = master01;
paths = (
{
closed = 1;
nodes = (
"87 -2 OFFCURVE",
"253 84 OFFCURVE",
"387 268 CURVE",
"371 217 OFFCURVE",
"363 177 OFFCURVE",
"363 149 CURVE SMOOTH",
"363 39 OFFCURVE",
"434 -2 OFFCURVE",
"507 -2 CURVE SMOOTH",
"727 -2 OFFCURVE",
"1023 375 OFFCURVE",
"1039 389 CURVE",
"1018 407 LINE",
"1006 393 OFFCURVE",
"723 26 OFFCURVE",
"520 26 CURVE SMOOTH",
"482 26 OFFCURVE",
"454 41 OFFCURVE",
"454 82 CURVE SMOOTH",
"454 122 OFFCURVE",
"465 171 OFFCURVE",
"504 254 CURVE",
"516 276 OFFCURVE",
"528 297 OFFCURVE",
"538 318 CURVE",
"644 502 OFFCURVE",
"796 636 OFFCURVE",
"880 636 CURVE SMOOTH {name = hr03;}",
"884 636 OFFCURVE",
"890 636 OFFCURVE",
"897 635 CURVE",
"900 584 OFFCURVE",
"925 553 OFFCURVE",
"970 553 CURVE SMOOTH",
"995 553 OFFCURVE",
"1027 572 OFFCURVE",
"1027 613 CURVE SMOOTH",
"1027 644 OFFCURVE",
"1004 685 OFFCURVE",
"934 685 CURVE SMOOTH",
"818 685 OFFCURVE",
"683 574 OFFCURVE",
"591 452 CURVE",
"603 493 OFFCURVE",
"609 526 OFFCURVE",
"609 548 CURVE SMOOTH",
"609 634 OFFCURVE",
"562 685 OFFCURVE",
"486 685 CURVE SMOOTH {name = hr04;}",
"400 685 OFFCURVE",
"330 650 OFFCURVE",
"112 406 CURVE",
"110 401 OFFCURVE",
"113 398 OFFCURVE",
"115 396 CURVE SMOOTH",
"123 389 OFFCURVE",
"129 388 OFFCURVE",
"133 389 CURVE",
"338 622 OFFCURVE",
"408 654 OFFCURVE",
"475 654 CURVE SMOOTH",
"509 654 OFFCURVE",
"522 634 OFFCURVE",
"522 602 CURVE SMOOTH",
"522 561 OFFCURVE",
"514 520 OFFCURVE",
"455 435 CURVE",
"339 214 OFFCURVE",
"181 66 OFFCURVE",
"54 66 CURVE SMOOTH {name = hr01;}",
"38 66 OFFCURVE",
"30 71 OFFCURVE",
"14 83 CURVE SMOOTH",
"-1 93 OFFCURVE",
"-11 98 OFFCURVE",
"-27 98 CURVE SMOOTH",
"-60 98 OFFCURVE",
"-88 74 OFFCURVE",
"-88 51 CURVE SMOOTH",
"-88 17 OFFCURVE",
"-67 -2 OFFCURVE",
"-3 -2 CURVE SMOOTH"
);
}
);
width = 906;
}
);
leftKerningGroup = x;
rightKerningGroup = x;
unicode = 0078;
},
{
glyphname = y;
lastChange = "2022-05-18 03:32:05 +0000";
layers = (
{
anchors = (
{
name = bottom;
position = "{390, -364}";
},
{
name = top;
position = "{678, 718}";
}
);
layerId = master01;
paths = (
{
closed = 1;
nodes = (
"-244 -787 OFFCURVE",
"-98 -709 OFFCURVE",
"278 -235 CURVE",
"680 -46 OFFCURVE",
"765 56 OFFCURVE",
"1043 389 CURVE",
"1022 406 LINE",
"766 93 OFFCURVE",
"682 -14 OFFCURVE",
"313 -191 CURVE",
"407 -71 OFFCURVE",
"515 72 OFFCURVE",
"642 244 CURVE",
"990 673 LINE",
"973 670 OFFCURVE",
"935 669 OFFCURVE",
"918 669 CURVE SMOOTH",
"895 669 OFFCURVE",
"870 673 OFFCURVE",
"856 676 CURVE",
"802 609 OFFCURVE",
"727 515 OFFCURVE",
"591 366 CURVE",
"457 202 OFFCURVE",
"247 24 OFFCURVE",
"67 24 CURVE SMOOTH {name = hr00;}",
"47 24 OFFCURVE",
"16 26 OFFCURVE",
"16 70 CURVE SMOOTH",
"16 141 OFFCURVE",
"198 328 OFFCURVE",
"259 398 CURVE",
"352 498 OFFCURVE",
"386 552 OFFCURVE",
"525 676 CURVE",
"507 674 OFFCURVE",
"484 673 OFFCURVE",
"454 673 CURVE SMOOTH",
"423 673 OFFCURVE",
"410 675 OFFCURVE",
"368 679 CURVE",
"268 578 OFFCURVE",
"179 490 OFFCURVE",
"118 415 CURVE",
"-28 209 OFFCURVE",
"-53 152 OFFCURVE",
"-53 81 CURVE SMOOTH",
"-53 30 OFFCURVE",
"-15 -2 OFFCURVE",
"59 -2 CURVE SMOOTH",
"221 -2 OFFCURVE",
"436 152 OFFCURVE",
"549 272 CURVE",
"560 268 LINE",
"395 56 OFFCURVE",
"263 -113 OFFCURVE",
"153 -248 CURVE",
"-396 -479 OFFCURVE",
"-555 -612 OFFCURVE",
"-555 -720 CURVE SMOOTH",
"-555 -751 OFFCURVE",
"-525 -787 OFFCURVE",
"-468 -787 CURVE SMOOTH"
);
},
{
closed = 1;
nodes = (
"-506 -760 OFFCURVE",
"-523 -735 OFFCURVE",
"-523 -720 CURVE SMOOTH",
"-523 -607 OFFCURVE",
"-339 -486 OFFCURVE",
"118 -291 CURVE",
"-197 -675 OFFCURVE",
"-315 -760 OFFCURVE",
"-464 -760 CURVE SMOOTH"
);
}
);
width = 910;
}
);
leftKerningGroup = y;
rightKerningGroup = y;
unicode = 0079;
},
